<?xml version="1.0" encoding="utf-8"?>
<!-- Generator: Adobe Illustrator 21.0.0, SVG Export Plug-In . SVG Version: 6.00 Build 0)  -->
<svg version="1.1" id="Layer_1" xmlns:svg="http://www.w3.org/2000/svg"
	 xmlns="http://www.w3.org/2000/svg" xmlns:xlink="http://www.w3.org/1999/xlink" x="0px" y="0px" viewBox="0 0 841.9 595.3"
	 style="enable-background:new 0 0 841.9 595.3;" xml:space="preserve">
<style type="text/css">
	.st0{fill:#FFFFFF;stroke:#000000;stroke-miterlimit:10;}
</style>
<title>SVG Picture created as OreoOrtho-F_Paste.svg date 2020/10/18 01:03:22</title>
<desc>Picture generated by PCBNEW</desc>
<g transform="translate(0 0) scale(1 1)">
</g>
<g>
	<g>
		<path class="st0" d="M520.7,151.6h-5.1v-6h5.1V151.6z"/>
		<path class="st0" d="M520.7,143.4h-5.1v-6h5.1V143.4z"/>
		<path class="st0" d="M527.2,143.4h-5.1v-6h5.1V143.4z"/>
		<path class="st0" d="M527.2,151.6h-5.1v-6h5.1V151.6z"/>
	</g>
	<g>
		<path class="st0" d="M533.4,117.6v4.1h-1.7v-4.1H533.4z"/>
		<path class="st0" d="M551.7,117.6v4.1H550v-4.1H551.7z"/>
		<path class="st0" d="M535.6,117.6v4.1h-1.7v-4.1H535.6z"/>
		<path class="st0" d="M549.5,117.6v4.1h-1.7v-4.1H549.5z"/>
		<path class="st0" d="M547.1,117.6v4.1h-0.9v-4.1H547.1z"/>
		<path class="st0" d="M537.2,117.6v4.1h-0.9v-4.1H537.2z"/>
		<path class="st0" d="M545.7,117.6v4.1h-0.9v-4.1H545.7z"/>
		<path class="st0" d="M538.6,117.6v4.1h-0.9v-4.1H538.6z"/>
		<path class="st0" d="M544.2,117.6v4.1h-0.9v-4.1H544.2z"/>
		<path class="st0" d="M540,117.6v4.1h-0.9v-4.1H540z"/>
		<path class="st0" d="M541.4,117.6v4.1h-0.9v-4.1H541.4z"/>
		<path class="st0" d="M542.8,117.6v4.1H542v-4.1H542.8z"/>
	</g>
	<g>
		<path class="st0" d="M530.8,130v-4h2.8v4H530.8z"/>
		<path class="st0" d="M536.2,130v-4h2.8v4H536.2z"/>
		<path class="st0" d="M536.2,136.3v-4h2.8v4H536.2z"/>
		<path class="st0" d="M531.1,136.3v-4h3.4v4H531.1z"/>
	</g>
	<g>
		<path class="st0" d="M550.7,164.9v-1.6h4.5v1.6H550.7z"/>
		<path class="st0" d="M550.7,167.2v-1.6h4.5v1.6H550.7z"/>
		<path class="st0" d="M550.7,169.5v-1.6h4.5v1.6H550.7z"/>
		<path class="st0" d="M550.7,171.7v-1.6h4.5v1.6H550.7z"/>
		<path class="st0" d="M550.7,174v-1.6h4.5v1.6H550.7z"/>
		<path class="st0" d="M550.7,176.3v-1.6h4.5v1.6H550.7z"/>
		<path class="st0" d="M550.7,178.5V177h4.5v1.6H550.7z"/>
		<path class="st0" d="M550.7,180.8v-1.6h4.5v1.6H550.7z"/>
		<path class="st0" d="M548.1,181.9h1.6v4.5h-1.6V181.9z"/>
		<path class="st0" d="M545.8,181.9h1.6v4.5h-1.6V181.9z"/>
		<path class="st0" d="M543.5,181.9h1.6v4.5h-1.6V181.9z"/>
		<path class="st0" d="M541.3,181.9h1.6v4.5h-1.6V181.9z"/>
		<path class="st0" d="M539,181.9h1.6v4.5H539V181.9z"/>
		<path class="st0" d="M536.7,181.9h1.6v4.5h-1.6V181.9z"/>
		<path class="st0" d="M534.5,181.9h1.6v4.5h-1.6V181.9z"/>
		<path class="st0" d="M532.2,181.9h1.6v4.5h-1.6V181.9z"/>
		<path class="st0" d="M526.6,180.8v-1.6h4.5v1.6H526.6z"/>
		<path class="st0" d="M526.6,178.5V177h4.5v1.6H526.6z"/>
		<path class="st0" d="M526.6,176.3v-1.6h4.5v1.6H526.6z"/>
		<path class="st0" d="M526.6,174v-1.6h4.5v1.6H526.6z"/>
		<path class="st0" d="M526.6,171.7v-1.6h4.5v1.6H526.6z"/>
		<path class="st0" d="M526.6,169.5v-1.6h4.5v1.6H526.6z"/>
		<path class="st0" d="M526.6,167.2v-1.6h4.5v1.6H526.6z"/>
		<path class="st0" d="M526.6,164.9v-1.6h4.5v1.6H526.6z"/>
		<path class="st0" d="M532.2,157.8h1.6v4.5h-1.6V157.8z"/>
		<path class="st0" d="M534.5,157.8h1.6v4.5h-1.6V157.8z"/>
		<path class="st0" d="M536.7,157.8h1.6v4.5h-1.6V157.8z"/>
		<path class="st0" d="M539,157.8h1.6v4.5H539V157.8z"/>
		<path class="st0" d="M541.3,157.8h1.6v4.5h-1.6V157.8z"/>
		<path class="st0" d="M543.5,157.8h1.6v4.5h-1.6V157.8z"/>
		<path class="st0" d="M545.8,157.8h1.6v4.5h-1.6V157.8z"/>
		<path class="st0" d="M548.1,157.8h1.6v4.5h-1.6V157.8z"/>
	</g>
	<g>
		<path class="st0" d="M507.5,178.7h3.1v5.1h-3.1V178.7z"/>
		<path class="st0" d="M518,196.3h3.1v5.1H518V196.3z"/>
		<path class="st0" d="M518,178.7h3.1v5.1H518V178.7z"/>
		<path class="st0" d="M507.5,196.3h3.1v5.1h-3.1V196.3z"/>
	</g>
	<g>
		<path class="st0" d="M552.9,134.3L552.9,134.3l0.1,0l0.1,0l0.1,0l0.1,0l0.1,0l0.1,0l0,0.1l0,0.1l0,0.1l0,0.1l0,0.1l0,0.1l0,0.1
			l0,0.1v2.6l0,0.1l0,0.1l0,0.1l0,0.1l0,0.1l0,0.1l0,0.1l0,0.1l-0.1,0l-0.1,0l-0.1,0l-0.1,0l-0.1,0l-0.1,0l-0.1,0l-0.1,0h-1.5
			l-0.1,0l-0.1,0l-0.1,0l-0.1,0l-0.1,0l-0.1,0l-0.1,0l-0.1,0l0-0.1l0-0.1l0-0.1l0-0.1l0-0.1l0-0.1l0-0.1l0-0.1V135l0-0.1l0-0.1
			l0-0.1l0-0.1l0-0.1l0-0.1l0-0.1l0-0.1l0.1,0l0.1,0l0.1,0l0.1,0l0.1,0l0.1,0l0.1,0l0.1,0L552.9,134.3L552.9,134.3z"/>
		<path class="st0" d="M547.8,134.3L547.8,134.3l0.1,0l0.1,0l0.1,0l0.1,0l0.1,0l0.1,0l0,0.1l0,0.1l0,0.1l0,0.1l0,0.1l0,0.1l0,0.1
			l0,0.1v2.6l0,0.1l0,0.1l0,0.1l0,0.1l0,0.1l0,0.1l0,0.1l0,0.1l-0.1,0l-0.1,0l-0.1,0l-0.1,0l-0.1,0l-0.1,0l-0.1,0l-0.1,0h-1.5
			l-0.1,0l-0.1,0l-0.1,0l-0.1,0l-0.1,0l-0.1,0l-0.1,0l-0.1,0l0-0.1l0-0.1l0-0.1l0-0.1l0-0.1l0-0.1l0-0.1l0-0.1V135l0-0.1l0-0.1
			l0-0.1l0-0.1l0-0.1l0-0.1l0-0.1l0-0.1l0.1,0l0.1,0l0.1,0l0.1,0l0.1,0l0.1,0l0.1,0l0.1,0L547.8,134.3L547.8,134.3z"/>
	</g>
	<g>
		<path class="st0" d="M552.9,142.5L552.9,142.5l0.1,0l0.1,0l0.1,0l0.1,0l0.1,0l0.1,0l0,0.1l0,0.1l0,0.1l0,0.1l0,0.1l0,0.1l0,0.1
			l0,0.1v1.5l0,0.1l0,0.1l0,0.1l0,0.1l0,0.1l0,0.1l0,0.1l0,0.1l-0.1,0l-0.1,0l-0.1,0l-0.1,0l-0.1,0l-0.1,0l-0.1,0l-0.1,0h-2.6
			l-0.1,0l-0.1,0l-0.1,0l-0.1,0l-0.1,0l-0.1,0l-0.1,0l-0.1,0l0-0.1l0-0.1l0-0.1l0-0.1l0-0.1l0-0.1l0-0.1l0-0.1v-1.5l0-0.1l0-0.1
			l0-0.1l0-0.1l0-0.1l0-0.1l0-0.1l0-0.1l0.1,0l0.1,0l0.1,0l0.1,0l0.1,0l0.1,0l0.1,0l0.1,0L552.9,142.5L552.9,142.5z"/>
		<path class="st0" d="M552.9,147.7L552.9,147.7l0.1,0l0.1,0l0.1,0l0.1,0l0.1,0l0.1,0l0,0.1l0,0.1l0,0.1l0,0.1l0,0.1l0,0.1l0,0.1
			l0,0.1v1.5l0,0.1l0,0.1l0,0.1l0,0.1l0,0.1l0,0.1l0,0.1l0,0.1l-0.1,0l-0.1,0l-0.1,0l-0.1,0l-0.1,0l-0.1,0l-0.1,0l-0.1,0h-2.6
			l-0.1,0l-0.1,0l-0.1,0l-0.1,0l-0.1,0l-0.1,0l-0.1,0l-0.1,0l0-0.1l0-0.1l0-0.1l0-0.1l0-0.1l0-0.1l0-0.1l0-0.1v-1.5l0-0.1l0-0.1
			l0-0.1l0-0.1l0-0.1l0-0.1l0-0.1l0-0.1l0.1,0l0.1,0l0.1,0l0.1,0l0.1,0l0.1,0l0.1,0l0.1,0L552.9,147.7L552.9,147.7z"/>
	</g>
	<g>
		<path class="st0" d="M546.2,147.7L546.2,147.7l0.1,0l0.1,0l0.1,0l0.1,0l0.1,0l0.1,0l0,0.1l0,0.1l0,0.1l0,0.1l0,0.1l0,0.1l0,0.1
			l0,0.1v1.5l0,0.1l0,0.1l0,0.1l0,0.1l0,0.1l0,0.1l0,0.1l0,0.1l-0.1,0l-0.1,0l-0.1,0l-0.1,0l-0.1,0l-0.1,0l-0.1,0l-0.1,0h-2.6
			l-0.1,0l-0.1,0l-0.1,0l-0.1,0l-0.1,0l-0.1,0l-0.1,0l-0.1,0l0-0.1l0-0.1l0-0.1l0-0.1l0-0.1l0-0.1l0-0.1l0-0.1v-1.5l0-0.1l0-0.1
			l0-0.1l0-0.1l0-0.1l0-0.1l0-0.1l0-0.1l0.1,0l0.1,0l0.1,0l0.1,0l0.1,0l0.1,0l0.1,0l0.1,0L546.2,147.7L546.2,147.7z"/>
		<path class="st0" d="M546.2,142.5L546.2,142.5l0.1,0l0.1,0l0.1,0l0.1,0l0.1,0l0.1,0l0,0.1l0,0.1l0,0.1l0,0.1l0,0.1l0,0.1l0,0.1
			l0,0.1v1.5l0,0.1l0,0.1l0,0.1l0,0.1l0,0.1l0,0.1l0,0.1l0,0.1l-0.1,0l-0.1,0l-0.1,0l-0.1,0l-0.1,0l-0.1,0l-0.1,0l-0.1,0h-2.6
			l-0.1,0l-0.1,0l-0.1,0l-0.1,0l-0.1,0l-0.1,0l-0.1,0l-0.1,0l0-0.1l0-0.1l0-0.1l0-0.1l0-0.1l0-0.1l0-0.1l0-0.1v-1.5l0-0.1l0-0.1
			l0-0.1l0-0.1l0-0.1l0-0.1l0-0.1l0-0.1l0.1,0l0.1,0l0.1,0l0.1,0l0.1,0l0.1,0l0.1,0l0.1,0L546.2,142.5L546.2,142.5z"/>
	</g>
	<g>
		<path class="st0" d="M552.9,125.8L552.9,125.8l0.1,0l0.1,0l0.1,0l0.1,0l0.1,0l0.1,0l0,0.1l0,0.1l0,0.1l0,0.1l0,0.1l0,0.1l0,0.1
			l0,0.1v2.6l0,0.1l0,0.1l0,0.1l0,0.1l0,0.1l0,0.1l0,0.1l0,0.1l-0.1,0l-0.1,0l-0.1,0l-0.1,0l-0.1,0l-0.1,0l-0.1,0l-0.1,0h-1.5
			l-0.1,0l-0.1,0l-0.1,0l-0.1,0l-0.1,0l-0.1,0l-0.1,0l-0.1,0l0-0.1l0-0.1l0-0.1l0-0.1l0-0.1l0-0.1l0-0.1l0-0.1v-2.6l0-0.1l0-0.1
			l0-0.1l0-0.1l0-0.1l0-0.1l0-0.1l0-0.1l0.1,0l0.1,0l0.1,0l0.1,0l0.1,0l0.1,0l0.1,0l0.1,0L552.9,125.8L552.9,125.8z"/>
		<path class="st0" d="M547.8,125.8L547.8,125.8l0.1,0l0.1,0l0.1,0l0.1,0l0.1,0l0.1,0l0,0.1l0,0.1l0,0.1l0,0.1l0,0.1l0,0.1l0,0.1
			l0,0.1v2.6l0,0.1l0,0.1l0,0.1l0,0.1l0,0.1l0,0.1l0,0.1l0,0.1l-0.1,0l-0.1,0l-0.1,0l-0.1,0l-0.1,0l-0.1,0l-0.1,0l-0.1,0h-1.5
			l-0.1,0l-0.1,0l-0.1,0l-0.1,0l-0.1,0l-0.1,0l-0.1,0l-0.1,0l0-0.1l0-0.1l0-0.1l0-0.1l0-0.1l0-0.1l0-0.1l0-0.1v-2.6l0-0.1l0-0.1
			l0-0.1l0-0.1l0-0.1l0-0.1l0-0.1l0-0.1l0.1,0l0.1,0l0.1,0l0.1,0l0.1,0l0.1,0l0.1,0l0.1,0L547.8,125.8L547.8,125.8z"/>
	</g>
	<g>
		<path class="st0" d="M522,171.5L522,171.5l0.1,0l0.1,0l0.1,0l0.1,0l0.1,0l0.1,0l0,0.1l0,0.1l0,0.1l0,0.1l0,0.1l0,0.1l0,0.1l0,0.1
			v1.5l0,0.1l0,0.1l0,0.1l0,0.1l0,0.1l0,0.1l0,0.1l0,0.1l-0.1,0l-0.1,0l-0.1,0l-0.1,0l-0.1,0l-0.1,0l-0.1,0l-0.1,0h-2.6l-0.1,0
			l-0.1,0l-0.1,0l-0.1,0l-0.1,0l-0.1,0l-0.1,0l-0.1,0l0-0.1l0-0.1l0-0.1l0-0.1l0-0.1l0-0.1l0-0.1l0-0.1v-1.5l0-0.1l0-0.1l0-0.1
			l0-0.1l0-0.1l0-0.1l0-0.1l0-0.1l0.1,0l0.1,0l0.1,0l0.1,0l0.1,0l0.1,0l0.1,0l0.1,0L522,171.5L522,171.5z"/>
		<path class="st0" d="M522,166.4L522,166.4l0.1,0l0.1,0l0.1,0l0.1,0l0.1,0l0.1,0l0,0.1l0,0.1l0,0.1l0,0.1l0,0.1l0,0.1l0,0.1l0,0.1
			v1.5l0,0.1l0,0.1l0,0.1l0,0.1l0,0.1l0,0.1l0,0.1l0,0.1l-0.1,0l-0.1,0l-0.1,0l-0.1,0l-0.1,0l-0.1,0l-0.1,0l-0.1,0h-2.6l-0.1,0
			l-0.1,0l-0.1,0l-0.1,0l-0.1,0l-0.1,0l-0.1,0l-0.1,0l0-0.1l0-0.1l0-0.1l0-0.1l0-0.1l0-0.1l0-0.1l0-0.1v-1.5l0-0.1l0-0.1l0-0.1
			l0-0.1l0-0.1l0-0.1l0-0.1l0-0.1l0.1,0l0.1,0l0.1,0l0.1,0l0.1,0l0.1,0l0.1,0l0.1,0L522,166.4L522,166.4z"/>
	</g>
	<g>
		<path class="st0" d="M554.6,191L554.6,191l0.1,0l0.1,0l0.1,0l0.1,0l0.1,0l0.1,0l0,0.1l0,0.1l0,0.1l0,0.1l0,0.1l0,0.1l0,0.1l0,0.1
			v2.6l0,0.1l0,0.1l0,0.1l0,0.1l0,0.1l0,0.1l0,0.1l0,0.1l-0.1,0l-0.1,0l-0.1,0l-0.1,0l-0.1,0l-0.1,0l-0.1,0l-0.1,0h-1.5l-0.1,0
			l-0.1,0l-0.1,0l-0.1,0l-0.1,0l-0.1,0l-0.1,0l-0.1,0l0-0.1l0-0.1l0-0.1l0-0.1l0-0.1l0-0.1l0-0.1l0-0.1v-2.6l0-0.1l0-0.1l0-0.1
			l0-0.1l0-0.1l0-0.1l0-0.1l0-0.1l0.1,0l0.1,0l0.1,0l0.1,0l0.1,0l0.1,0l0.1,0l0.1,0L554.6,191L554.6,191z"/>
		<path class="st0" d="M549.5,191L549.5,191l0.1,0l0.1,0l0.1,0l0.1,0l0.1,0l0.1,0l0,0.1l0,0.1l0,0.1l0,0.1l0,0.1l0,0.1l0,0.1l0,0.1
			v2.6l0,0.1l0,0.1l0,0.1l0,0.1l0,0.1l0,0.1l0,0.1l0,0.1l-0.1,0l-0.1,0l-0.1,0l-0.1,0l-0.1,0l-0.1,0l-0.1,0l-0.1,0h-1.5l-0.1,0
			l-0.1,0l-0.1,0l-0.1,0l-0.1,0l-0.1,0l-0.1,0l-0.1,0l0-0.1l0-0.1l0-0.1l0-0.1l0-0.1l0-0.1l0-0.1l0-0.1v-2.6l0-0.1l0-0.1l0-0.1
			l0-0.1l0-0.1l0-0.1l0-0.1l0-0.1l0.1,0l0.1,0l0.1,0l0.1,0l0.1,0l0.1,0l0.1,0l0.1,0L549.5,191L549.5,191z"/>
	</g>
	<g>
		<path class="st0" d="M525.4,126.2L525.4,126.2l0.1,0l0.1,0l0.1,0l0.1,0l0.1,0l0.1,0l0,0.1l0,0.1l0,0.1l0,0.1l0,0.1l0,0.1l0,0.1
			l0,0.1v3.5l0,0.1l0,0.1l0,0.1l0,0.1l0,0.1l0,0.1l0,0.1l0,0.1l-0.1,0l-0.1,0l-0.1,0l-0.1,0l-0.1,0l-0.1,0l-0.1,0l-0.1,0h-2.1
			l-0.1,0l-0.1,0l-0.1,0l-0.1,0l-0.1,0l-0.1,0l-0.1,0l-0.1,0l0-0.1l0-0.1l0-0.1l0-0.1l0-0.1l0-0.1l0-0.1l0-0.1v-3.5l0-0.1l0-0.1
			l0-0.1l0-0.1l0-0.1l0-0.1l0-0.1l0-0.1l0.1,0l0.1,0l0.1,0l0.1,0l0.1,0l0.1,0l0.1,0l0.1,0L525.4,126.2L525.4,126.2z"/>
		<path class="st0" d="M517.5,126.2L517.5,126.2l0.1,0l0.1,0l0.1,0l0.1,0l0.1,0l0.1,0l0,0.1l0,0.1l0,0.1l0,0.1l0,0.1l0,0.1l0,0.1
			l0,0.1v3.5l0,0.1l0,0.1l0,0.1l0,0.1l0,0.1l0,0.1l0,0.1l0,0.1l-0.1,0l-0.1,0l-0.1,0l-0.1,0l-0.1,0l-0.1,0l-0.1,0l-0.1,0h-2.1
			l-0.1,0l-0.1,0l-0.1,0l-0.1,0l-0.1,0l-0.1,0l-0.1,0l-0.1,0l0-0.1l0-0.1l0-0.1l0-0.1l0-0.1l0-0.1l0-0.1l0-0.1v-3.5l0-0.1l0-0.1
			l0-0.1l0-0.1l0-0.1l0-0.1l0-0.1l0-0.1l0.1,0l0.1,0l0.1,0l0.1,0l0.1,0l0.1,0l0.1,0l0.1,0L517.5,126.2L517.5,126.2z"/>
	</g>
	<g>
		<path class="st0" d="M516.6,110L516.6,110l0.1,0l0.1,0l0.1,0l0.1,0l0.1,0l0,0l0,0l0,0l0,0.1l0,0.1l0,0.1l0,0.1l0,0.1l0,0.1v1.4
			l0,0.1l0,0.1l0,0.1l0,0.1l0,0.1l0,0.1l0,0.1l0,0l0,0l-0.1,0l-0.1,0l-0.1,0l-0.1,0l-0.1,0l-0.1,0l-0.1,0h-1.3l-0.1,0l-0.1,0l-0.1,0
			l-0.1,0l-0.1,0l-0.1,0l0,0l0,0l0,0l0-0.1l0-0.1l0-0.1l0-0.1l0-0.1l0-0.1l0-0.1v-1.4l0-0.1l0-0.1l0-0.1l0-0.1l0-0.1l0-0.1l0,0l0,0
			l0,0l0,0l0.1,0l0.1,0l0.1,0l0.1,0l0.1,0l0.1,0L516.6,110L516.6,110z"/>
		<path class="st0" d="M521,110L521,110l0.1,0l0.1,0l0.1,0l0.1,0l0,0l0,0l0,0l0,0l0,0.1l0,0.1l0,0.1l0,0.1l0,0.1l0,0.1v1.4l0,0.1
			l0,0.1l0,0.1l0,0.1l0,0.1l0,0.1l0,0.1l0,0l0,0l0,0l-0.1,0l-0.1,0l-0.1,0l-0.1,0l-0.1,0l-0.1,0h-1.3l-0.1,0l-0.1,0l-0.1,0l-0.1,0
			l-0.1,0l-0.1,0l-0.1,0l0,0l0,0l0-0.1l0-0.1l0-0.1l0-0.1l0-0.1l0-0.1l0-0.1v-1.4l0-0.1l0-0.1l0-0.1l0-0.1l0-0.1l0-0.1l0,0l0,0l0,0
			l0.1,0l0.1,0l0.1,0l0.1,0l0.1,0l0.1,0l0.1,0L521,110L521,110z"/>
	</g>
	<g>
		<path class="st0" d="M516.6,115.1L516.6,115.1l0.1,0l0.1,0l0.1,0l0.1,0l0.1,0l0,0l0,0l0,0.1l0,0.1l0,0.1l0,0.1l0,0.1l0,0.1l0,0.1
			v1.4l0,0.1l0,0.1l0,0.1l0,0.1l0,0.1l0,0.1l0,0.1l0,0l0,0l-0.1,0l-0.1,0l-0.1,0l-0.1,0l-0.1,0l-0.1,0l-0.1,0h-1.3l-0.1,0l-0.1,0
			l-0.1,0l-0.1,0l-0.1,0l-0.1,0l0,0l0,0l0,0l0-0.1l0-0.1l0-0.1l0-0.1l0-0.1l0-0.1l0-0.1v-1.4l0-0.1l0-0.1l0-0.1l0-0.1l0-0.1l0-0.1
			l0-0.1l0,0l0,0l0,0l0.1,0l0.1,0l0.1,0l0.1,0l0.1,0l0.1,0L516.6,115.1L516.6,115.1z"/>
		<path class="st0" d="M521,115.1L521,115.1l0.1,0l0.1,0l0.1,0l0.1,0l0,0l0,0l0,0l0,0.1l0,0.1l0,0.1l0,0.1l0,0.1l0,0.1l0,0.1v1.4
			l0,0.1l0,0.1l0,0.1l0,0.1l0,0.1l0,0.1l0,0.1l0,0l0,0l0,0l-0.1,0l-0.1,0l-0.1,0l-0.1,0l-0.1,0l-0.1,0h-1.3l-0.1,0l-0.1,0l-0.1,0
			l-0.1,0l-0.1,0l-0.1,0l-0.1,0l0,0l0,0l0-0.1l0-0.1l0-0.1l0-0.1l0-0.1l0-0.1l0-0.1v-1.4l0-0.1l0-0.1l0-0.1l0-0.1l0-0.1l0-0.1l0-0.1
			l0,0l0,0l0.1,0l0.1,0l0.1,0l0.1,0l0.1,0l0.1,0l0.1,0L521,115.1L521,115.1z"/>
	</g>
	<g>
		<path class="st0" d="M516.6,120.2L516.6,120.2l0.1,0l0.1,0l0.1,0l0.1,0l0.1,0l0,0l0,0l0,0.1l0,0.1l0,0.1l0,0.1l0,0.1l0,0.1l0,0.1
			v1.4l0,0.1l0,0.1l0,0.1l0,0.1l0,0.1l0,0.1l0,0.1l0,0l0,0l-0.1,0l-0.1,0l-0.1,0l-0.1,0l-0.1,0l-0.1,0l-0.1,0h-1.3l-0.1,0l-0.1,0
			l-0.1,0l-0.1,0l-0.1,0l-0.1,0l0,0l0,0l0,0l0-0.1l0-0.1l0-0.1l0-0.1l0-0.1l0-0.1l0-0.1v-1.4l0-0.1l0-0.1l0-0.1l0-0.1l0-0.1l0-0.1
			l0-0.1l0,0l0,0l0,0l0.1,0l0.1,0l0.1,0l0.1,0l0.1,0l0.1,0L516.6,120.2L516.6,120.2z"/>
		<path class="st0" d="M521,120.2L521,120.2l0.1,0l0.1,0l0.1,0l0.1,0l0,0l0,0l0,0l0,0.1l0,0.1l0,0.1l0,0.1l0,0.1l0,0.1l0,0.1v1.4
			l0,0.1l0,0.1l0,0.1l0,0.1l0,0.1l0,0.1l0,0.1l0,0l0,0l0,0l-0.1,0l-0.1,0l-0.1,0l-0.1,0l-0.1,0l-0.1,0h-1.3l-0.1,0l-0.1,0l-0.1,0
			l-0.1,0l-0.1,0l-0.1,0l-0.1,0l0,0l0,0l0-0.1l0-0.1l0-0.1l0-0.1l0-0.1l0-0.1l0-0.1v-1.4l0-0.1l0-0.1l0-0.1l0-0.1l0-0.1l0-0.1l0-0.1
			l0,0l0,0l0.1,0l0.1,0l0.1,0l0.1,0l0.1,0l0.1,0l0.1,0L521,120.2L521,120.2z"/>
	</g>
	<g>
		<path class="st0" d="M540,191.9L540,191.9l0.1,0l0.1,0l0.1,0l0.1,0l0,0l0,0l0,0l0,0.1l0,0.1l0,0.1l0,0.1l0,0.1l0,0.1l0,0.1v1.4
			l0,0.1l0,0.1l0,0.1l0,0.1l0,0.1l0,0.1l0,0l0,0l0,0l0,0l-0.1,0l-0.1,0l-0.1,0l-0.1,0l-0.1,0l-0.1,0h-1.3l-0.1,0l-0.1,0l-0.1,0
			l-0.1,0l-0.1,0l-0.1,0l-0.1,0l0,0l0,0l0,0l0-0.1l0-0.1l0-0.1l0-0.1l0-0.1l0-0.1v-1.4l0-0.1l0-0.1l0-0.1l0-0.1l0-0.1l0-0.1l0-0.1
			l0,0l0,0l0.1,0l0.1,0l0.1,0l0.1,0l0.1,0l0.1,0l0.1,0L540,191.9L540,191.9z"/>
		<path class="st0" d="M535.6,191.9L535.6,191.9l0.1,0l0.1,0l0.1,0l0.1,0l0.1,0l0,0l0,0l0,0.1l0,0.1l0,0.1l0,0.1l0,0.1l0,0.1l0,0.1
			v1.4l0,0.1l0,0.1l0,0.1l0,0.1l0,0.1l0,0.1l0,0l0,0l0,0l-0.1,0l-0.1,0l-0.1,0l-0.1,0l-0.1,0l-0.1,0l-0.1,0h-1.3l-0.1,0l-0.1,0
			l-0.1,0l-0.1,0l-0.1,0l-0.1,0l-0.1,0l0,0l0,0l0,0l0-0.1l0-0.1l0-0.1l0-0.1l0-0.1l0-0.1v-1.4l0-0.1l0-0.1l0-0.1l0-0.1l0-0.1l0-0.1
			l0-0.1l0,0l0,0l0.1,0l0.1,0l0.1,0l0.1,0l0.1,0l0.1,0l0.1,0L535.6,191.9L535.6,191.9z"/>
	</g>
	<g>
		<path class="st0" d="M512.1,142.8L512.1,142.8l0.1,0l0.1,0l0.1,0l0.1,0l0.1,0l0,0l0,0l0,0.1l0,0.1l0,0.1l0,0.1l0,0.1l0,0.1l0,0.1
			v1.3l0,0.1l0,0.1l0,0.1l0,0.1l0,0.1l0,0.1l0,0.1l0,0l0,0l-0.1,0l-0.1,0l-0.1,0l-0.1,0l-0.1,0l-0.1,0l-0.1,0h-1.4l-0.1,0l-0.1,0
			l-0.1,0l-0.1,0l-0.1,0l-0.1,0l-0.1,0l0,0l0,0l0-0.1l0-0.1l0-0.1l0-0.1l0-0.1l0-0.1l0-0.1v-1.3l0-0.1l0-0.1l0-0.1l0-0.1l0-0.1
			l0-0.1l0-0.1l0,0l0,0l0.1,0l0.1,0l0.1,0l0.1,0l0.1,0l0.1,0l0.1,0L512.1,142.8L512.1,142.8z"/>
		<path class="st0" d="M512.1,147.2L512.1,147.2l0.1,0l0.1,0l0.1,0l0.1,0l0.1,0l0,0l0,0l0,0.1l0,0.1l0,0.1l0,0.1l0,0.1l0,0.1l0,0.1
			v1.3l0,0.1l0,0.1l0,0.1l0,0.1l0,0.1l0,0.1l0,0l0,0l0,0l-0.1,0l-0.1,0l-0.1,0l-0.1,0l-0.1,0l-0.1,0l-0.1,0h-1.4l-0.1,0l-0.1,0
			l-0.1,0l-0.1,0l-0.1,0l-0.1,0l-0.1,0l0,0l0,0l0,0l0-0.1l0-0.1l0-0.1l0-0.1l0-0.1l0-0.1v-1.3l0-0.1l0-0.1l0-0.1l0-0.1l0-0.1l0-0.1
			l0-0.1l0,0l0,0l0.1,0l0.1,0l0.1,0l0.1,0l0.1,0l0.1,0l0.1,0L512.1,147.2L512.1,147.2z"/>
	</g>
	<g>
		<path class="st0" d="M532.3,147.2L532.3,147.2l0.1,0l0.1,0l0.1,0l0.1,0l0.1,0l0,0l0,0l0,0.1l0,0.1l0,0.1l0,0.1l0,0.1l0,0.1l0,0.1
			v1.3l0,0.1l0,0.1l0,0.1l0,0.1l0,0.1l0,0.1l0,0l0,0l0,0l-0.1,0l-0.1,0l-0.1,0l-0.1,0l-0.1,0l-0.1,0l-0.1,0h-1.4l-0.1,0l-0.1,0
			l-0.1,0l-0.1,0l-0.1,0l-0.1,0l-0.1,0l0,0l0,0l0,0l0-0.1l0-0.1l0-0.1l0-0.1l0-0.1l0-0.1v-1.3l0-0.1l0-0.1l0-0.1l0-0.1l0-0.1l0-0.1
			l0-0.1l0,0l0,0l0.1,0l0.1,0l0.1,0l0.1,0l0.1,0l0.1,0l0.1,0L532.3,147.2L532.3,147.2z"/>
		<path class="st0" d="M532.3,142.8L532.3,142.8l0.1,0l0.1,0l0.1,0l0.1,0l0.1,0l0,0l0,0l0,0.1l0,0.1l0,0.1l0,0.1l0,0.1l0,0.1l0,0.1
			v1.3l0,0.1l0,0.1l0,0.1l0,0.1l0,0.1l0,0.1l0,0.1l0,0l0,0l-0.1,0l-0.1,0l-0.1,0l-0.1,0l-0.1,0l-0.1,0l-0.1,0h-1.4l-0.1,0l-0.1,0
			l-0.1,0l-0.1,0l-0.1,0l-0.1,0l-0.1,0l0,0l0,0l0-0.1l0-0.1l0-0.1l0-0.1l0-0.1l0-0.1l0-0.1v-1.3l0-0.1l0-0.1l0-0.1l0-0.1l0-0.1
			l0-0.1l0-0.1l0,0l0,0l0.1,0l0.1,0l0.1,0l0.1,0l0.1,0l0.1,0l0.1,0L532.3,142.8L532.3,142.8z"/>
	</g>
</g>
<g>
	<path class="st0" d="M528.2,101.2c-2.8,0-5.1,2.3-5.1,5.1"/>
	<path class="st0" d="M555.2,101.2h-27"/>
	<circle class="st0" cx="452.3" cy="155.2" r="4.7"/>
	<path class="st0" d="M445.2,155.2h14.2"/>
	<path class="st0" d="M452.2,148.2v14.2"/>
	<path class="st0" d="M399.9,200.8c0,1.9,1.5,3.4,3.4,3.4c0,0,0,0,0,0"/>
	<path class="st0" d="M405,106.3c-2.8,0-5.1,2.3-5.1,5.1c0,0,0,0,0,0"/>
	<path class="st0" d="M560.3,106.3c0-2.8-2.3-5.1-5.1-5.1c0,0,0,0,0,0"/>
	<path class="st0" d="M555.2,204.2c2.8,0,5.1-2.3,5.1-5.1c0,0,0,0,0,0"/>
	<path class="st0" d="M523.1,106.3H405"/>
	<path class="st0" d="M560.2,199.1v-92.8"/>
	<path class="st0" d="M403.3,204.2h151.9"/>
	<path class="st0" d="M399.9,111.4v89.4"/>
	<circle class="st0" cx="506.3" cy="155.2" r="4.7"/>
	<path class="st0" d="M499.2,155.2h14.2"/>
	<path class="st0" d="M506.2,148.2v14.2"/>
</g>
<g>
	<path class="st0" d="M474.1,191.4h10.2"/>
	<path class="st0" d="M474.1,200.1v-8.8"/>
	<path class="st0" d="M484.4,200.1h-10.2"/>
	<path class="st0" d="M484.4,191.4v8.8"/>
	<path class="st0" d="M420.1,191.4h10.2"/>
	<path class="st0" d="M420.1,200.1v-8.8"/>
	<path class="st0" d="M430.4,200.1h-10.2"/>
	<path class="st0" d="M430.4,191.4v8.8"/>
	<path class="st0" d="M420.1,137.4h10.2"/>
	<path class="st0" d="M420.1,146.1v-8.8"/>
	<path class="st0" d="M430.4,146.1h-10.2"/>
	<path class="st0" d="M430.4,137.4v8.8"/>
	<path class="st0" d="M474.1,137.4h10.2"/>
	<path class="st0" d="M474.1,146.1v-8.8"/>
	<path class="st0" d="M484.4,146.1h-10.2"/>
	<path class="st0" d="M484.4,137.4v8.8"/>
</g>
</svg>
