%TF.GenerationSoftware,KiCad,Pcbnew,(5.1.7)-1*%
%TF.CreationDate,2020-10-17T05:15:24-04:00*%
%TF.ProjectId,OreoOrtho,4f72656f-4f72-4746-986f-2e6b69636164,rev?*%
%TF.SameCoordinates,Original*%
%TF.FileFunction,Copper,L2,Bot*%
%TF.FilePolarity,Positive*%
%FSLAX46Y46*%
G04 Gerber Fmt 4.6, Leading zero omitted, Abs format (unit mm)*
G04 Created by KiCad (PCBNEW (5.1.7)-1) date 2020-10-17 05:15:24*
%MOMM*%
%LPD*%
G01*
G04 APERTURE LIST*
%TA.AperFunction,SMDPad,CuDef*%
%ADD10R,0.600000X1.450000*%
%TD*%
%TA.AperFunction,SMDPad,CuDef*%
%ADD11R,0.300000X1.450000*%
%TD*%
%TA.AperFunction,ComponentPad*%
%ADD12O,1.000000X2.100000*%
%TD*%
%TA.AperFunction,ComponentPad*%
%ADD13O,1.000000X1.600000*%
%TD*%
%TA.AperFunction,SMDPad,CuDef*%
%ADD14R,1.700000X1.000000*%
%TD*%
%TA.AperFunction,SMDPad,CuDef*%
%ADD15R,1.000000X1.400000*%
%TD*%
%TA.AperFunction,ComponentPad*%
%ADD16O,2.500000X2.000000*%
%TD*%
%TA.AperFunction,SMDPad,CuDef*%
%ADD17R,1.800000X2.100000*%
%TD*%
%TA.AperFunction,SMDPad,CuDef*%
%ADD18R,0.550000X1.600000*%
%TD*%
%TA.AperFunction,SMDPad,CuDef*%
%ADD19R,1.600000X0.550000*%
%TD*%
%TA.AperFunction,SMDPad,CuDef*%
%ADD20R,1.800000X1.100000*%
%TD*%
%TA.AperFunction,SMDPad,CuDef*%
%ADD21R,1.400000X1.000000*%
%TD*%
%TA.AperFunction,SMDPad,CuDef*%
%ADD22R,1.400000X1.200000*%
%TD*%
%TA.AperFunction,ViaPad*%
%ADD23C,0.450000*%
%TD*%
%TA.AperFunction,Conductor*%
%ADD24C,0.254000*%
%TD*%
%TA.AperFunction,Conductor*%
%ADD25C,0.500000*%
%TD*%
G04 APERTURE END LIST*
D10*
%TO.P,USB1,12*%
%TO.N,GND*%
X146100000Y-52938800D03*
%TO.P,USB1,1*%
X139650000Y-52938800D03*
%TO.P,USB1,11*%
%TO.N,VCC*%
X145325000Y-52938800D03*
%TO.P,USB1,2*%
X140425000Y-52938800D03*
D11*
%TO.P,USB1,3*%
%TO.N,N/C*%
X141125000Y-52938800D03*
%TO.P,USB1,10*%
%TO.N,Net-(R6-Pad1)*%
X144625000Y-52938800D03*
%TO.P,USB1,4*%
%TO.N,Net-(R3-Pad1)*%
X141625000Y-52938800D03*
%TO.P,USB1,9*%
%TO.N,N/C*%
X144125000Y-52938800D03*
%TO.P,USB1,5*%
%TO.N,Net-(R5-Pad2)*%
X142125000Y-52938800D03*
%TO.P,USB1,8*%
%TO.N,Net-(R4-Pad1)*%
X143625000Y-52938800D03*
%TO.P,USB1,7*%
%TO.N,Net-(R5-Pad2)*%
X143125000Y-52938800D03*
%TO.P,USB1,6*%
%TO.N,Net-(R4-Pad1)*%
X142625000Y-52938800D03*
D12*
%TO.P,USB1,13*%
%TO.N,GND*%
X138555000Y-52023800D03*
X147195000Y-52023800D03*
D13*
X138555000Y-47843800D03*
X147195000Y-47843800D03*
%TD*%
D14*
%TO.P,LED2,2*%
%TO.N,Net-(LED2-Pad2)*%
X130600000Y-62612500D03*
%TO.P,LED2,1*%
%TO.N,+5V*%
X130600000Y-61212500D03*
%TO.P,LED2,3*%
%TO.N,GND*%
X136100000Y-62612500D03*
%TO.P,LED2,4*%
%TO.N,Net-(LED1-Pad2)*%
X136100000Y-61212500D03*
%TD*%
D15*
%TO.P,D1,2*%
%TO.N,Net-(D1-Pad2)*%
X122634000Y-60137400D03*
%TO.P,D1,1*%
%TO.N,Row0*%
X122634000Y-63687400D03*
%TD*%
%TO.P,D6,2*%
%TO.N,Net-(D6-Pad2)*%
X159544000Y-69662500D03*
%TO.P,D6,1*%
%TO.N,Row1*%
X159544000Y-73212500D03*
%TD*%
%TO.P,D5,2*%
%TO.N,Net-(D5-Pad2)*%
X125016000Y-69662400D03*
%TO.P,D5,1*%
%TO.N,Row1*%
X125016000Y-73212400D03*
%TD*%
%TO.P,D4,2*%
%TO.N,Net-(D4-Pad2)*%
X122634000Y-69662500D03*
%TO.P,D4,1*%
%TO.N,Row1*%
X122634000Y-73212500D03*
%TD*%
%TO.P,D3,2*%
%TO.N,Net-(D3-Pad2)*%
X159544000Y-60137500D03*
%TO.P,D3,1*%
%TO.N,Row0*%
X159544000Y-63687500D03*
%TD*%
%TO.P,D2,2*%
%TO.N,Net-(D2-Pad2)*%
X125016000Y-60137400D03*
%TO.P,D2,1*%
%TO.N,Row0*%
X125016000Y-63687400D03*
%TD*%
D16*
%TO.P,SW6,2*%
%TO.N,Net-(D6-Pad2)*%
X154940000Y-71120000D03*
%TO.P,SW6,1*%
%TO.N,Col2*%
X148590000Y-73660000D03*
%TD*%
%TO.P,SW5,2*%
%TO.N,Net-(D5-Pad2)*%
X135890000Y-71120000D03*
%TO.P,SW5,1*%
%TO.N,Col1*%
X129540000Y-73660000D03*
%TD*%
%TO.P,SW4,2*%
%TO.N,Net-(D4-Pad2)*%
X116840000Y-71120000D03*
%TO.P,SW4,1*%
%TO.N,Col0*%
X110490000Y-73660000D03*
%TD*%
%TO.P,SW3,2*%
%TO.N,Net-(D3-Pad2)*%
X154940000Y-52070000D03*
%TO.P,SW3,1*%
%TO.N,Col2*%
X148590000Y-54610000D03*
%TD*%
%TO.P,SW2,2*%
%TO.N,Net-(D2-Pad2)*%
X135890000Y-52070000D03*
%TO.P,SW2,1*%
%TO.N,Col1*%
X129540000Y-54610000D03*
%TD*%
%TO.P,SW1,2*%
%TO.N,Net-(D1-Pad2)*%
X116840000Y-52070000D03*
%TO.P,SW1,1*%
%TO.N,Col0*%
X110490000Y-54610000D03*
%TD*%
D17*
%TO.P,Y1,4*%
%TO.N,GND*%
X150059000Y-65820300D03*
%TO.P,Y1,3*%
%TO.N,Net-(C2-Pad2)*%
X150059000Y-68720300D03*
%TO.P,Y1,2*%
%TO.N,GND*%
X152359000Y-68720300D03*
%TO.P,Y1,1*%
%TO.N,Net-(C1-Pad2)*%
X152359000Y-65820300D03*
%TD*%
D18*
%TO.P,U1,32*%
%TO.N,+5V*%
X145675000Y-63615600D03*
%TO.P,U1,31*%
X144875000Y-63615600D03*
%TO.P,U1,30*%
%TO.N,D-*%
X144075000Y-63615600D03*
%TO.P,U1,29*%
%TO.N,D+*%
X143275000Y-63615600D03*
%TO.P,U1,28*%
%TO.N,GND*%
X142475000Y-63615600D03*
%TO.P,U1,27*%
%TO.N,Net-(C3-Pad2)*%
X141675000Y-63615600D03*
%TO.P,U1,26*%
%TO.N,Row1*%
X140875000Y-63615600D03*
%TO.P,U1,25*%
%TO.N,N/C*%
X140075000Y-63615600D03*
D19*
%TO.P,U1,24*%
%TO.N,Net-(R1-Pad1)*%
X138625000Y-65065600D03*
%TO.P,U1,23*%
%TO.N,N/C*%
X138625000Y-65865600D03*
%TO.P,U1,22*%
X138625000Y-66665600D03*
%TO.P,U1,21*%
%TO.N,Col0*%
X138625000Y-67465600D03*
%TO.P,U1,20*%
%TO.N,Col1*%
X138625000Y-68265600D03*
%TO.P,U1,19*%
%TO.N,Col2*%
X138625000Y-69065600D03*
%TO.P,U1,18*%
%TO.N,LED*%
X138625000Y-69865600D03*
%TO.P,U1,17*%
%TO.N,N/C*%
X138625000Y-70665600D03*
D18*
%TO.P,U1,16*%
X140075000Y-72115600D03*
%TO.P,U1,15*%
X140875000Y-72115600D03*
%TO.P,U1,14*%
X141675000Y-72115600D03*
%TO.P,U1,13*%
%TO.N,Net-(R2-Pad2)*%
X142475000Y-72115600D03*
%TO.P,U1,12*%
%TO.N,N/C*%
X143275000Y-72115600D03*
%TO.P,U1,11*%
X144075000Y-72115600D03*
%TO.P,U1,10*%
X144875000Y-72115600D03*
%TO.P,U1,9*%
X145675000Y-72115600D03*
D19*
%TO.P,U1,8*%
X147125000Y-70665600D03*
%TO.P,U1,7*%
X147125000Y-69865600D03*
%TO.P,U1,6*%
X147125000Y-69065600D03*
%TO.P,U1,5*%
%TO.N,Row0*%
X147125000Y-68265600D03*
%TO.P,U1,4*%
%TO.N,+5V*%
X147125000Y-67465600D03*
%TO.P,U1,3*%
%TO.N,GND*%
X147125000Y-66665600D03*
%TO.P,U1,2*%
%TO.N,Net-(C2-Pad2)*%
X147125000Y-65865600D03*
%TO.P,U1,1*%
%TO.N,Net-(C1-Pad2)*%
X147125000Y-65065600D03*
%TD*%
D20*
%TO.P,RST_SW1,4*%
%TO.N,N/C*%
X145975000Y-82812400D03*
%TO.P,RST_SW1,3*%
X139775000Y-79112400D03*
%TO.P,RST_SW1,2*%
%TO.N,Net-(R1-Pad1)*%
X145975000Y-79112400D03*
%TO.P,RST_SW1,1*%
%TO.N,GND*%
X139775000Y-82812400D03*
%TD*%
%TO.P,R6,2*%
%TO.N,GND*%
%TA.AperFunction,SMDPad,CuDef*%
G36*
G01*
X150419000Y-49860901D02*
X150419000Y-48960899D01*
G75*
G02*
X150668999Y-48710900I249999J0D01*
G01*
X151194001Y-48710900D01*
G75*
G02*
X151444000Y-48960899I0J-249999D01*
G01*
X151444000Y-49860901D01*
G75*
G02*
X151194001Y-50110900I-249999J0D01*
G01*
X150668999Y-50110900D01*
G75*
G02*
X150419000Y-49860901I0J249999D01*
G01*
G37*
%TD.AperFunction*%
%TO.P,R6,1*%
%TO.N,Net-(R6-Pad1)*%
%TA.AperFunction,SMDPad,CuDef*%
G36*
G01*
X148594000Y-49860901D02*
X148594000Y-48960899D01*
G75*
G02*
X148843999Y-48710900I249999J0D01*
G01*
X149369001Y-48710900D01*
G75*
G02*
X149619000Y-48960899I0J-249999D01*
G01*
X149619000Y-49860901D01*
G75*
G02*
X149369001Y-50110900I-249999J0D01*
G01*
X148843999Y-50110900D01*
G75*
G02*
X148594000Y-49860901I0J249999D01*
G01*
G37*
%TD.AperFunction*%
%TD*%
%TO.P,R5,2*%
%TO.N,Net-(R5-Pad2)*%
%TA.AperFunction,SMDPad,CuDef*%
G36*
G01*
X145111001Y-60321900D02*
X144210999Y-60321900D01*
G75*
G02*
X143961000Y-60071901I0J249999D01*
G01*
X143961000Y-59546899D01*
G75*
G02*
X144210999Y-59296900I249999J0D01*
G01*
X145111001Y-59296900D01*
G75*
G02*
X145361000Y-59546899I0J-249999D01*
G01*
X145361000Y-60071901D01*
G75*
G02*
X145111001Y-60321900I-249999J0D01*
G01*
G37*
%TD.AperFunction*%
%TO.P,R5,1*%
%TO.N,D-*%
%TA.AperFunction,SMDPad,CuDef*%
G36*
G01*
X145111001Y-62146900D02*
X144210999Y-62146900D01*
G75*
G02*
X143961000Y-61896901I0J249999D01*
G01*
X143961000Y-61371899D01*
G75*
G02*
X144210999Y-61121900I249999J0D01*
G01*
X145111001Y-61121900D01*
G75*
G02*
X145361000Y-61371899I0J-249999D01*
G01*
X145361000Y-61896901D01*
G75*
G02*
X145111001Y-62146900I-249999J0D01*
G01*
G37*
%TD.AperFunction*%
%TD*%
%TO.P,R4,2*%
%TO.N,D+*%
%TA.AperFunction,SMDPad,CuDef*%
G36*
G01*
X140638999Y-61121900D02*
X141539001Y-61121900D01*
G75*
G02*
X141789000Y-61371899I0J-249999D01*
G01*
X141789000Y-61896901D01*
G75*
G02*
X141539001Y-62146900I-249999J0D01*
G01*
X140638999Y-62146900D01*
G75*
G02*
X140389000Y-61896901I0J249999D01*
G01*
X140389000Y-61371899D01*
G75*
G02*
X140638999Y-61121900I249999J0D01*
G01*
G37*
%TD.AperFunction*%
%TO.P,R4,1*%
%TO.N,Net-(R4-Pad1)*%
%TA.AperFunction,SMDPad,CuDef*%
G36*
G01*
X140638999Y-59296900D02*
X141539001Y-59296900D01*
G75*
G02*
X141789000Y-59546899I0J-249999D01*
G01*
X141789000Y-60071901D01*
G75*
G02*
X141539001Y-60321900I-249999J0D01*
G01*
X140638999Y-60321900D01*
G75*
G02*
X140389000Y-60071901I0J249999D01*
G01*
X140389000Y-59546899D01*
G75*
G02*
X140638999Y-59296900I249999J0D01*
G01*
G37*
%TD.AperFunction*%
%TD*%
%TO.P,R3,2*%
%TO.N,GND*%
%TA.AperFunction,SMDPad,CuDef*%
G36*
G01*
X135331000Y-48960899D02*
X135331000Y-49860901D01*
G75*
G02*
X135081001Y-50110900I-249999J0D01*
G01*
X134555999Y-50110900D01*
G75*
G02*
X134306000Y-49860901I0J249999D01*
G01*
X134306000Y-48960899D01*
G75*
G02*
X134555999Y-48710900I249999J0D01*
G01*
X135081001Y-48710900D01*
G75*
G02*
X135331000Y-48960899I0J-249999D01*
G01*
G37*
%TD.AperFunction*%
%TO.P,R3,1*%
%TO.N,Net-(R3-Pad1)*%
%TA.AperFunction,SMDPad,CuDef*%
G36*
G01*
X137156000Y-48960899D02*
X137156000Y-49860901D01*
G75*
G02*
X136906001Y-50110900I-249999J0D01*
G01*
X136380999Y-50110900D01*
G75*
G02*
X136131000Y-49860901I0J249999D01*
G01*
X136131000Y-48960899D01*
G75*
G02*
X136380999Y-48710900I249999J0D01*
G01*
X136906001Y-48710900D01*
G75*
G02*
X137156000Y-48960899I0J-249999D01*
G01*
G37*
%TD.AperFunction*%
%TD*%
%TO.P,R2,2*%
%TO.N,Net-(R2-Pad2)*%
%TA.AperFunction,SMDPad,CuDef*%
G36*
G01*
X141233999Y-76004600D02*
X142134001Y-76004600D01*
G75*
G02*
X142384000Y-76254599I0J-249999D01*
G01*
X142384000Y-76779601D01*
G75*
G02*
X142134001Y-77029600I-249999J0D01*
G01*
X141233999Y-77029600D01*
G75*
G02*
X140984000Y-76779601I0J249999D01*
G01*
X140984000Y-76254599D01*
G75*
G02*
X141233999Y-76004600I249999J0D01*
G01*
G37*
%TD.AperFunction*%
%TO.P,R2,1*%
%TO.N,GND*%
%TA.AperFunction,SMDPad,CuDef*%
G36*
G01*
X141233999Y-74179600D02*
X142134001Y-74179600D01*
G75*
G02*
X142384000Y-74429599I0J-249999D01*
G01*
X142384000Y-74954601D01*
G75*
G02*
X142134001Y-75204600I-249999J0D01*
G01*
X141233999Y-75204600D01*
G75*
G02*
X140984000Y-74954601I0J249999D01*
G01*
X140984000Y-74429599D01*
G75*
G02*
X141233999Y-74179600I249999J0D01*
G01*
G37*
%TD.AperFunction*%
%TD*%
%TO.P,R1,2*%
%TO.N,+5V*%
%TA.AperFunction,SMDPad,CuDef*%
G36*
G01*
X144516001Y-75204600D02*
X143615999Y-75204600D01*
G75*
G02*
X143366000Y-74954601I0J249999D01*
G01*
X143366000Y-74429599D01*
G75*
G02*
X143615999Y-74179600I249999J0D01*
G01*
X144516001Y-74179600D01*
G75*
G02*
X144766000Y-74429599I0J-249999D01*
G01*
X144766000Y-74954601D01*
G75*
G02*
X144516001Y-75204600I-249999J0D01*
G01*
G37*
%TD.AperFunction*%
%TO.P,R1,1*%
%TO.N,Net-(R1-Pad1)*%
%TA.AperFunction,SMDPad,CuDef*%
G36*
G01*
X144516001Y-77029600D02*
X143615999Y-77029600D01*
G75*
G02*
X143366000Y-76779601I0J249999D01*
G01*
X143366000Y-76254599D01*
G75*
G02*
X143615999Y-76004600I249999J0D01*
G01*
X144516001Y-76004600D01*
G75*
G02*
X144766000Y-76254599I0J-249999D01*
G01*
X144766000Y-76779601D01*
G75*
G02*
X144516001Y-77029600I-249999J0D01*
G01*
G37*
%TD.AperFunction*%
%TD*%
D14*
%TO.P,LED6,2*%
%TO.N,N/C*%
X111550000Y-81662500D03*
%TO.P,LED6,1*%
%TO.N,+5V*%
X111550000Y-80262500D03*
%TO.P,LED6,3*%
%TO.N,GND*%
X117050000Y-81662500D03*
%TO.P,LED6,4*%
%TO.N,Net-(LED5-Pad2)*%
X117050000Y-80262500D03*
%TD*%
%TO.P,LED5,2*%
%TO.N,Net-(LED5-Pad2)*%
X130600000Y-81662500D03*
%TO.P,LED5,1*%
%TO.N,+5V*%
X130600000Y-80262500D03*
%TO.P,LED5,3*%
%TO.N,GND*%
X136100000Y-81662500D03*
%TO.P,LED5,4*%
%TO.N,Net-(LED4-Pad2)*%
X136100000Y-80262500D03*
%TD*%
%TO.P,LED4,2*%
%TO.N,Net-(LED4-Pad2)*%
X149650000Y-81662500D03*
%TO.P,LED4,1*%
%TO.N,+5V*%
X149650000Y-80262500D03*
%TO.P,LED4,3*%
%TO.N,GND*%
X155150000Y-81662500D03*
%TO.P,LED4,4*%
%TO.N,Net-(LED3-Pad2)*%
X155150000Y-80262500D03*
%TD*%
%TO.P,LED3,2*%
%TO.N,Net-(LED3-Pad2)*%
X149650000Y-62612500D03*
%TO.P,LED3,1*%
%TO.N,+5V*%
X149650000Y-61212500D03*
%TO.P,LED3,3*%
%TO.N,GND*%
X155150000Y-62612500D03*
%TO.P,LED3,4*%
%TO.N,Net-(LED2-Pad2)*%
X155150000Y-61212500D03*
%TD*%
%TO.P,LED1,2*%
%TO.N,Net-(LED1-Pad2)*%
X111550000Y-62612500D03*
%TO.P,LED1,1*%
%TO.N,+5V*%
X111550000Y-61212500D03*
%TO.P,LED1,3*%
%TO.N,GND*%
X117050000Y-62612500D03*
%TO.P,LED1,4*%
%TO.N,LED*%
X117050000Y-61212500D03*
%TD*%
%TO.P,F1,2*%
%TO.N,VCC*%
%TA.AperFunction,SMDPad,CuDef*%
G36*
G01*
X135166000Y-65304600D02*
X133916000Y-65304600D01*
G75*
G02*
X133666000Y-65054600I0J250000D01*
G01*
X133666000Y-64304600D01*
G75*
G02*
X133916000Y-64054600I250000J0D01*
G01*
X135166000Y-64054600D01*
G75*
G02*
X135416000Y-64304600I0J-250000D01*
G01*
X135416000Y-65054600D01*
G75*
G02*
X135166000Y-65304600I-250000J0D01*
G01*
G37*
%TD.AperFunction*%
%TO.P,F1,1*%
%TO.N,+5V*%
%TA.AperFunction,SMDPad,CuDef*%
G36*
G01*
X135166000Y-68104600D02*
X133916000Y-68104600D01*
G75*
G02*
X133666000Y-67854600I0J250000D01*
G01*
X133666000Y-67104600D01*
G75*
G02*
X133916000Y-66854600I250000J0D01*
G01*
X135166000Y-66854600D01*
G75*
G02*
X135416000Y-67104600I0J-250000D01*
G01*
X135416000Y-67854600D01*
G75*
G02*
X135166000Y-68104600I-250000J0D01*
G01*
G37*
%TD.AperFunction*%
%TD*%
D21*
%TO.P,U2,4*%
%TO.N,VCC*%
X141180000Y-55604600D03*
%TO.P,U2,3*%
%TO.N,Net-(R4-Pad1)*%
X141180000Y-57504600D03*
%TO.P,U2,2*%
%TO.N,Net-(R5-Pad2)*%
X143380000Y-57504600D03*
D22*
%TO.P,U2,1*%
%TO.N,GND*%
X143380000Y-55784600D03*
%TD*%
%TO.P,C6,2*%
%TO.N,+5V*%
%TA.AperFunction,SMDPad,CuDef*%
G36*
G01*
X149694000Y-71187400D02*
X149694000Y-71687400D01*
G75*
G02*
X149469000Y-71912400I-225000J0D01*
G01*
X149019000Y-71912400D01*
G75*
G02*
X148794000Y-71687400I0J225000D01*
G01*
X148794000Y-71187400D01*
G75*
G02*
X149019000Y-70962400I225000J0D01*
G01*
X149469000Y-70962400D01*
G75*
G02*
X149694000Y-71187400I0J-225000D01*
G01*
G37*
%TD.AperFunction*%
%TO.P,C6,1*%
%TO.N,GND*%
%TA.AperFunction,SMDPad,CuDef*%
G36*
G01*
X151244000Y-71187400D02*
X151244000Y-71687400D01*
G75*
G02*
X151019000Y-71912400I-225000J0D01*
G01*
X150569000Y-71912400D01*
G75*
G02*
X150344000Y-71687400I0J225000D01*
G01*
X150344000Y-71187400D01*
G75*
G02*
X150569000Y-70962400I225000J0D01*
G01*
X151019000Y-70962400D01*
G75*
G02*
X151244000Y-71187400I0J-225000D01*
G01*
G37*
%TD.AperFunction*%
%TD*%
%TO.P,C5,2*%
%TO.N,+5V*%
%TA.AperFunction,SMDPad,CuDef*%
G36*
G01*
X146792000Y-61046900D02*
X147292000Y-61046900D01*
G75*
G02*
X147517000Y-61271900I0J-225000D01*
G01*
X147517000Y-61721900D01*
G75*
G02*
X147292000Y-61946900I-225000J0D01*
G01*
X146792000Y-61946900D01*
G75*
G02*
X146567000Y-61721900I0J225000D01*
G01*
X146567000Y-61271900D01*
G75*
G02*
X146792000Y-61046900I225000J0D01*
G01*
G37*
%TD.AperFunction*%
%TO.P,C5,1*%
%TO.N,GND*%
%TA.AperFunction,SMDPad,CuDef*%
G36*
G01*
X146792000Y-59496900D02*
X147292000Y-59496900D01*
G75*
G02*
X147517000Y-59721900I0J-225000D01*
G01*
X147517000Y-60171900D01*
G75*
G02*
X147292000Y-60396900I-225000J0D01*
G01*
X146792000Y-60396900D01*
G75*
G02*
X146567000Y-60171900I0J225000D01*
G01*
X146567000Y-59721900D01*
G75*
G02*
X146792000Y-59496900I225000J0D01*
G01*
G37*
%TD.AperFunction*%
%TD*%
%TO.P,C4,2*%
%TO.N,+5V*%
%TA.AperFunction,SMDPad,CuDef*%
G36*
G01*
X145006000Y-57475000D02*
X145506000Y-57475000D01*
G75*
G02*
X145731000Y-57700000I0J-225000D01*
G01*
X145731000Y-58150000D01*
G75*
G02*
X145506000Y-58375000I-225000J0D01*
G01*
X145006000Y-58375000D01*
G75*
G02*
X144781000Y-58150000I0J225000D01*
G01*
X144781000Y-57700000D01*
G75*
G02*
X145006000Y-57475000I225000J0D01*
G01*
G37*
%TD.AperFunction*%
%TO.P,C4,1*%
%TO.N,GND*%
%TA.AperFunction,SMDPad,CuDef*%
G36*
G01*
X145006000Y-55925000D02*
X145506000Y-55925000D01*
G75*
G02*
X145731000Y-56150000I0J-225000D01*
G01*
X145731000Y-56600000D01*
G75*
G02*
X145506000Y-56825000I-225000J0D01*
G01*
X145006000Y-56825000D01*
G75*
G02*
X144781000Y-56600000I0J225000D01*
G01*
X144781000Y-56150000D01*
G75*
G02*
X145006000Y-55925000I225000J0D01*
G01*
G37*
%TD.AperFunction*%
%TD*%
%TO.P,C3,2*%
%TO.N,Net-(C3-Pad2)*%
%TA.AperFunction,SMDPad,CuDef*%
G36*
G01*
X138458000Y-61046900D02*
X138958000Y-61046900D01*
G75*
G02*
X139183000Y-61271900I0J-225000D01*
G01*
X139183000Y-61721900D01*
G75*
G02*
X138958000Y-61946900I-225000J0D01*
G01*
X138458000Y-61946900D01*
G75*
G02*
X138233000Y-61721900I0J225000D01*
G01*
X138233000Y-61271900D01*
G75*
G02*
X138458000Y-61046900I225000J0D01*
G01*
G37*
%TD.AperFunction*%
%TO.P,C3,1*%
%TO.N,GND*%
%TA.AperFunction,SMDPad,CuDef*%
G36*
G01*
X138458000Y-59496900D02*
X138958000Y-59496900D01*
G75*
G02*
X139183000Y-59721900I0J-225000D01*
G01*
X139183000Y-60171900D01*
G75*
G02*
X138958000Y-60396900I-225000J0D01*
G01*
X138458000Y-60396900D01*
G75*
G02*
X138233000Y-60171900I0J225000D01*
G01*
X138233000Y-59721900D01*
G75*
G02*
X138458000Y-59496900I225000J0D01*
G01*
G37*
%TD.AperFunction*%
%TD*%
%TO.P,C2,2*%
%TO.N,Net-(C2-Pad2)*%
%TA.AperFunction,SMDPad,CuDef*%
G36*
G01*
X155051000Y-67615600D02*
X155051000Y-68115600D01*
G75*
G02*
X154826000Y-68340600I-225000J0D01*
G01*
X154376000Y-68340600D01*
G75*
G02*
X154151000Y-68115600I0J225000D01*
G01*
X154151000Y-67615600D01*
G75*
G02*
X154376000Y-67390600I225000J0D01*
G01*
X154826000Y-67390600D01*
G75*
G02*
X155051000Y-67615600I0J-225000D01*
G01*
G37*
%TD.AperFunction*%
%TO.P,C2,1*%
%TO.N,GND*%
%TA.AperFunction,SMDPad,CuDef*%
G36*
G01*
X156601000Y-67615600D02*
X156601000Y-68115600D01*
G75*
G02*
X156376000Y-68340600I-225000J0D01*
G01*
X155926000Y-68340600D01*
G75*
G02*
X155701000Y-68115600I0J225000D01*
G01*
X155701000Y-67615600D01*
G75*
G02*
X155926000Y-67390600I225000J0D01*
G01*
X156376000Y-67390600D01*
G75*
G02*
X156601000Y-67615600I0J-225000D01*
G01*
G37*
%TD.AperFunction*%
%TD*%
%TO.P,C1,2*%
%TO.N,Net-(C1-Pad2)*%
%TA.AperFunction,SMDPad,CuDef*%
G36*
G01*
X155051000Y-65234300D02*
X155051000Y-65734300D01*
G75*
G02*
X154826000Y-65959300I-225000J0D01*
G01*
X154376000Y-65959300D01*
G75*
G02*
X154151000Y-65734300I0J225000D01*
G01*
X154151000Y-65234300D01*
G75*
G02*
X154376000Y-65009300I225000J0D01*
G01*
X154826000Y-65009300D01*
G75*
G02*
X155051000Y-65234300I0J-225000D01*
G01*
G37*
%TD.AperFunction*%
%TO.P,C1,1*%
%TO.N,GND*%
%TA.AperFunction,SMDPad,CuDef*%
G36*
G01*
X156601000Y-65234300D02*
X156601000Y-65734300D01*
G75*
G02*
X156376000Y-65959300I-225000J0D01*
G01*
X155926000Y-65959300D01*
G75*
G02*
X155701000Y-65734300I0J225000D01*
G01*
X155701000Y-65234300D01*
G75*
G02*
X155926000Y-65009300I225000J0D01*
G01*
X156376000Y-65009300D01*
G75*
G02*
X156601000Y-65234300I0J-225000D01*
G01*
G37*
%TD.AperFunction*%
%TD*%
D23*
%TO.N,GND*%
X118468100Y-62840000D03*
X138435900Y-59140600D03*
X149097300Y-59550900D03*
X154605500Y-73581800D03*
X152742700Y-73015100D03*
X142713300Y-58750800D03*
X147922600Y-60104600D03*
X138555000Y-49918200D03*
X147778700Y-50075700D03*
X118284200Y-82896700D03*
X136659100Y-82896700D03*
X143276500Y-81155200D03*
X154804200Y-82896700D03*
X141787000Y-82896700D03*
X156151000Y-66734300D03*
X148778700Y-65820300D03*
X151140200Y-70126900D03*
X149893900Y-48081000D03*
X135944500Y-48081000D03*
%TO.N,+5V*%
X143279800Y-73758000D03*
X133907200Y-73758000D03*
%TO.N,Row0*%
X157108100Y-67555400D03*
X144744800Y-67637800D03*
X127896700Y-65422700D03*
X141474100Y-65247300D03*
%TO.N,Net-(D5-Pad2)*%
X127716100Y-71054700D03*
%TO.N,Row1*%
X140886800Y-69186100D03*
X153788000Y-73620400D03*
X126169100Y-70185900D03*
%TO.N,LED*%
X137460900Y-69217400D03*
X119625000Y-63279400D03*
%TO.N,Net-(R1-Pad1)*%
X142748800Y-74772300D03*
X135727100Y-74431500D03*
%TO.N,Col0*%
X140904100Y-67009400D03*
%TO.N,Col1*%
X128760300Y-60562800D03*
X133990800Y-71958400D03*
%TO.N,Col2*%
X139883900Y-70891300D03*
%TO.N,Net-(R4-Pad1)*%
X143787800Y-51834000D03*
X141243500Y-56468400D03*
%TO.N,Net-(R5-Pad2)*%
X144591000Y-54277000D03*
X146467600Y-54541300D03*
%TO.N,Net-(LED2-Pad2)*%
X131991800Y-64367600D03*
X147875000Y-61072900D03*
%TD*%
D24*
%TO.N,Net-(C1-Pad2)*%
X152359000Y-65820300D02*
X152359000Y-64513000D01*
X147125000Y-65065600D02*
X148182300Y-65065600D01*
X148182300Y-65065600D02*
X148734900Y-64513000D01*
X148734900Y-64513000D02*
X152359000Y-64513000D01*
X152359000Y-65820300D02*
X153516300Y-65820300D01*
X154601000Y-65484300D02*
X153852300Y-65484300D01*
X153852300Y-65484300D02*
X153516300Y-65820300D01*
D25*
%TO.N,GND*%
X138435900Y-59140600D02*
X138435900Y-59674800D01*
X138435900Y-59674800D02*
X138708000Y-59946900D01*
X138555000Y-52023800D02*
X137089400Y-53489400D01*
X137089400Y-53489400D02*
X137089400Y-57794100D01*
X137089400Y-57794100D02*
X138435900Y-59140600D01*
X117050000Y-62612500D02*
X117277500Y-62840000D01*
X117277500Y-62840000D02*
X118468100Y-62840000D01*
X147922600Y-60104600D02*
X148476300Y-59550900D01*
X148476300Y-59550900D02*
X149097300Y-59550900D01*
X156380300Y-81662500D02*
X156380300Y-77530300D01*
X156380300Y-77530300D02*
X156065100Y-77215100D01*
X156065100Y-77215100D02*
X156065100Y-75041400D01*
X156065100Y-75041400D02*
X154605500Y-73581800D01*
X152359000Y-70150600D02*
X152359000Y-72631400D01*
X152359000Y-72631400D02*
X152742700Y-73015100D01*
X155150000Y-81662500D02*
X156380300Y-81662500D01*
X145643900Y-66507800D02*
X145801700Y-66665600D01*
X145801700Y-66665600D02*
X147125000Y-66665600D01*
X152359000Y-70150600D02*
X152080900Y-70150600D01*
X152080900Y-70150600D02*
X151622400Y-70609100D01*
X151622400Y-70609100D02*
X151622400Y-70609000D01*
X146100000Y-53454100D02*
X146100000Y-54052900D01*
X146100000Y-54052900D02*
X145862300Y-54290600D01*
X145862300Y-54290600D02*
X145862300Y-55768700D01*
X145862300Y-55768700D02*
X145256000Y-56375000D01*
X143380000Y-55784600D02*
X142299700Y-55784600D01*
X142299700Y-55784600D02*
X142299700Y-58337200D01*
X142299700Y-58337200D02*
X142713300Y-58750800D01*
X145256000Y-56375000D02*
X144665600Y-55784600D01*
X144665600Y-55784600D02*
X143380000Y-55784600D01*
X147042000Y-59946900D02*
X147764900Y-59946900D01*
X147764900Y-59946900D02*
X147922600Y-60104600D01*
X137330300Y-62612500D02*
X137330300Y-61324600D01*
X137330300Y-61324600D02*
X138708000Y-59946900D01*
X138555000Y-49918200D02*
X138555000Y-52023800D01*
X139650000Y-52938800D02*
X139470000Y-52938800D01*
X139470000Y-52938800D02*
X138555000Y-52023800D01*
X146100000Y-53454100D02*
X146100000Y-52938800D01*
X146100000Y-53454100D02*
X147195000Y-53454100D01*
X147195000Y-52023800D02*
X147195000Y-53454100D01*
X147195000Y-52023800D02*
X147195000Y-50593500D01*
X147195000Y-50593500D02*
X147260900Y-50593500D01*
X147260900Y-50593500D02*
X147778700Y-50075700D01*
X137330300Y-82812400D02*
X138494700Y-82812400D01*
X136659100Y-82896700D02*
X136743400Y-82812400D01*
X136743400Y-82812400D02*
X137330300Y-82812400D01*
X137330300Y-81662500D02*
X137330300Y-82812400D01*
X136100000Y-81662500D02*
X137330300Y-81662500D01*
X117050000Y-81662500D02*
X118280300Y-81662500D01*
X118280300Y-81662500D02*
X118280300Y-82892800D01*
X118280300Y-82892800D02*
X118284200Y-82896700D01*
X141684000Y-74692100D02*
X142912200Y-75920300D01*
X142912200Y-75920300D02*
X142912200Y-80790900D01*
X142912200Y-80790900D02*
X143276500Y-81155200D01*
X139775000Y-82812400D02*
X141702700Y-82812400D01*
X141702700Y-82812400D02*
X141787000Y-82896700D01*
X154804200Y-82896700D02*
X155150000Y-82550900D01*
X155150000Y-82550900D02*
X155150000Y-81662500D01*
X139134900Y-82812400D02*
X139775000Y-82812400D01*
X139134900Y-82812400D02*
X138494700Y-82812400D01*
X156151000Y-66734300D02*
X156151000Y-65484300D01*
X156151000Y-67865600D02*
X156151000Y-66734300D01*
X150059000Y-65820300D02*
X148778700Y-65820300D01*
X151622400Y-70609000D02*
X151140200Y-70126900D01*
X151622400Y-70609000D02*
X150794000Y-71437400D01*
X142475000Y-66314500D02*
X142475000Y-63615600D01*
X149893900Y-48081000D02*
X150931500Y-49118600D01*
X150931500Y-49118600D02*
X150931500Y-49410900D01*
X135944500Y-48081000D02*
X134818500Y-49207000D01*
X134818500Y-49207000D02*
X134818500Y-49410900D01*
X152359000Y-68720300D02*
X152359000Y-70150600D01*
X136100000Y-62612500D02*
X137330300Y-62612500D01*
X155150000Y-62612500D02*
X156380300Y-62612500D01*
X156380300Y-62612500D02*
X156380300Y-65255000D01*
X156380300Y-65255000D02*
X156151000Y-65484300D01*
D24*
%TO.N,Net-(C2-Pad2)*%
X147125000Y-65865600D02*
X148182300Y-65865600D01*
X148182300Y-65865600D02*
X148182300Y-66367400D01*
X148182300Y-66367400D02*
X149227900Y-67413000D01*
X149227900Y-67413000D02*
X150059000Y-67413000D01*
X150059000Y-68720300D02*
X150059000Y-67413000D01*
X154601000Y-67865600D02*
X154148400Y-67413000D01*
X154148400Y-67413000D02*
X150059000Y-67413000D01*
%TO.N,Net-(C3-Pad2)*%
X141675000Y-63615600D02*
X141675000Y-62946800D01*
X141675000Y-62946800D02*
X141286500Y-62558300D01*
X141286500Y-62558300D02*
X139462300Y-62558300D01*
X139462300Y-62558300D02*
X136442400Y-65578200D01*
X136442400Y-65578200D02*
X133675000Y-65578200D01*
X133675000Y-65578200D02*
X133377600Y-65280800D01*
X133377600Y-65280800D02*
X133377600Y-64113400D01*
X133377600Y-64113400D02*
X133759600Y-63731400D01*
X133759600Y-63731400D02*
X136929000Y-63731400D01*
X136929000Y-63731400D02*
X138708000Y-61952400D01*
X138708000Y-61952400D02*
X138708000Y-61496900D01*
D25*
%TO.N,+5V*%
X130600000Y-61212500D02*
X129369700Y-61212500D01*
X132412800Y-69082600D02*
X132412800Y-73463100D01*
X144875000Y-63615600D02*
X144875000Y-66630400D01*
X144875000Y-66630400D02*
X145710200Y-67465600D01*
X145710200Y-67465600D02*
X145944700Y-67465600D01*
X148305300Y-71437400D02*
X149244000Y-71437400D01*
X145030500Y-74692100D02*
X148285200Y-71437400D01*
X148285200Y-71437400D02*
X148305300Y-71437400D01*
X148305300Y-67465600D02*
X148305300Y-71437400D01*
X147125000Y-67465600D02*
X148305300Y-67465600D01*
X146534900Y-67465600D02*
X147125000Y-67465600D01*
X146534900Y-67465600D02*
X145944700Y-67465600D01*
X130600000Y-78993600D02*
X130600000Y-75275900D01*
X130600000Y-75275900D02*
X132412800Y-73463100D01*
X132412800Y-73463100D02*
X133612300Y-73463100D01*
X133612300Y-73463100D02*
X133907200Y-73758000D01*
X144066000Y-74692100D02*
X144066000Y-74544200D01*
X144066000Y-74544200D02*
X143279800Y-73758000D01*
X130600000Y-80262500D02*
X130600000Y-78993600D01*
X110934900Y-80262500D02*
X112203800Y-78993600D01*
X112203800Y-78993600D02*
X130600000Y-78993600D01*
X110934900Y-80262500D02*
X110319700Y-80262500D01*
X111550000Y-80262500D02*
X110934900Y-80262500D01*
X132412800Y-69082600D02*
X129369700Y-66039500D01*
X129369700Y-66039500D02*
X129369700Y-61212500D01*
X134541000Y-67479600D02*
X132938000Y-69082600D01*
X132938000Y-69082600D02*
X132412800Y-69082600D01*
X149650000Y-80262500D02*
X148419700Y-80262500D01*
X148419700Y-80262500D02*
X148419700Y-79266800D01*
X148419700Y-79266800D02*
X145030500Y-75877600D01*
X145030500Y-75877600D02*
X145030500Y-74692100D01*
X144066000Y-74692100D02*
X145030500Y-74692100D01*
X149650000Y-61212500D02*
X149175800Y-61686700D01*
X149175800Y-61686700D02*
X147231800Y-61686700D01*
X147231800Y-61686700D02*
X147042000Y-61496900D01*
X111550000Y-61212500D02*
X110319700Y-61212500D01*
X110319700Y-61212500D02*
X107842800Y-63689400D01*
X107842800Y-63689400D02*
X107842800Y-77785600D01*
X107842800Y-77785600D02*
X110319700Y-80262500D01*
X146827700Y-61282600D02*
X147042000Y-61496900D01*
X144875000Y-63615600D02*
X145222900Y-63615600D01*
X145222900Y-63615600D02*
X145742400Y-63096100D01*
X145742400Y-63096100D02*
X145742400Y-62502700D01*
X145742400Y-62502700D02*
X145675000Y-62435300D01*
X145256000Y-57925000D02*
X145911500Y-58580500D01*
X145911500Y-58580500D02*
X145911500Y-60366400D01*
X145911500Y-60366400D02*
X146827700Y-61282600D01*
X146827700Y-61282600D02*
X145675000Y-62435300D01*
X145675000Y-63615600D02*
X145675000Y-62435300D01*
D24*
%TO.N,Net-(D1-Pad2)*%
X116840000Y-52070000D02*
X116840000Y-53327300D01*
X116840000Y-53327300D02*
X117311500Y-53327300D01*
X117311500Y-53327300D02*
X122634000Y-58649800D01*
X122634000Y-58649800D02*
X122634000Y-60137400D01*
%TO.N,Row0*%
X144744800Y-67637800D02*
X143025000Y-67637800D01*
X143025000Y-67637800D02*
X141474100Y-66086900D01*
X141474100Y-66086900D02*
X141474100Y-65247300D01*
X147125000Y-68265600D02*
X145372600Y-68265600D01*
X145372600Y-68265600D02*
X144744800Y-67637800D01*
X157108100Y-67555400D02*
X159544000Y-65119500D01*
X159544000Y-65119500D02*
X159544000Y-63687500D01*
X125773300Y-63687400D02*
X126161400Y-63687400D01*
X126161400Y-63687400D02*
X127896700Y-65422700D01*
X125016000Y-63687400D02*
X125773300Y-63687400D01*
X125016000Y-63687400D02*
X122634000Y-63687400D01*
%TO.N,Net-(D2-Pad2)*%
X135890000Y-52070000D02*
X130006000Y-52070000D01*
X130006000Y-52070000D02*
X125016000Y-57060000D01*
X125016000Y-57060000D02*
X125016000Y-60137400D01*
%TO.N,Net-(D3-Pad2)*%
X154940000Y-52070000D02*
X154940000Y-53327300D01*
X154940000Y-53327300D02*
X155411500Y-53327300D01*
X155411500Y-53327300D02*
X159544000Y-57459800D01*
X159544000Y-57459800D02*
X159544000Y-60137500D01*
%TO.N,Net-(D5-Pad2)*%
X127716100Y-71054700D02*
X127716100Y-71050800D01*
X127716100Y-71050800D02*
X126327700Y-69662400D01*
X126327700Y-69662400D02*
X125773300Y-69662400D01*
X125016000Y-69662400D02*
X125773300Y-69662400D01*
%TO.N,Row1*%
X140875000Y-63615600D02*
X140875000Y-66031500D01*
X140875000Y-66031500D02*
X141402900Y-66559400D01*
X141402900Y-66559400D02*
X141402900Y-68670000D01*
X141402900Y-68670000D02*
X140886800Y-69186100D01*
X125016000Y-73212400D02*
X125016000Y-71339000D01*
X125016000Y-71339000D02*
X126169100Y-70185900D01*
X124637400Y-73212400D02*
X125016000Y-73212400D01*
X159544000Y-73212500D02*
X158786700Y-73212500D01*
X158786700Y-73212500D02*
X158636600Y-73062400D01*
X158636600Y-73062400D02*
X154346000Y-73062400D01*
X154346000Y-73062400D02*
X153788000Y-73620400D01*
X124637400Y-73212400D02*
X124258700Y-73212400D01*
X122634000Y-73212500D02*
X124258700Y-73212500D01*
X124258700Y-73212500D02*
X124258700Y-73212400D01*
%TO.N,Net-(D6-Pad2)*%
X154940000Y-71120000D02*
X154940000Y-69862700D01*
X158786700Y-69662500D02*
X155140200Y-69662500D01*
X155140200Y-69662500D02*
X154940000Y-69862700D01*
X159544000Y-69662500D02*
X158786700Y-69662500D01*
%TO.N,VCC*%
X141180000Y-54847300D02*
X144702800Y-54847300D01*
X144702800Y-54847300D02*
X145325000Y-54225100D01*
X145325000Y-54225100D02*
X145325000Y-53921100D01*
X141180000Y-55225900D02*
X139922000Y-56483900D01*
X139922000Y-56483900D02*
X139922000Y-61458900D01*
X139922000Y-61458900D02*
X136701400Y-64679500D01*
X136701400Y-64679500D02*
X134541000Y-64679500D01*
X134541000Y-64679500D02*
X134541000Y-64679600D01*
X141180000Y-55225900D02*
X141180000Y-54847300D01*
X141180000Y-55604600D02*
X141180000Y-55225900D01*
X140425000Y-52938800D02*
X140425000Y-53921100D01*
X140425000Y-53921100D02*
X141180000Y-54676100D01*
X141180000Y-54676100D02*
X141180000Y-54847300D01*
X145325000Y-52938800D02*
X145325000Y-53921100D01*
%TO.N,LED*%
X137567700Y-69865600D02*
X137567700Y-69324200D01*
X137567700Y-69324200D02*
X137460900Y-69217400D01*
X138625000Y-69865600D02*
X137567700Y-69865600D01*
X117050000Y-61212500D02*
X118157300Y-61212500D01*
X118157300Y-61212500D02*
X118157300Y-61811700D01*
X118157300Y-61811700D02*
X119625000Y-63279400D01*
%TO.N,Net-(LED5-Pad2)*%
X130600000Y-81662500D02*
X124616200Y-81662500D01*
X124616200Y-81662500D02*
X123216200Y-80262500D01*
X123216200Y-80262500D02*
X117050000Y-80262500D01*
%TO.N,Net-(R1-Pad1)*%
X138625000Y-65065600D02*
X137567700Y-65065600D01*
X137567700Y-65065600D02*
X137567700Y-66747000D01*
X137567700Y-66747000D02*
X133500000Y-70814700D01*
X133500000Y-70814700D02*
X133500000Y-72204400D01*
X133500000Y-72204400D02*
X135727100Y-74431500D01*
X144066000Y-76517100D02*
X144066000Y-76144200D01*
X144066000Y-76144200D02*
X142748800Y-74827000D01*
X142748800Y-74827000D02*
X142748800Y-74772300D01*
X144066000Y-76517100D02*
X144066000Y-78360700D01*
X144066000Y-78360700D02*
X144817700Y-79112400D01*
X145975000Y-79112400D02*
X144817700Y-79112400D01*
%TO.N,Net-(R2-Pad2)*%
X142475000Y-72115600D02*
X142475000Y-73172900D01*
X141684000Y-76517100D02*
X140717700Y-75550800D01*
X140717700Y-75550800D02*
X140717700Y-74191400D01*
X140717700Y-74191400D02*
X141736200Y-73172900D01*
X141736200Y-73172900D02*
X142475000Y-73172900D01*
%TO.N,Net-(R3-Pad1)*%
X141625000Y-52938800D02*
X141625000Y-51956500D01*
X136643500Y-49410900D02*
X139079400Y-49410900D01*
X139079400Y-49410900D02*
X141625000Y-51956500D01*
%TO.N,D+*%
X143275000Y-63615600D02*
X143275000Y-62558300D01*
X143275000Y-62558300D02*
X142012900Y-62558300D01*
X142012900Y-62558300D02*
X141089000Y-61634400D01*
%TO.N,D-*%
X144661000Y-61634400D02*
X144075000Y-62220400D01*
X144075000Y-62220400D02*
X144075000Y-63615600D01*
%TO.N,Net-(R6-Pad1)*%
X149106500Y-49410900D02*
X147019100Y-49410900D01*
X147019100Y-49410900D02*
X144625000Y-51805000D01*
X144625000Y-51805000D02*
X144625000Y-52938800D01*
%TO.N,Col0*%
X140904100Y-67009400D02*
X140138500Y-67009400D01*
X140138500Y-67009400D02*
X139682300Y-67465600D01*
X138625000Y-67465600D02*
X139682300Y-67465600D01*
%TO.N,Col1*%
X129540000Y-72402700D02*
X128760300Y-71623000D01*
X128760300Y-71623000D02*
X128760300Y-60562800D01*
X129540000Y-73660000D02*
X129540000Y-72402700D01*
X138625000Y-68265600D02*
X136695300Y-68265600D01*
X136695300Y-68265600D02*
X133990800Y-70970100D01*
X133990800Y-70970100D02*
X133990800Y-71958400D01*
%TO.N,Col2*%
X138625000Y-69065600D02*
X139682300Y-69065600D01*
X139682300Y-69065600D02*
X139682300Y-70689700D01*
X139682300Y-70689700D02*
X139883900Y-70891300D01*
%TO.N,Net-(D4-Pad2)*%
X122634000Y-69662500D02*
X121876700Y-69662500D01*
X116840000Y-71120000D02*
X120419200Y-71120000D01*
X120419200Y-71120000D02*
X121876700Y-69662500D01*
%TO.N,Net-(R4-Pad1)*%
X141180000Y-57504600D02*
X141180000Y-56531900D01*
X141180000Y-56531900D02*
X141243500Y-56468400D01*
X141089000Y-59809400D02*
X141180000Y-59718400D01*
X141180000Y-59718400D02*
X141180000Y-57504600D01*
X143625000Y-52938800D02*
X143625000Y-51996800D01*
X143625000Y-51996800D02*
X143787800Y-51834000D01*
X142625000Y-53429900D02*
X142625000Y-53706200D01*
X142625000Y-53706200D02*
X142839900Y-53921100D01*
X142839900Y-53921100D02*
X143625000Y-53921100D01*
X142625000Y-52938800D02*
X142625000Y-53429900D01*
X143625000Y-52938800D02*
X143625000Y-53921100D01*
%TO.N,Net-(R5-Pad2)*%
X143380000Y-57504600D02*
X144337300Y-57504600D01*
X144337300Y-57504600D02*
X144625200Y-57216700D01*
X144625200Y-57216700D02*
X145737800Y-57216700D01*
X145737800Y-57216700D02*
X145989300Y-57468200D01*
X145989300Y-57468200D02*
X145989300Y-57602600D01*
X145989300Y-57602600D02*
X146759400Y-58372700D01*
X146759400Y-58372700D02*
X147886300Y-58372700D01*
X147886300Y-58372700D02*
X148535300Y-57723700D01*
X148535300Y-57723700D02*
X148535300Y-56609000D01*
X148535300Y-56609000D02*
X146467600Y-54541300D01*
X143380000Y-57504600D02*
X143380000Y-58528400D01*
X143380000Y-58528400D02*
X144661000Y-59809400D01*
X142125000Y-52938800D02*
X142125000Y-53921100D01*
X144591000Y-54277000D02*
X144494300Y-54373700D01*
X144494300Y-54373700D02*
X142577600Y-54373700D01*
X142577600Y-54373700D02*
X142125000Y-53921100D01*
X142125000Y-52447600D02*
X142125000Y-52938800D01*
X142125000Y-52447600D02*
X142125000Y-51956500D01*
X143125000Y-52938800D02*
X143125000Y-51956500D01*
X143125000Y-51956500D02*
X142125000Y-51956500D01*
%TO.N,Net-(LED1-Pad2)*%
X136100000Y-61212500D02*
X136100000Y-60940400D01*
X136100000Y-60940400D02*
X135231600Y-60072000D01*
X135231600Y-60072000D02*
X128569100Y-60072000D01*
X128569100Y-60072000D02*
X127484700Y-61156400D01*
X127484700Y-61156400D02*
X122868000Y-61156400D01*
X122868000Y-61156400D02*
X120254200Y-63770200D01*
X120254200Y-63770200D02*
X112443600Y-63770200D01*
X112443600Y-63770200D02*
X111550000Y-62876600D01*
X111550000Y-62876600D02*
X111550000Y-62612500D01*
%TO.N,Net-(LED2-Pad2)*%
X131991800Y-64367600D02*
X130600000Y-62975800D01*
X130600000Y-62975800D02*
X130600000Y-62612500D01*
X155150000Y-61212500D02*
X155150000Y-60902600D01*
X155150000Y-60902600D02*
X154305600Y-60058200D01*
X154305600Y-60058200D02*
X148889700Y-60058200D01*
X148889700Y-60058200D02*
X147875000Y-61072900D01*
%TO.N,Net-(LED3-Pad2)*%
X149650000Y-62612500D02*
X149650000Y-62922300D01*
X149650000Y-62922300D02*
X150681500Y-63953800D01*
X150681500Y-63953800D02*
X154230400Y-63953800D01*
X154230400Y-63953800D02*
X155376000Y-65099400D01*
X155376000Y-65099400D02*
X155376000Y-68409700D01*
X155376000Y-68409700D02*
X153305700Y-70480000D01*
X153305700Y-70480000D02*
X153305700Y-73820100D01*
X153305700Y-73820100D02*
X155150000Y-75664400D01*
X155150000Y-75664400D02*
X155150000Y-80262500D01*
%TO.N,Net-(LED4-Pad2)*%
X149650000Y-81662500D02*
X139375000Y-81662500D01*
X139375000Y-81662500D02*
X137975000Y-80262500D01*
X137975000Y-80262500D02*
X136100000Y-80262500D01*
%TD*%
M02*
