%TF.GenerationSoftware,KiCad,Pcbnew,(5.1.7)-1*%
%TF.CreationDate,2020-10-17T05:15:24-04:00*%
%TF.ProjectId,OreoOrtho,4f72656f-4f72-4746-986f-2e6b69636164,rev?*%
%TF.SameCoordinates,Original*%
%TF.FileFunction,Soldermask,Bot*%
%TF.FilePolarity,Negative*%
%FSLAX46Y46*%
G04 Gerber Fmt 4.6, Leading zero omitted, Abs format (unit mm)*
G04 Created by KiCad (PCBNEW (5.1.7)-1) date 2020-10-17 05:15:24*
%MOMM*%
%LPD*%
G01*
G04 APERTURE LIST*
%ADD10R,0.600000X1.450000*%
%ADD11R,0.300000X1.450000*%
%ADD12C,0.650000*%
%ADD13O,1.000000X2.100000*%
%ADD14O,1.000000X1.600000*%
%ADD15R,1.700000X1.000000*%
%ADD16R,1.000000X1.400000*%
%ADD17C,4.000000*%
%ADD18C,1.900000*%
%ADD19O,2.500000X2.000000*%
%ADD20R,1.800000X2.100000*%
%ADD21R,0.550000X1.600000*%
%ADD22R,1.600000X0.550000*%
%ADD23R,1.800000X1.100000*%
%ADD24R,1.400000X1.000000*%
%ADD25R,1.400000X1.200000*%
G04 APERTURE END LIST*
D10*
%TO.C,USB1*%
X146100000Y-52938800D03*
X139650000Y-52938800D03*
X145325000Y-52938800D03*
X140425000Y-52938800D03*
D11*
X141125000Y-52938800D03*
X144625000Y-52938800D03*
X141625000Y-52938800D03*
X144125000Y-52938800D03*
X142125000Y-52938800D03*
X143625000Y-52938800D03*
X143125000Y-52938800D03*
X142625000Y-52938800D03*
D12*
X145765000Y-51493800D03*
X139985000Y-51493800D03*
D13*
X138555000Y-52023800D03*
X147195000Y-52023800D03*
D14*
X138555000Y-47843800D03*
X147195000Y-47843800D03*
%TD*%
D15*
%TO.C,LED2*%
X130600000Y-62612500D03*
X130600000Y-61212500D03*
X136100000Y-62612500D03*
X136100000Y-61212500D03*
%TD*%
D16*
%TO.C,D1*%
X122634000Y-60137400D03*
X122634000Y-63687400D03*
%TD*%
%TO.C,D6*%
X159544000Y-69662500D03*
X159544000Y-73212500D03*
%TD*%
%TO.C,D5*%
X125016000Y-69662400D03*
X125016000Y-73212400D03*
%TD*%
%TO.C,D4*%
X122634000Y-69662500D03*
X122634000Y-73212500D03*
%TD*%
%TO.C,D3*%
X159544000Y-60137500D03*
X159544000Y-63687500D03*
%TD*%
%TO.C,D2*%
X125016000Y-60137400D03*
X125016000Y-63687400D03*
%TD*%
D17*
%TO.C,SW6*%
X152400000Y-76200000D03*
D18*
X147320000Y-76200000D03*
X157480000Y-76200000D03*
D19*
X154940000Y-71120000D03*
X148590000Y-73660000D03*
%TD*%
D17*
%TO.C,SW5*%
X133350000Y-76200000D03*
D18*
X128270000Y-76200000D03*
X138430000Y-76200000D03*
D19*
X135890000Y-71120000D03*
X129540000Y-73660000D03*
%TD*%
D17*
%TO.C,SW4*%
X114300000Y-76200000D03*
D18*
X109220000Y-76200000D03*
X119380000Y-76200000D03*
D19*
X116840000Y-71120000D03*
X110490000Y-73660000D03*
%TD*%
D17*
%TO.C,SW3*%
X152400000Y-57150000D03*
D18*
X147320000Y-57150000D03*
X157480000Y-57150000D03*
D19*
X154940000Y-52070000D03*
X148590000Y-54610000D03*
%TD*%
D17*
%TO.C,SW2*%
X133350000Y-57150000D03*
D18*
X128270000Y-57150000D03*
X138430000Y-57150000D03*
D19*
X135890000Y-52070000D03*
X129540000Y-54610000D03*
%TD*%
D17*
%TO.C,SW1*%
X114300000Y-57150000D03*
D18*
X109220000Y-57150000D03*
X119380000Y-57150000D03*
D19*
X116840000Y-52070000D03*
X110490000Y-54610000D03*
%TD*%
D20*
%TO.C,Y1*%
X150059000Y-65820300D03*
X150059000Y-68720300D03*
X152359000Y-68720300D03*
X152359000Y-65820300D03*
%TD*%
D21*
%TO.C,U1*%
X145675000Y-63615600D03*
X144875000Y-63615600D03*
X144075000Y-63615600D03*
X143275000Y-63615600D03*
X142475000Y-63615600D03*
X141675000Y-63615600D03*
X140875000Y-63615600D03*
X140075000Y-63615600D03*
D22*
X138625000Y-65065600D03*
X138625000Y-65865600D03*
X138625000Y-66665600D03*
X138625000Y-67465600D03*
X138625000Y-68265600D03*
X138625000Y-69065600D03*
X138625000Y-69865600D03*
X138625000Y-70665600D03*
D21*
X140075000Y-72115600D03*
X140875000Y-72115600D03*
X141675000Y-72115600D03*
X142475000Y-72115600D03*
X143275000Y-72115600D03*
X144075000Y-72115600D03*
X144875000Y-72115600D03*
X145675000Y-72115600D03*
D22*
X147125000Y-70665600D03*
X147125000Y-69865600D03*
X147125000Y-69065600D03*
X147125000Y-68265600D03*
X147125000Y-67465600D03*
X147125000Y-66665600D03*
X147125000Y-65865600D03*
X147125000Y-65065600D03*
%TD*%
D23*
%TO.C,RST_SW1*%
X145975000Y-82812400D03*
X139775000Y-79112400D03*
X145975000Y-79112400D03*
X139775000Y-82812400D03*
%TD*%
%TO.C,R6*%
G36*
G01*
X150419000Y-49860901D02*
X150419000Y-48960899D01*
G75*
G02*
X150668999Y-48710900I249999J0D01*
G01*
X151194001Y-48710900D01*
G75*
G02*
X151444000Y-48960899I0J-249999D01*
G01*
X151444000Y-49860901D01*
G75*
G02*
X151194001Y-50110900I-249999J0D01*
G01*
X150668999Y-50110900D01*
G75*
G02*
X150419000Y-49860901I0J249999D01*
G01*
G37*
G36*
G01*
X148594000Y-49860901D02*
X148594000Y-48960899D01*
G75*
G02*
X148843999Y-48710900I249999J0D01*
G01*
X149369001Y-48710900D01*
G75*
G02*
X149619000Y-48960899I0J-249999D01*
G01*
X149619000Y-49860901D01*
G75*
G02*
X149369001Y-50110900I-249999J0D01*
G01*
X148843999Y-50110900D01*
G75*
G02*
X148594000Y-49860901I0J249999D01*
G01*
G37*
%TD*%
%TO.C,R5*%
G36*
G01*
X145111001Y-60321900D02*
X144210999Y-60321900D01*
G75*
G02*
X143961000Y-60071901I0J249999D01*
G01*
X143961000Y-59546899D01*
G75*
G02*
X144210999Y-59296900I249999J0D01*
G01*
X145111001Y-59296900D01*
G75*
G02*
X145361000Y-59546899I0J-249999D01*
G01*
X145361000Y-60071901D01*
G75*
G02*
X145111001Y-60321900I-249999J0D01*
G01*
G37*
G36*
G01*
X145111001Y-62146900D02*
X144210999Y-62146900D01*
G75*
G02*
X143961000Y-61896901I0J249999D01*
G01*
X143961000Y-61371899D01*
G75*
G02*
X144210999Y-61121900I249999J0D01*
G01*
X145111001Y-61121900D01*
G75*
G02*
X145361000Y-61371899I0J-249999D01*
G01*
X145361000Y-61896901D01*
G75*
G02*
X145111001Y-62146900I-249999J0D01*
G01*
G37*
%TD*%
%TO.C,R4*%
G36*
G01*
X140638999Y-61121900D02*
X141539001Y-61121900D01*
G75*
G02*
X141789000Y-61371899I0J-249999D01*
G01*
X141789000Y-61896901D01*
G75*
G02*
X141539001Y-62146900I-249999J0D01*
G01*
X140638999Y-62146900D01*
G75*
G02*
X140389000Y-61896901I0J249999D01*
G01*
X140389000Y-61371899D01*
G75*
G02*
X140638999Y-61121900I249999J0D01*
G01*
G37*
G36*
G01*
X140638999Y-59296900D02*
X141539001Y-59296900D01*
G75*
G02*
X141789000Y-59546899I0J-249999D01*
G01*
X141789000Y-60071901D01*
G75*
G02*
X141539001Y-60321900I-249999J0D01*
G01*
X140638999Y-60321900D01*
G75*
G02*
X140389000Y-60071901I0J249999D01*
G01*
X140389000Y-59546899D01*
G75*
G02*
X140638999Y-59296900I249999J0D01*
G01*
G37*
%TD*%
%TO.C,R3*%
G36*
G01*
X135331000Y-48960899D02*
X135331000Y-49860901D01*
G75*
G02*
X135081001Y-50110900I-249999J0D01*
G01*
X134555999Y-50110900D01*
G75*
G02*
X134306000Y-49860901I0J249999D01*
G01*
X134306000Y-48960899D01*
G75*
G02*
X134555999Y-48710900I249999J0D01*
G01*
X135081001Y-48710900D01*
G75*
G02*
X135331000Y-48960899I0J-249999D01*
G01*
G37*
G36*
G01*
X137156000Y-48960899D02*
X137156000Y-49860901D01*
G75*
G02*
X136906001Y-50110900I-249999J0D01*
G01*
X136380999Y-50110900D01*
G75*
G02*
X136131000Y-49860901I0J249999D01*
G01*
X136131000Y-48960899D01*
G75*
G02*
X136380999Y-48710900I249999J0D01*
G01*
X136906001Y-48710900D01*
G75*
G02*
X137156000Y-48960899I0J-249999D01*
G01*
G37*
%TD*%
%TO.C,R2*%
G36*
G01*
X141233999Y-76004600D02*
X142134001Y-76004600D01*
G75*
G02*
X142384000Y-76254599I0J-249999D01*
G01*
X142384000Y-76779601D01*
G75*
G02*
X142134001Y-77029600I-249999J0D01*
G01*
X141233999Y-77029600D01*
G75*
G02*
X140984000Y-76779601I0J249999D01*
G01*
X140984000Y-76254599D01*
G75*
G02*
X141233999Y-76004600I249999J0D01*
G01*
G37*
G36*
G01*
X141233999Y-74179600D02*
X142134001Y-74179600D01*
G75*
G02*
X142384000Y-74429599I0J-249999D01*
G01*
X142384000Y-74954601D01*
G75*
G02*
X142134001Y-75204600I-249999J0D01*
G01*
X141233999Y-75204600D01*
G75*
G02*
X140984000Y-74954601I0J249999D01*
G01*
X140984000Y-74429599D01*
G75*
G02*
X141233999Y-74179600I249999J0D01*
G01*
G37*
%TD*%
%TO.C,R1*%
G36*
G01*
X144516001Y-75204600D02*
X143615999Y-75204600D01*
G75*
G02*
X143366000Y-74954601I0J249999D01*
G01*
X143366000Y-74429599D01*
G75*
G02*
X143615999Y-74179600I249999J0D01*
G01*
X144516001Y-74179600D01*
G75*
G02*
X144766000Y-74429599I0J-249999D01*
G01*
X144766000Y-74954601D01*
G75*
G02*
X144516001Y-75204600I-249999J0D01*
G01*
G37*
G36*
G01*
X144516001Y-77029600D02*
X143615999Y-77029600D01*
G75*
G02*
X143366000Y-76779601I0J249999D01*
G01*
X143366000Y-76254599D01*
G75*
G02*
X143615999Y-76004600I249999J0D01*
G01*
X144516001Y-76004600D01*
G75*
G02*
X144766000Y-76254599I0J-249999D01*
G01*
X144766000Y-76779601D01*
G75*
G02*
X144516001Y-77029600I-249999J0D01*
G01*
G37*
%TD*%
D15*
%TO.C,LED6*%
X111550000Y-81662500D03*
X111550000Y-80262500D03*
X117050000Y-81662500D03*
X117050000Y-80262500D03*
%TD*%
%TO.C,LED5*%
X130600000Y-81662500D03*
X130600000Y-80262500D03*
X136100000Y-81662500D03*
X136100000Y-80262500D03*
%TD*%
%TO.C,LED4*%
X149650000Y-81662500D03*
X149650000Y-80262500D03*
X155150000Y-81662500D03*
X155150000Y-80262500D03*
%TD*%
%TO.C,LED3*%
X149650000Y-62612500D03*
X149650000Y-61212500D03*
X155150000Y-62612500D03*
X155150000Y-61212500D03*
%TD*%
%TO.C,LED1*%
X111550000Y-62612500D03*
X111550000Y-61212500D03*
X117050000Y-62612500D03*
X117050000Y-61212500D03*
%TD*%
%TO.C,F1*%
G36*
G01*
X135166000Y-65304600D02*
X133916000Y-65304600D01*
G75*
G02*
X133666000Y-65054600I0J250000D01*
G01*
X133666000Y-64304600D01*
G75*
G02*
X133916000Y-64054600I250000J0D01*
G01*
X135166000Y-64054600D01*
G75*
G02*
X135416000Y-64304600I0J-250000D01*
G01*
X135416000Y-65054600D01*
G75*
G02*
X135166000Y-65304600I-250000J0D01*
G01*
G37*
G36*
G01*
X135166000Y-68104600D02*
X133916000Y-68104600D01*
G75*
G02*
X133666000Y-67854600I0J250000D01*
G01*
X133666000Y-67104600D01*
G75*
G02*
X133916000Y-66854600I250000J0D01*
G01*
X135166000Y-66854600D01*
G75*
G02*
X135416000Y-67104600I0J-250000D01*
G01*
X135416000Y-67854600D01*
G75*
G02*
X135166000Y-68104600I-250000J0D01*
G01*
G37*
%TD*%
D24*
%TO.C,U2*%
X141180000Y-55604600D03*
X141180000Y-57504600D03*
X143380000Y-57504600D03*
D25*
X143380000Y-55784600D03*
%TD*%
%TO.C,C6*%
G36*
G01*
X149694000Y-71187400D02*
X149694000Y-71687400D01*
G75*
G02*
X149469000Y-71912400I-225000J0D01*
G01*
X149019000Y-71912400D01*
G75*
G02*
X148794000Y-71687400I0J225000D01*
G01*
X148794000Y-71187400D01*
G75*
G02*
X149019000Y-70962400I225000J0D01*
G01*
X149469000Y-70962400D01*
G75*
G02*
X149694000Y-71187400I0J-225000D01*
G01*
G37*
G36*
G01*
X151244000Y-71187400D02*
X151244000Y-71687400D01*
G75*
G02*
X151019000Y-71912400I-225000J0D01*
G01*
X150569000Y-71912400D01*
G75*
G02*
X150344000Y-71687400I0J225000D01*
G01*
X150344000Y-71187400D01*
G75*
G02*
X150569000Y-70962400I225000J0D01*
G01*
X151019000Y-70962400D01*
G75*
G02*
X151244000Y-71187400I0J-225000D01*
G01*
G37*
%TD*%
%TO.C,C5*%
G36*
G01*
X146792000Y-61046900D02*
X147292000Y-61046900D01*
G75*
G02*
X147517000Y-61271900I0J-225000D01*
G01*
X147517000Y-61721900D01*
G75*
G02*
X147292000Y-61946900I-225000J0D01*
G01*
X146792000Y-61946900D01*
G75*
G02*
X146567000Y-61721900I0J225000D01*
G01*
X146567000Y-61271900D01*
G75*
G02*
X146792000Y-61046900I225000J0D01*
G01*
G37*
G36*
G01*
X146792000Y-59496900D02*
X147292000Y-59496900D01*
G75*
G02*
X147517000Y-59721900I0J-225000D01*
G01*
X147517000Y-60171900D01*
G75*
G02*
X147292000Y-60396900I-225000J0D01*
G01*
X146792000Y-60396900D01*
G75*
G02*
X146567000Y-60171900I0J225000D01*
G01*
X146567000Y-59721900D01*
G75*
G02*
X146792000Y-59496900I225000J0D01*
G01*
G37*
%TD*%
%TO.C,C4*%
G36*
G01*
X145006000Y-57475000D02*
X145506000Y-57475000D01*
G75*
G02*
X145731000Y-57700000I0J-225000D01*
G01*
X145731000Y-58150000D01*
G75*
G02*
X145506000Y-58375000I-225000J0D01*
G01*
X145006000Y-58375000D01*
G75*
G02*
X144781000Y-58150000I0J225000D01*
G01*
X144781000Y-57700000D01*
G75*
G02*
X145006000Y-57475000I225000J0D01*
G01*
G37*
G36*
G01*
X145006000Y-55925000D02*
X145506000Y-55925000D01*
G75*
G02*
X145731000Y-56150000I0J-225000D01*
G01*
X145731000Y-56600000D01*
G75*
G02*
X145506000Y-56825000I-225000J0D01*
G01*
X145006000Y-56825000D01*
G75*
G02*
X144781000Y-56600000I0J225000D01*
G01*
X144781000Y-56150000D01*
G75*
G02*
X145006000Y-55925000I225000J0D01*
G01*
G37*
%TD*%
%TO.C,C3*%
G36*
G01*
X138458000Y-61046900D02*
X138958000Y-61046900D01*
G75*
G02*
X139183000Y-61271900I0J-225000D01*
G01*
X139183000Y-61721900D01*
G75*
G02*
X138958000Y-61946900I-225000J0D01*
G01*
X138458000Y-61946900D01*
G75*
G02*
X138233000Y-61721900I0J225000D01*
G01*
X138233000Y-61271900D01*
G75*
G02*
X138458000Y-61046900I225000J0D01*
G01*
G37*
G36*
G01*
X138458000Y-59496900D02*
X138958000Y-59496900D01*
G75*
G02*
X139183000Y-59721900I0J-225000D01*
G01*
X139183000Y-60171900D01*
G75*
G02*
X138958000Y-60396900I-225000J0D01*
G01*
X138458000Y-60396900D01*
G75*
G02*
X138233000Y-60171900I0J225000D01*
G01*
X138233000Y-59721900D01*
G75*
G02*
X138458000Y-59496900I225000J0D01*
G01*
G37*
%TD*%
%TO.C,C2*%
G36*
G01*
X155051000Y-67615600D02*
X155051000Y-68115600D01*
G75*
G02*
X154826000Y-68340600I-225000J0D01*
G01*
X154376000Y-68340600D01*
G75*
G02*
X154151000Y-68115600I0J225000D01*
G01*
X154151000Y-67615600D01*
G75*
G02*
X154376000Y-67390600I225000J0D01*
G01*
X154826000Y-67390600D01*
G75*
G02*
X155051000Y-67615600I0J-225000D01*
G01*
G37*
G36*
G01*
X156601000Y-67615600D02*
X156601000Y-68115600D01*
G75*
G02*
X156376000Y-68340600I-225000J0D01*
G01*
X155926000Y-68340600D01*
G75*
G02*
X155701000Y-68115600I0J225000D01*
G01*
X155701000Y-67615600D01*
G75*
G02*
X155926000Y-67390600I225000J0D01*
G01*
X156376000Y-67390600D01*
G75*
G02*
X156601000Y-67615600I0J-225000D01*
G01*
G37*
%TD*%
%TO.C,C1*%
G36*
G01*
X155051000Y-65234300D02*
X155051000Y-65734300D01*
G75*
G02*
X154826000Y-65959300I-225000J0D01*
G01*
X154376000Y-65959300D01*
G75*
G02*
X154151000Y-65734300I0J225000D01*
G01*
X154151000Y-65234300D01*
G75*
G02*
X154376000Y-65009300I225000J0D01*
G01*
X154826000Y-65009300D01*
G75*
G02*
X155051000Y-65234300I0J-225000D01*
G01*
G37*
G36*
G01*
X156601000Y-65234300D02*
X156601000Y-65734300D01*
G75*
G02*
X156376000Y-65959300I-225000J0D01*
G01*
X155926000Y-65959300D01*
G75*
G02*
X155701000Y-65734300I0J225000D01*
G01*
X155701000Y-65234300D01*
G75*
G02*
X155926000Y-65009300I225000J0D01*
G01*
X156376000Y-65009300D01*
G75*
G02*
X156601000Y-65234300I0J-225000D01*
G01*
G37*
%TD*%
M02*
