%TF.GenerationSoftware,KiCad,Pcbnew,(5.1.7)-1*%
%TF.CreationDate,2020-10-26T01:34:48-04:00*%
%TF.ProjectId,OreoOrtho,4f72656f-4f72-4746-986f-2e6b69636164,rev?*%
%TF.SameCoordinates,Original*%
%TF.FileFunction,Copper,L1,Top*%
%TF.FilePolarity,Positive*%
%FSLAX46Y46*%
G04 Gerber Fmt 4.6, Leading zero omitted, Abs format (unit mm)*
G04 Created by KiCad (PCBNEW (5.1.7)-1) date 2020-10-26 01:34:48*
%MOMM*%
%LPD*%
G01*
G04 APERTURE LIST*
%TA.AperFunction,ComponentPad*%
%ADD10C,5.000000*%
%TD*%
%TA.AperFunction,SMDPad,CuDef*%
%ADD11R,0.550000X1.500000*%
%TD*%
%TA.AperFunction,SMDPad,CuDef*%
%ADD12R,1.500000X0.550000*%
%TD*%
%TA.AperFunction,SMDPad,CuDef*%
%ADD13R,0.600000X1.450000*%
%TD*%
%TA.AperFunction,SMDPad,CuDef*%
%ADD14R,0.300000X1.450000*%
%TD*%
%TA.AperFunction,ComponentPad*%
%ADD15O,1.000000X2.100000*%
%TD*%
%TA.AperFunction,ComponentPad*%
%ADD16O,1.000000X1.600000*%
%TD*%
%TA.AperFunction,SMDPad,CuDef*%
%ADD17R,2.100000X1.800000*%
%TD*%
%TA.AperFunction,SMDPad,CuDef*%
%ADD18R,1.000000X1.400000*%
%TD*%
%TA.AperFunction,SMDPad,CuDef*%
%ADD19R,1.200000X1.400000*%
%TD*%
%TA.AperFunction,SMDPad,CuDef*%
%ADD20R,1.800000X1.100000*%
%TD*%
%TA.AperFunction,ViaPad*%
%ADD21C,0.600000*%
%TD*%
%TA.AperFunction,Conductor*%
%ADD22C,0.200000*%
%TD*%
%TA.AperFunction,Conductor*%
%ADD23C,0.400000*%
%TD*%
%TA.AperFunction,NonConductor*%
%ADD24C,0.254000*%
%TD*%
%TA.AperFunction,NonConductor*%
%ADD25C,0.100000*%
%TD*%
G04 APERTURE END LIST*
D10*
%TO.P,H1,*%
%TO.N,*%
X159544000Y-54768800D03*
%TD*%
D11*
%TO.P,U1,44*%
%TO.N,+5V*%
X182261000Y-51028200D03*
%TO.P,U1,43*%
%TO.N,GND*%
X183061000Y-51028200D03*
%TO.P,U1,42*%
%TO.N,N/C*%
X183861000Y-51028200D03*
%TO.P,U1,41*%
X184661000Y-51028200D03*
%TO.P,U1,40*%
X185461000Y-51028200D03*
%TO.P,U1,39*%
X186261000Y-51028200D03*
%TO.P,U1,38*%
X187061000Y-51028200D03*
%TO.P,U1,37*%
X187861000Y-51028200D03*
%TO.P,U1,36*%
X188661000Y-51028200D03*
%TO.P,U1,35*%
%TO.N,GND*%
X189461000Y-51028200D03*
%TO.P,U1,34*%
%TO.N,+5V*%
X190261000Y-51028200D03*
D12*
%TO.P,U1,33*%
%TO.N,Net-(R2-Pad2)*%
X191961000Y-52728200D03*
%TO.P,U1,32*%
%TO.N,N/C*%
X191961000Y-53528200D03*
%TO.P,U1,31*%
X191961000Y-54328200D03*
%TO.P,U1,30*%
%TO.N,Row1*%
X191961000Y-55128200D03*
%TO.P,U1,29*%
%TO.N,Row0*%
X191961000Y-55928200D03*
%TO.P,U1,28*%
%TO.N,N/C*%
X191961000Y-56728200D03*
%TO.P,U1,27*%
X191961000Y-57528200D03*
%TO.P,U1,26*%
X191961000Y-58328200D03*
%TO.P,U1,25*%
X191961000Y-59128200D03*
%TO.P,U1,24*%
%TO.N,+5V*%
X191961000Y-59928200D03*
%TO.P,U1,23*%
%TO.N,GND*%
X191961000Y-60728200D03*
D11*
%TO.P,U1,22*%
%TO.N,N/C*%
X190261000Y-62428200D03*
%TO.P,U1,21*%
X189461000Y-62428200D03*
%TO.P,U1,20*%
X188661000Y-62428200D03*
%TO.P,U1,19*%
X187861000Y-62428200D03*
%TO.P,U1,18*%
X187061000Y-62428200D03*
%TO.P,U1,17*%
%TO.N,Net-(C1-Pad2)*%
X186261000Y-62428200D03*
%TO.P,U1,16*%
%TO.N,Net-(C2-Pad2)*%
X185461000Y-62428200D03*
%TO.P,U1,15*%
%TO.N,GND*%
X184661000Y-62428200D03*
%TO.P,U1,14*%
%TO.N,+5V*%
X183861000Y-62428200D03*
%TO.P,U1,13*%
%TO.N,RST*%
X183061000Y-62428200D03*
%TO.P,U1,12*%
%TO.N,Col0*%
X182261000Y-62428200D03*
D12*
%TO.P,U1,11*%
%TO.N,Col1*%
X180561000Y-60728200D03*
%TO.P,U1,10*%
%TO.N,N/C*%
X180561000Y-59928200D03*
%TO.P,U1,9*%
X180561000Y-59128200D03*
%TO.P,U1,8*%
%TO.N,LED*%
X180561000Y-58328200D03*
%TO.P,U1,7*%
%TO.N,+5V*%
X180561000Y-57528200D03*
%TO.P,U1,6*%
%TO.N,Net-(C3-Pad2)*%
X180561000Y-56728200D03*
%TO.P,U1,5*%
%TO.N,GND*%
X180561000Y-55928200D03*
%TO.P,U1,4*%
%TO.N,D+*%
X180561000Y-55128200D03*
%TO.P,U1,3*%
%TO.N,D-*%
X180561000Y-54328200D03*
%TO.P,U1,2*%
%TO.N,+5V*%
X180561000Y-53528200D03*
%TO.P,U1,1*%
%TO.N,N/C*%
X180561000Y-52728200D03*
%TD*%
%TO.P,C7,2*%
%TO.N,+5V*%
%TA.AperFunction,SMDPad,CuDef*%
G36*
G01*
X195486000Y-50428200D02*
X195486000Y-50928200D01*
G75*
G02*
X195261000Y-51153200I-225000J0D01*
G01*
X194811000Y-51153200D01*
G75*
G02*
X194586000Y-50928200I0J225000D01*
G01*
X194586000Y-50428200D01*
G75*
G02*
X194811000Y-50203200I225000J0D01*
G01*
X195261000Y-50203200D01*
G75*
G02*
X195486000Y-50428200I0J-225000D01*
G01*
G37*
%TD.AperFunction*%
%TO.P,C7,1*%
%TO.N,GND*%
%TA.AperFunction,SMDPad,CuDef*%
G36*
G01*
X197036000Y-50428200D02*
X197036000Y-50928200D01*
G75*
G02*
X196811000Y-51153200I-225000J0D01*
G01*
X196361000Y-51153200D01*
G75*
G02*
X196136000Y-50928200I0J225000D01*
G01*
X196136000Y-50428200D01*
G75*
G02*
X196361000Y-50203200I225000J0D01*
G01*
X196811000Y-50203200D01*
G75*
G02*
X197036000Y-50428200I0J-225000D01*
G01*
G37*
%TD.AperFunction*%
%TD*%
D13*
%TO.P,USB1,12*%
%TO.N,GND*%
X184536000Y-42323200D03*
%TO.P,USB1,1*%
X190986000Y-42323200D03*
%TO.P,USB1,11*%
%TO.N,VCC*%
X185311000Y-42323200D03*
%TO.P,USB1,2*%
X190211000Y-42323200D03*
D14*
%TO.P,USB1,3*%
%TO.N,N/C*%
X189511000Y-42323200D03*
%TO.P,USB1,10*%
%TO.N,Net-(R6-Pad1)*%
X186011000Y-42323200D03*
%TO.P,USB1,4*%
%TO.N,Net-(R3-Pad1)*%
X189011000Y-42323200D03*
%TO.P,USB1,9*%
%TO.N,N/C*%
X186511000Y-42323200D03*
%TO.P,USB1,5*%
%TO.N,Net-(R5-Pad2)*%
X188511000Y-42323200D03*
%TO.P,USB1,8*%
%TO.N,Net-(R4-Pad1)*%
X187011000Y-42323200D03*
%TO.P,USB1,7*%
%TO.N,Net-(R5-Pad2)*%
X187511000Y-42323200D03*
%TO.P,USB1,6*%
%TO.N,Net-(R4-Pad1)*%
X188011000Y-42323200D03*
D15*
%TO.P,USB1,13*%
%TO.N,GND*%
X192081000Y-41408200D03*
X183441000Y-41408200D03*
D16*
X192081000Y-37228200D03*
X183441000Y-37228200D03*
%TD*%
D17*
%TO.P,Y1,4*%
%TO.N,GND*%
X184399000Y-70443800D03*
%TO.P,Y1,3*%
%TO.N,Net-(C2-Pad2)*%
X181499000Y-70443800D03*
%TO.P,Y1,2*%
%TO.N,GND*%
X181499000Y-68143800D03*
%TO.P,Y1,1*%
%TO.N,Net-(C1-Pad2)*%
X184399000Y-68143800D03*
%TD*%
D18*
%TO.P,U2,4*%
%TO.N,VCC*%
X191611000Y-47578200D03*
%TO.P,U2,3*%
%TO.N,Net-(R4-Pad1)*%
X189711000Y-47578200D03*
%TO.P,U2,2*%
%TO.N,Net-(R5-Pad2)*%
X189711000Y-45378200D03*
D19*
%TO.P,U2,1*%
%TO.N,GND*%
X191431000Y-45378200D03*
%TD*%
D20*
%TO.P,RST_SW1,4*%
%TO.N,N/C*%
X189186000Y-70329900D03*
%TO.P,RST_SW1,3*%
X195386000Y-66629900D03*
%TO.P,RST_SW1,2*%
%TO.N,RST*%
X189186000Y-66629900D03*
%TO.P,RST_SW1,1*%
%TO.N,GND*%
X195386000Y-70329900D03*
%TD*%
%TO.P,R6,2*%
%TO.N,GND*%
%TA.AperFunction,SMDPad,CuDef*%
G36*
G01*
X181361002Y-37728200D02*
X180460998Y-37728200D01*
G75*
G02*
X180211000Y-37478202I0J249998D01*
G01*
X180211000Y-36953198D01*
G75*
G02*
X180460998Y-36703200I249998J0D01*
G01*
X181361002Y-36703200D01*
G75*
G02*
X181611000Y-36953198I0J-249998D01*
G01*
X181611000Y-37478202D01*
G75*
G02*
X181361002Y-37728200I-249998J0D01*
G01*
G37*
%TD.AperFunction*%
%TO.P,R6,1*%
%TO.N,Net-(R6-Pad1)*%
%TA.AperFunction,SMDPad,CuDef*%
G36*
G01*
X181361002Y-39553200D02*
X180460998Y-39553200D01*
G75*
G02*
X180211000Y-39303202I0J249998D01*
G01*
X180211000Y-38778198D01*
G75*
G02*
X180460998Y-38528200I249998J0D01*
G01*
X181361002Y-38528200D01*
G75*
G02*
X181611000Y-38778198I0J-249998D01*
G01*
X181611000Y-39303202D01*
G75*
G02*
X181361002Y-39553200I-249998J0D01*
G01*
G37*
%TD.AperFunction*%
%TD*%
%TO.P,R5,2*%
%TO.N,Net-(R5-Pad2)*%
%TA.AperFunction,SMDPad,CuDef*%
G36*
G01*
X186361002Y-46078200D02*
X185460998Y-46078200D01*
G75*
G02*
X185211000Y-45828202I0J249998D01*
G01*
X185211000Y-45303198D01*
G75*
G02*
X185460998Y-45053200I249998J0D01*
G01*
X186361002Y-45053200D01*
G75*
G02*
X186611000Y-45303198I0J-249998D01*
G01*
X186611000Y-45828202D01*
G75*
G02*
X186361002Y-46078200I-249998J0D01*
G01*
G37*
%TD.AperFunction*%
%TO.P,R5,1*%
%TO.N,D-*%
%TA.AperFunction,SMDPad,CuDef*%
G36*
G01*
X186361002Y-47903200D02*
X185460998Y-47903200D01*
G75*
G02*
X185211000Y-47653202I0J249998D01*
G01*
X185211000Y-47128198D01*
G75*
G02*
X185460998Y-46878200I249998J0D01*
G01*
X186361002Y-46878200D01*
G75*
G02*
X186611000Y-47128198I0J-249998D01*
G01*
X186611000Y-47653202D01*
G75*
G02*
X186361002Y-47903200I-249998J0D01*
G01*
G37*
%TD.AperFunction*%
%TD*%
%TO.P,R4,2*%
%TO.N,D+*%
%TA.AperFunction,SMDPad,CuDef*%
G36*
G01*
X183460998Y-46878200D02*
X184361002Y-46878200D01*
G75*
G02*
X184611000Y-47128198I0J-249998D01*
G01*
X184611000Y-47653202D01*
G75*
G02*
X184361002Y-47903200I-249998J0D01*
G01*
X183460998Y-47903200D01*
G75*
G02*
X183211000Y-47653202I0J249998D01*
G01*
X183211000Y-47128198D01*
G75*
G02*
X183460998Y-46878200I249998J0D01*
G01*
G37*
%TD.AperFunction*%
%TO.P,R4,1*%
%TO.N,Net-(R4-Pad1)*%
%TA.AperFunction,SMDPad,CuDef*%
G36*
G01*
X183460998Y-45053200D02*
X184361002Y-45053200D01*
G75*
G02*
X184611000Y-45303198I0J-249998D01*
G01*
X184611000Y-45828202D01*
G75*
G02*
X184361002Y-46078200I-249998J0D01*
G01*
X183460998Y-46078200D01*
G75*
G02*
X183211000Y-45828202I0J249998D01*
G01*
X183211000Y-45303198D01*
G75*
G02*
X183460998Y-45053200I249998J0D01*
G01*
G37*
%TD.AperFunction*%
%TD*%
%TO.P,R3,2*%
%TO.N,GND*%
%TA.AperFunction,SMDPad,CuDef*%
G36*
G01*
X195061002Y-37728200D02*
X194160998Y-37728200D01*
G75*
G02*
X193911000Y-37478202I0J249998D01*
G01*
X193911000Y-36953198D01*
G75*
G02*
X194160998Y-36703200I249998J0D01*
G01*
X195061002Y-36703200D01*
G75*
G02*
X195311000Y-36953198I0J-249998D01*
G01*
X195311000Y-37478202D01*
G75*
G02*
X195061002Y-37728200I-249998J0D01*
G01*
G37*
%TD.AperFunction*%
%TO.P,R3,1*%
%TO.N,Net-(R3-Pad1)*%
%TA.AperFunction,SMDPad,CuDef*%
G36*
G01*
X195061002Y-39553200D02*
X194160998Y-39553200D01*
G75*
G02*
X193911000Y-39303202I0J249998D01*
G01*
X193911000Y-38778198D01*
G75*
G02*
X194160998Y-38528200I249998J0D01*
G01*
X195061002Y-38528200D01*
G75*
G02*
X195311000Y-38778198I0J-249998D01*
G01*
X195311000Y-39303202D01*
G75*
G02*
X195061002Y-39553200I-249998J0D01*
G01*
G37*
%TD.AperFunction*%
%TD*%
%TO.P,R2,2*%
%TO.N,Net-(R2-Pad2)*%
%TA.AperFunction,SMDPad,CuDef*%
G36*
G01*
X195560998Y-55278200D02*
X196461002Y-55278200D01*
G75*
G02*
X196711000Y-55528198I0J-249998D01*
G01*
X196711000Y-56053202D01*
G75*
G02*
X196461002Y-56303200I-249998J0D01*
G01*
X195560998Y-56303200D01*
G75*
G02*
X195311000Y-56053202I0J249998D01*
G01*
X195311000Y-55528198D01*
G75*
G02*
X195560998Y-55278200I249998J0D01*
G01*
G37*
%TD.AperFunction*%
%TO.P,R2,1*%
%TO.N,GND*%
%TA.AperFunction,SMDPad,CuDef*%
G36*
G01*
X195560998Y-53453200D02*
X196461002Y-53453200D01*
G75*
G02*
X196711000Y-53703198I0J-249998D01*
G01*
X196711000Y-54228202D01*
G75*
G02*
X196461002Y-54478200I-249998J0D01*
G01*
X195560998Y-54478200D01*
G75*
G02*
X195311000Y-54228202I0J249998D01*
G01*
X195311000Y-53703198D01*
G75*
G02*
X195560998Y-53453200I249998J0D01*
G01*
G37*
%TD.AperFunction*%
%TD*%
%TO.P,R1,2*%
%TO.N,+5V*%
%TA.AperFunction,SMDPad,CuDef*%
G36*
G01*
X196411002Y-60828200D02*
X195510998Y-60828200D01*
G75*
G02*
X195261000Y-60578202I0J249998D01*
G01*
X195261000Y-60053198D01*
G75*
G02*
X195510998Y-59803200I249998J0D01*
G01*
X196411002Y-59803200D01*
G75*
G02*
X196661000Y-60053198I0J-249998D01*
G01*
X196661000Y-60578202D01*
G75*
G02*
X196411002Y-60828200I-249998J0D01*
G01*
G37*
%TD.AperFunction*%
%TO.P,R1,1*%
%TO.N,RST*%
%TA.AperFunction,SMDPad,CuDef*%
G36*
G01*
X196411002Y-62653200D02*
X195510998Y-62653200D01*
G75*
G02*
X195261000Y-62403202I0J249998D01*
G01*
X195261000Y-61878198D01*
G75*
G02*
X195510998Y-61628200I249998J0D01*
G01*
X196411002Y-61628200D01*
G75*
G02*
X196661000Y-61878198I0J-249998D01*
G01*
X196661000Y-62403202D01*
G75*
G02*
X196411002Y-62653200I-249998J0D01*
G01*
G37*
%TD.AperFunction*%
%TD*%
%TO.P,F1,2*%
%TO.N,VCC*%
%TA.AperFunction,SMDPad,CuDef*%
G36*
G01*
X194186000Y-43603200D02*
X195436000Y-43603200D01*
G75*
G02*
X195686000Y-43853200I0J-250000D01*
G01*
X195686000Y-44603200D01*
G75*
G02*
X195436000Y-44853200I-250000J0D01*
G01*
X194186000Y-44853200D01*
G75*
G02*
X193936000Y-44603200I0J250000D01*
G01*
X193936000Y-43853200D01*
G75*
G02*
X194186000Y-43603200I250000J0D01*
G01*
G37*
%TD.AperFunction*%
%TO.P,F1,1*%
%TO.N,+5V*%
%TA.AperFunction,SMDPad,CuDef*%
G36*
G01*
X194186000Y-40803200D02*
X195436000Y-40803200D01*
G75*
G02*
X195686000Y-41053200I0J-250000D01*
G01*
X195686000Y-41803200D01*
G75*
G02*
X195436000Y-42053200I-250000J0D01*
G01*
X194186000Y-42053200D01*
G75*
G02*
X193936000Y-41803200I0J250000D01*
G01*
X193936000Y-41053200D01*
G75*
G02*
X194186000Y-40803200I250000J0D01*
G01*
G37*
%TD.AperFunction*%
%TD*%
%TO.P,C6,2*%
%TO.N,+5V*%
%TA.AperFunction,SMDPad,CuDef*%
G36*
G01*
X195478000Y-48878200D02*
X195478000Y-49378200D01*
G75*
G02*
X195253000Y-49603200I-225000J0D01*
G01*
X194803000Y-49603200D01*
G75*
G02*
X194578000Y-49378200I0J225000D01*
G01*
X194578000Y-48878200D01*
G75*
G02*
X194803000Y-48653200I225000J0D01*
G01*
X195253000Y-48653200D01*
G75*
G02*
X195478000Y-48878200I0J-225000D01*
G01*
G37*
%TD.AperFunction*%
%TO.P,C6,1*%
%TO.N,GND*%
%TA.AperFunction,SMDPad,CuDef*%
G36*
G01*
X197028000Y-48878200D02*
X197028000Y-49378200D01*
G75*
G02*
X196803000Y-49603200I-225000J0D01*
G01*
X196353000Y-49603200D01*
G75*
G02*
X196128000Y-49378200I0J225000D01*
G01*
X196128000Y-48878200D01*
G75*
G02*
X196353000Y-48653200I225000J0D01*
G01*
X196803000Y-48653200D01*
G75*
G02*
X197028000Y-48878200I0J-225000D01*
G01*
G37*
%TD.AperFunction*%
%TD*%
%TO.P,C5,2*%
%TO.N,+5V*%
%TA.AperFunction,SMDPad,CuDef*%
G36*
G01*
X195478000Y-47328200D02*
X195478000Y-47828200D01*
G75*
G02*
X195253000Y-48053200I-225000J0D01*
G01*
X194803000Y-48053200D01*
G75*
G02*
X194578000Y-47828200I0J225000D01*
G01*
X194578000Y-47328200D01*
G75*
G02*
X194803000Y-47103200I225000J0D01*
G01*
X195253000Y-47103200D01*
G75*
G02*
X195478000Y-47328200I0J-225000D01*
G01*
G37*
%TD.AperFunction*%
%TO.P,C5,1*%
%TO.N,GND*%
%TA.AperFunction,SMDPad,CuDef*%
G36*
G01*
X197028000Y-47328200D02*
X197028000Y-47828200D01*
G75*
G02*
X196803000Y-48053200I-225000J0D01*
G01*
X196353000Y-48053200D01*
G75*
G02*
X196128000Y-47828200I0J225000D01*
G01*
X196128000Y-47328200D01*
G75*
G02*
X196353000Y-47103200I225000J0D01*
G01*
X196803000Y-47103200D01*
G75*
G02*
X197028000Y-47328200I0J-225000D01*
G01*
G37*
%TD.AperFunction*%
%TD*%
%TO.P,C4,2*%
%TO.N,+5V*%
%TA.AperFunction,SMDPad,CuDef*%
G36*
G01*
X195478000Y-45768800D02*
X195478000Y-46268800D01*
G75*
G02*
X195253000Y-46493800I-225000J0D01*
G01*
X194803000Y-46493800D01*
G75*
G02*
X194578000Y-46268800I0J225000D01*
G01*
X194578000Y-45768800D01*
G75*
G02*
X194803000Y-45543800I225000J0D01*
G01*
X195253000Y-45543800D01*
G75*
G02*
X195478000Y-45768800I0J-225000D01*
G01*
G37*
%TD.AperFunction*%
%TO.P,C4,1*%
%TO.N,GND*%
%TA.AperFunction,SMDPad,CuDef*%
G36*
G01*
X197028000Y-45768800D02*
X197028000Y-46268800D01*
G75*
G02*
X196803000Y-46493800I-225000J0D01*
G01*
X196353000Y-46493800D01*
G75*
G02*
X196128000Y-46268800I0J225000D01*
G01*
X196128000Y-45768800D01*
G75*
G02*
X196353000Y-45543800I225000J0D01*
G01*
X196803000Y-45543800D01*
G75*
G02*
X197028000Y-45768800I0J-225000D01*
G01*
G37*
%TD.AperFunction*%
%TD*%
%TO.P,C3,2*%
%TO.N,Net-(C3-Pad2)*%
%TA.AperFunction,SMDPad,CuDef*%
G36*
G01*
X180011000Y-45753200D02*
X180511000Y-45753200D01*
G75*
G02*
X180736000Y-45978200I0J-225000D01*
G01*
X180736000Y-46428200D01*
G75*
G02*
X180511000Y-46653200I-225000J0D01*
G01*
X180011000Y-46653200D01*
G75*
G02*
X179786000Y-46428200I0J225000D01*
G01*
X179786000Y-45978200D01*
G75*
G02*
X180011000Y-45753200I225000J0D01*
G01*
G37*
%TD.AperFunction*%
%TO.P,C3,1*%
%TO.N,GND*%
%TA.AperFunction,SMDPad,CuDef*%
G36*
G01*
X180011000Y-44203200D02*
X180511000Y-44203200D01*
G75*
G02*
X180736000Y-44428200I0J-225000D01*
G01*
X180736000Y-44878200D01*
G75*
G02*
X180511000Y-45103200I-225000J0D01*
G01*
X180011000Y-45103200D01*
G75*
G02*
X179786000Y-44878200I0J225000D01*
G01*
X179786000Y-44428200D01*
G75*
G02*
X180011000Y-44203200I225000J0D01*
G01*
G37*
%TD.AperFunction*%
%TD*%
%TO.P,C2,2*%
%TO.N,Net-(C2-Pad2)*%
%TA.AperFunction,SMDPad,CuDef*%
G36*
G01*
X180974000Y-65643800D02*
X180974000Y-66143800D01*
G75*
G02*
X180749000Y-66368800I-225000J0D01*
G01*
X180299000Y-66368800D01*
G75*
G02*
X180074000Y-66143800I0J225000D01*
G01*
X180074000Y-65643800D01*
G75*
G02*
X180299000Y-65418800I225000J0D01*
G01*
X180749000Y-65418800D01*
G75*
G02*
X180974000Y-65643800I0J-225000D01*
G01*
G37*
%TD.AperFunction*%
%TO.P,C2,1*%
%TO.N,GND*%
%TA.AperFunction,SMDPad,CuDef*%
G36*
G01*
X182524000Y-65643800D02*
X182524000Y-66143800D01*
G75*
G02*
X182299000Y-66368800I-225000J0D01*
G01*
X181849000Y-66368800D01*
G75*
G02*
X181624000Y-66143800I0J225000D01*
G01*
X181624000Y-65643800D01*
G75*
G02*
X181849000Y-65418800I225000J0D01*
G01*
X182299000Y-65418800D01*
G75*
G02*
X182524000Y-65643800I0J-225000D01*
G01*
G37*
%TD.AperFunction*%
%TD*%
%TO.P,C1,2*%
%TO.N,Net-(C1-Pad2)*%
%TA.AperFunction,SMDPad,CuDef*%
G36*
G01*
X184874000Y-66143800D02*
X184874000Y-65643800D01*
G75*
G02*
X185099000Y-65418800I225000J0D01*
G01*
X185549000Y-65418800D01*
G75*
G02*
X185774000Y-65643800I0J-225000D01*
G01*
X185774000Y-66143800D01*
G75*
G02*
X185549000Y-66368800I-225000J0D01*
G01*
X185099000Y-66368800D01*
G75*
G02*
X184874000Y-66143800I0J225000D01*
G01*
G37*
%TD.AperFunction*%
%TO.P,C1,1*%
%TO.N,GND*%
%TA.AperFunction,SMDPad,CuDef*%
G36*
G01*
X183324000Y-66143800D02*
X183324000Y-65643800D01*
G75*
G02*
X183549000Y-65418800I225000J0D01*
G01*
X183999000Y-65418800D01*
G75*
G02*
X184224000Y-65643800I0J-225000D01*
G01*
X184224000Y-66143800D01*
G75*
G02*
X183999000Y-66368800I-225000J0D01*
G01*
X183549000Y-66368800D01*
G75*
G02*
X183324000Y-66143800I0J225000D01*
G01*
G37*
%TD.AperFunction*%
%TD*%
D21*
%TO.N,GND*%
X173232400Y-69826600D03*
X154772000Y-70041900D03*
%TO.N,Net-(C2-Pad2)*%
X185197800Y-64500100D03*
X181221700Y-65154800D03*
%TO.N,+5V*%
X191153700Y-50862700D03*
X194038800Y-59292600D03*
X178263000Y-56521900D03*
X179563700Y-51888600D03*
X183377800Y-64985100D03*
%TO.N,Row0*%
X194329100Y-54596200D03*
%TO.N,Row1*%
X193176700Y-55554100D03*
%TO.N,Net-(LED2-Pad2)*%
X152053100Y-62021000D03*
X147683600Y-51681600D03*
%TO.N,Net-(R3-Pad1)*%
X189269900Y-41167000D03*
X190904900Y-39113600D03*
%TO.N,Net-(R6-Pad1)*%
X186439100Y-41070700D03*
X184746900Y-39465900D03*
%TO.N,Col0*%
X160398100Y-59296300D03*
%TO.N,Col1*%
X162469200Y-44841100D03*
X162805200Y-58642600D03*
%TO.N,RST*%
X183135200Y-63917000D03*
X187572600Y-64328500D03*
%TO.N,LED*%
X173258600Y-50087100D03*
%TD*%
D22*
%TO.N,Net-(C1-Pad2)*%
X185324000Y-65893800D02*
X185324000Y-66091500D01*
X185324000Y-66091500D02*
X184399000Y-67016500D01*
X186261000Y-62428200D02*
X186261000Y-64956800D01*
X186261000Y-64956800D02*
X185324000Y-65893800D01*
X184399000Y-68143800D02*
X184399000Y-67016500D01*
D23*
%TO.N,GND*%
X182074000Y-65893800D02*
X182074000Y-65111100D01*
X182074000Y-65111100D02*
X181490400Y-64527500D01*
X181490400Y-64527500D02*
X180615900Y-64527500D01*
X180615900Y-64527500D02*
X178901200Y-66242200D01*
X178901200Y-66242200D02*
X178901200Y-69826600D01*
X182074000Y-65893800D02*
X183774000Y-65893800D01*
X181499000Y-68143800D02*
X181499000Y-66916500D01*
X184399000Y-71307300D02*
X184035100Y-71671200D01*
X184035100Y-71671200D02*
X180305300Y-71671200D01*
X180305300Y-71671200D02*
X178901200Y-70267100D01*
X178901200Y-70267100D02*
X178901200Y-69826600D01*
X184399000Y-71307300D02*
X193181300Y-71307300D01*
X193181300Y-71307300D02*
X194158700Y-70329900D01*
X178901200Y-69826600D02*
X173232400Y-69826600D01*
X182074000Y-65893800D02*
X182074000Y-66341500D01*
X182074000Y-66341500D02*
X181499000Y-66916500D01*
X196586000Y-50678200D02*
X196586000Y-53390700D01*
X196586000Y-53390700D02*
X196011000Y-53965700D01*
X196578000Y-49128200D02*
X196586000Y-49136200D01*
X196586000Y-49136200D02*
X196586000Y-50678200D01*
X196011000Y-53965700D02*
X197088700Y-55043400D01*
X197088700Y-55043400D02*
X197088700Y-60745800D01*
X197088700Y-60745800D02*
X196606300Y-61228200D01*
X195386000Y-70329900D02*
X194158700Y-70329900D01*
X184399000Y-70443800D02*
X184399000Y-71307300D01*
X196606300Y-61228200D02*
X193538300Y-61228200D01*
X193538300Y-61228200D02*
X193038300Y-60728200D01*
X196613300Y-70329900D02*
X197027700Y-69915500D01*
X197027700Y-69915500D02*
X197027700Y-61649600D01*
X197027700Y-61649600D02*
X196606300Y-61228200D01*
X191961000Y-60728200D02*
X193038300Y-60728200D01*
X195386000Y-70329900D02*
X196613300Y-70329900D01*
X181071200Y-44653200D02*
X181573300Y-44653200D01*
X181573300Y-44653200D02*
X183441000Y-42785500D01*
X180261000Y-44653200D02*
X181071200Y-44653200D01*
X181071200Y-44653200D02*
X181071200Y-47019000D01*
X181071200Y-47019000D02*
X178263100Y-49827100D01*
X178263100Y-49827100D02*
X178263100Y-54707600D01*
X178263100Y-54707600D02*
X179483700Y-55928200D01*
X180561000Y-55928200D02*
X179483700Y-55928200D01*
X184536000Y-42323200D02*
X184536000Y-43375500D01*
X183441000Y-41408200D02*
X183441000Y-42785500D01*
X183441000Y-42785500D02*
X184031000Y-43375500D01*
X184031000Y-43375500D02*
X184536000Y-43375500D01*
X154772000Y-70041900D02*
X155663700Y-70933600D01*
X155663700Y-70933600D02*
X172125400Y-70933600D01*
X172125400Y-70933600D02*
X173232400Y-69826600D01*
X184661000Y-62428200D02*
X184661000Y-63505500D01*
X183774000Y-65893800D02*
X184398500Y-65269300D01*
X184398500Y-65269300D02*
X184398500Y-63768000D01*
X184398500Y-63768000D02*
X184661000Y-63505500D01*
X196578000Y-46018800D02*
X196645100Y-45951700D01*
X196645100Y-45951700D02*
X196645100Y-39249800D01*
X196645100Y-39249800D02*
X194611000Y-37215700D01*
X196578000Y-46018800D02*
X196578000Y-47578200D01*
X189461000Y-49950900D02*
X190538400Y-48873500D01*
X190538400Y-48873500D02*
X190538400Y-46270800D01*
X190538400Y-46270800D02*
X191431000Y-45378200D01*
X183061000Y-49950900D02*
X189461000Y-49950900D01*
X189461000Y-51028200D02*
X189461000Y-49950900D01*
X183061000Y-51028200D02*
X183061000Y-49950900D01*
X183441000Y-36918600D02*
X181208100Y-36918600D01*
X181208100Y-36918600D02*
X180911000Y-37215700D01*
X183441000Y-36918600D02*
X183441000Y-36609000D01*
X183441000Y-37228200D02*
X183441000Y-36918600D01*
X192081000Y-36100900D02*
X193496200Y-36100900D01*
X193496200Y-36100900D02*
X194611000Y-37215700D01*
X191431000Y-43375500D02*
X190986000Y-43375500D01*
X192081000Y-42785500D02*
X191491000Y-43375500D01*
X191491000Y-43375500D02*
X191431000Y-43375500D01*
X191431000Y-43375500D02*
X191431000Y-45378200D01*
X190986000Y-42323200D02*
X190986000Y-43375500D01*
X192081000Y-36664500D02*
X183496500Y-36664500D01*
X183496500Y-36664500D02*
X183441000Y-36609000D01*
X192081000Y-36664500D02*
X192081000Y-36100900D01*
X192081000Y-37228200D02*
X192081000Y-36664500D01*
X192081000Y-41408200D02*
X192081000Y-42785500D01*
X196578000Y-47578200D02*
X196578000Y-49128200D01*
D22*
%TO.N,Net-(C2-Pad2)*%
X185197800Y-64500100D02*
X185461000Y-64236900D01*
X185461000Y-64236900D02*
X185461000Y-62428200D01*
X180524000Y-65893800D02*
X181221700Y-65196100D01*
X181221700Y-65196100D02*
X181221700Y-65154800D01*
X180221700Y-70443800D02*
X180221700Y-66196100D01*
X180221700Y-66196100D02*
X180524000Y-65893800D01*
X181499000Y-70443800D02*
X180221700Y-70443800D01*
%TO.N,Net-(C3-Pad2)*%
X180561000Y-56728200D02*
X179583700Y-56728200D01*
X180261000Y-46203200D02*
X177835700Y-48628500D01*
X177835700Y-48628500D02*
X177835700Y-54980200D01*
X177835700Y-54980200D02*
X179583700Y-56728200D01*
D23*
%TO.N,+5V*%
X191153700Y-50862700D02*
X191338200Y-50678200D01*
X191338200Y-50678200D02*
X195036000Y-50678200D01*
X191153700Y-50862700D02*
X190261000Y-50862700D01*
X195028000Y-49128200D02*
X195036000Y-49136200D01*
X195036000Y-49136200D02*
X195036000Y-50678200D01*
X195028000Y-47578200D02*
X195028000Y-49128200D01*
X190261000Y-51028200D02*
X190261000Y-50862700D01*
X194038800Y-59891200D02*
X193075300Y-59891200D01*
X193075300Y-59891200D02*
X193038300Y-59928200D01*
X195961000Y-60315700D02*
X195536500Y-59891200D01*
X195536500Y-59891200D02*
X194038800Y-59891200D01*
X194038800Y-59292600D02*
X194038800Y-59891200D01*
X178263000Y-56521900D02*
X179269300Y-57528200D01*
X179269300Y-57528200D02*
X180561000Y-57528200D01*
X183377800Y-64985100D02*
X183861000Y-64501900D01*
X183861000Y-64501900D02*
X183861000Y-62428200D01*
X179563700Y-51888600D02*
X180424100Y-51028200D01*
X180424100Y-51028200D02*
X182261000Y-51028200D01*
X179483700Y-53528200D02*
X179483700Y-51968600D01*
X179483700Y-51968600D02*
X179563700Y-51888600D01*
X180561000Y-53528200D02*
X179483700Y-53528200D01*
X191961000Y-59928200D02*
X193038300Y-59928200D01*
X194811000Y-41428200D02*
X195412900Y-41428200D01*
X195412900Y-41428200D02*
X196058500Y-42073800D01*
X196058500Y-42073800D02*
X196058500Y-44988300D01*
X196058500Y-44988300D02*
X195028000Y-46018800D01*
X195028000Y-46018800D02*
X195028000Y-47578200D01*
D22*
%TO.N,Row0*%
X194329100Y-54596200D02*
X194329100Y-55204800D01*
X194329100Y-55204800D02*
X193447800Y-56086100D01*
X193447800Y-56086100D02*
X192118900Y-56086100D01*
X192118900Y-56086100D02*
X191961000Y-55928200D01*
%TO.N,Row1*%
X191961000Y-55128200D02*
X192938300Y-55128200D01*
X192938300Y-55128200D02*
X192938300Y-55315700D01*
X192938300Y-55315700D02*
X193176700Y-55554100D01*
D23*
%TO.N,VCC*%
X189955500Y-40621500D02*
X189777400Y-40443400D01*
X189777400Y-40443400D02*
X186179400Y-40443400D01*
X186179400Y-40443400D02*
X185811800Y-40811000D01*
X185811800Y-40811000D02*
X185811800Y-41167000D01*
X185811800Y-41167000D02*
X185311000Y-41667800D01*
X185311000Y-41667800D02*
X185311000Y-42323200D01*
X189955500Y-40621500D02*
X190577100Y-39999900D01*
X190577100Y-39999900D02*
X192432400Y-39999900D01*
X192432400Y-39999900D02*
X192962100Y-40529600D01*
X192962100Y-40529600D02*
X192962100Y-44228200D01*
X190211000Y-42323200D02*
X190211000Y-41679900D01*
X190211000Y-41679900D02*
X189955500Y-41424400D01*
X189955500Y-41424400D02*
X189955500Y-40621500D01*
X191611000Y-46550900D02*
X192049600Y-46550900D01*
X192049600Y-46550900D02*
X192962100Y-45638400D01*
X192962100Y-45638400D02*
X192962100Y-44228200D01*
X194811000Y-44228200D02*
X192962100Y-44228200D01*
X191611000Y-47578200D02*
X191611000Y-46550900D01*
D22*
%TO.N,Net-(LED2-Pad2)*%
X147683600Y-51681600D02*
X147683600Y-57651500D01*
X147683600Y-57651500D02*
X152053100Y-62021000D01*
%TO.N,Net-(R2-Pad2)*%
X196011000Y-55790700D02*
X196011000Y-55532400D01*
X196011000Y-55532400D02*
X193206800Y-52728200D01*
X193206800Y-52728200D02*
X191961000Y-52728200D01*
%TO.N,Net-(R3-Pad1)*%
X189011000Y-42323200D02*
X189011000Y-41370900D01*
X189269900Y-41167000D02*
X189066000Y-41370900D01*
X189066000Y-41370900D02*
X189011000Y-41370900D01*
X194611000Y-39040700D02*
X190977800Y-39040700D01*
X190977800Y-39040700D02*
X190904900Y-39113600D01*
%TO.N,D+*%
X183911000Y-47390700D02*
X182853200Y-47390700D01*
X182853200Y-47390700D02*
X178695600Y-51548300D01*
X178695600Y-51548300D02*
X178695600Y-54240100D01*
X178695600Y-54240100D02*
X179583700Y-55128200D01*
X180561000Y-55128200D02*
X179583700Y-55128200D01*
%TO.N,Net-(R4-Pad1)*%
X188011000Y-42323200D02*
X188011000Y-43275500D01*
X187011000Y-43275500D02*
X186792900Y-43275500D01*
X186792900Y-43275500D02*
X184493800Y-45574600D01*
X188011000Y-43275500D02*
X187011000Y-43275500D01*
X184493800Y-45574600D02*
X185397300Y-46478200D01*
X185397300Y-46478200D02*
X187883700Y-46478200D01*
X187883700Y-46478200D02*
X188983700Y-47578200D01*
X183911000Y-45565700D02*
X184484800Y-45565700D01*
X184484800Y-45565700D02*
X184493800Y-45574600D01*
X187011000Y-42323200D02*
X187011000Y-43275500D01*
X189711000Y-47578200D02*
X188983700Y-47578200D01*
%TO.N,Net-(R5-Pad2)*%
X188983700Y-45378200D02*
X188511000Y-44905500D01*
X188511000Y-44905500D02*
X188511000Y-42323200D01*
X185911000Y-45565700D02*
X188796200Y-45565700D01*
X188796200Y-45565700D02*
X188983700Y-45378200D01*
X189711000Y-45378200D02*
X188983700Y-45378200D01*
X188511000Y-42323200D02*
X188511000Y-41370900D01*
X187511000Y-42323200D02*
X187511000Y-41370900D01*
X187511000Y-41370900D02*
X188511000Y-41370900D01*
%TO.N,D-*%
X185911000Y-47390700D02*
X184867700Y-48434000D01*
X184867700Y-48434000D02*
X182272700Y-48434000D01*
X182272700Y-48434000D02*
X179032300Y-51674400D01*
X179032300Y-51674400D02*
X179032300Y-53776800D01*
X179032300Y-53776800D02*
X179583700Y-54328200D01*
X180561000Y-54328200D02*
X179583700Y-54328200D01*
%TO.N,Net-(R6-Pad1)*%
X186011000Y-42323200D02*
X186011000Y-41589400D01*
X186011000Y-41589400D02*
X186439100Y-41161300D01*
X186439100Y-41161300D02*
X186439100Y-41070700D01*
X180911000Y-39040700D02*
X184321700Y-39040700D01*
X184321700Y-39040700D02*
X184746900Y-39465900D01*
%TO.N,Col0*%
X160398100Y-59296300D02*
X167292200Y-59296300D01*
X167292200Y-59296300D02*
X170424100Y-62428200D01*
X170424100Y-62428200D02*
X182261000Y-62428200D01*
%TO.N,Col1*%
X165344200Y-56103600D02*
X171486300Y-56103600D01*
X171486300Y-56103600D02*
X176110900Y-60728200D01*
X176110900Y-60728200D02*
X180561000Y-60728200D01*
X162805200Y-58642600D02*
X165344200Y-56103600D01*
X162469200Y-44841100D02*
X162469200Y-53228600D01*
X162469200Y-53228600D02*
X165344200Y-56103600D01*
%TO.N,RST*%
X189186000Y-66629900D02*
X188058700Y-66629900D01*
X188058700Y-66629900D02*
X188058700Y-64814600D01*
X188058700Y-64814600D02*
X187572600Y-64328500D01*
X183135200Y-63917000D02*
X183061000Y-63842800D01*
X183061000Y-63842800D02*
X183061000Y-62428200D01*
X189186000Y-66629900D02*
X189749700Y-66629900D01*
X189749700Y-66629900D02*
X191471800Y-66629900D01*
X195961000Y-62140700D02*
X191471800Y-66629900D01*
%TO.N,LED*%
X173258600Y-50087100D02*
X173258600Y-52263100D01*
X173258600Y-52263100D02*
X179323700Y-58328200D01*
X179323700Y-58328200D02*
X180561000Y-58328200D01*
%TD*%
D24*
X178203564Y-70733245D02*
X178307909Y-70860391D01*
X178339779Y-70886546D01*
X178832056Y-71378823D01*
X172861044Y-71378823D01*
X173520614Y-70719254D01*
X173659804Y-70661600D01*
X178165269Y-70661600D01*
X178203564Y-70733245D01*
%TA.AperFunction,NonConductor*%
D25*
G36*
X178203564Y-70733245D02*
G01*
X178307909Y-70860391D01*
X178339779Y-70886546D01*
X178832056Y-71378823D01*
X172861044Y-71378823D01*
X173520614Y-70719254D01*
X173659804Y-70661600D01*
X178165269Y-70661600D01*
X178203564Y-70733245D01*
G37*
%TD.AperFunction*%
D24*
X179589992Y-36779944D02*
X179572928Y-36953198D01*
X179572928Y-37478202D01*
X179589992Y-37651456D01*
X179640528Y-37818052D01*
X179722595Y-37971587D01*
X179833038Y-38106162D01*
X179859891Y-38128200D01*
X179833038Y-38150238D01*
X179722595Y-38284813D01*
X179640528Y-38438348D01*
X179589992Y-38604944D01*
X179572928Y-38778198D01*
X179572928Y-39303202D01*
X179589992Y-39476456D01*
X179640528Y-39643052D01*
X179722595Y-39796587D01*
X179833038Y-39931162D01*
X179967613Y-40041605D01*
X180121148Y-40123672D01*
X180287744Y-40174208D01*
X180460998Y-40191272D01*
X181361002Y-40191272D01*
X181534256Y-40174208D01*
X181700852Y-40123672D01*
X181854387Y-40041605D01*
X181988962Y-39931162D01*
X182099405Y-39796587D01*
X182110569Y-39775700D01*
X183099573Y-39775700D01*
X183004554Y-39804524D01*
X182807378Y-39909916D01*
X182634552Y-40051751D01*
X182492717Y-40224577D01*
X182387324Y-40421753D01*
X182322423Y-40635701D01*
X182306000Y-40802448D01*
X182306000Y-42013951D01*
X182322423Y-42180698D01*
X182387324Y-42394646D01*
X182479164Y-42566468D01*
X181227433Y-43818200D01*
X181121517Y-43818200D01*
X181121284Y-43817916D01*
X180990497Y-43710582D01*
X180841283Y-43630825D01*
X180679377Y-43581712D01*
X180511000Y-43565128D01*
X180011000Y-43565128D01*
X179842623Y-43581712D01*
X179680717Y-43630825D01*
X179531503Y-43710582D01*
X179400716Y-43817916D01*
X179293382Y-43948703D01*
X179213625Y-44097917D01*
X179164512Y-44259823D01*
X179147928Y-44428200D01*
X179147928Y-44878200D01*
X179164512Y-45046577D01*
X179213625Y-45208483D01*
X179293382Y-45357697D01*
X179351242Y-45428200D01*
X179293382Y-45498703D01*
X179213625Y-45647917D01*
X179164512Y-45809823D01*
X179147928Y-45978200D01*
X179147928Y-46276825D01*
X177341508Y-48083246D01*
X177313462Y-48106263D01*
X177221613Y-48218181D01*
X177153363Y-48345868D01*
X177125268Y-48438484D01*
X177111335Y-48484415D01*
X177097144Y-48628500D01*
X177100700Y-48664605D01*
X177100701Y-54944085D01*
X177097144Y-54980200D01*
X177106102Y-55071156D01*
X173993600Y-51958654D01*
X173993600Y-50670051D01*
X174087186Y-50529989D01*
X174157668Y-50359829D01*
X174193600Y-50179189D01*
X174193600Y-49995011D01*
X174157668Y-49814371D01*
X174087186Y-49644211D01*
X173984862Y-49491072D01*
X173854628Y-49360838D01*
X173701489Y-49258514D01*
X173531329Y-49188032D01*
X173350689Y-49152100D01*
X173166511Y-49152100D01*
X172985871Y-49188032D01*
X172815711Y-49258514D01*
X172662572Y-49360838D01*
X172532338Y-49491072D01*
X172430014Y-49644211D01*
X172359532Y-49814371D01*
X172323600Y-49995011D01*
X172323600Y-50179189D01*
X172359532Y-50359829D01*
X172430014Y-50529989D01*
X172523600Y-50670051D01*
X172523601Y-52226985D01*
X172520044Y-52263100D01*
X172534235Y-52407185D01*
X172564829Y-52508038D01*
X172576264Y-52545733D01*
X172644514Y-52673420D01*
X172736363Y-52785338D01*
X172764408Y-52808354D01*
X178778446Y-58822393D01*
X178801462Y-58850438D01*
X178829506Y-58873453D01*
X178913380Y-58942287D01*
X179041066Y-59010537D01*
X179172928Y-59050537D01*
X179172928Y-59403200D01*
X179185188Y-59527682D01*
X179185345Y-59528200D01*
X179185188Y-59528718D01*
X179172928Y-59653200D01*
X179172928Y-59993200D01*
X176415347Y-59993200D01*
X172031559Y-55609413D01*
X172008538Y-55581362D01*
X171896620Y-55489513D01*
X171768933Y-55421263D01*
X171630385Y-55379235D01*
X171522405Y-55368600D01*
X171486300Y-55365044D01*
X171450195Y-55368600D01*
X165648647Y-55368600D01*
X163204200Y-52924154D01*
X163204200Y-46625677D01*
X163238221Y-46648409D01*
X163526673Y-46767889D01*
X163832891Y-46828800D01*
X164145109Y-46828800D01*
X164451327Y-46767889D01*
X164739779Y-46648409D01*
X164999379Y-46474950D01*
X165220150Y-46254179D01*
X165393609Y-45994579D01*
X165513089Y-45706127D01*
X165574000Y-45399909D01*
X165574000Y-45087691D01*
X165522391Y-44828235D01*
X165881756Y-44756753D01*
X166270302Y-44595812D01*
X166492748Y-44447178D01*
X166487183Y-44460614D01*
X166384000Y-44979351D01*
X166384000Y-45508249D01*
X166487183Y-46026986D01*
X166689583Y-46515625D01*
X166983424Y-46955388D01*
X167357412Y-47329376D01*
X167797175Y-47623217D01*
X168130538Y-47761300D01*
X167303135Y-47761300D01*
X167269000Y-47757938D01*
X167234866Y-47761300D01*
X167234865Y-47761300D01*
X167132756Y-47771357D01*
X167001748Y-47811098D01*
X166881011Y-47875633D01*
X166775183Y-47962483D01*
X166688333Y-48068311D01*
X166623798Y-48189048D01*
X166584057Y-48320056D01*
X166570638Y-48456300D01*
X166574001Y-48490445D01*
X166574000Y-51522165D01*
X166570638Y-51556300D01*
X166584057Y-51692544D01*
X166623798Y-51823552D01*
X166688333Y-51944289D01*
X166775183Y-52050117D01*
X166875310Y-52132288D01*
X166881011Y-52136967D01*
X167001748Y-52201502D01*
X167132756Y-52241243D01*
X167269000Y-52254662D01*
X167303134Y-52251300D01*
X170834866Y-52251300D01*
X170869000Y-52254662D01*
X171005244Y-52241243D01*
X171136252Y-52201502D01*
X171256989Y-52136967D01*
X171362817Y-52050117D01*
X171449667Y-51944289D01*
X171514202Y-51823552D01*
X171553943Y-51692544D01*
X171564000Y-51590435D01*
X171564000Y-51590434D01*
X171567362Y-51556300D01*
X171564000Y-51522165D01*
X171564000Y-48490435D01*
X171567362Y-48456300D01*
X171557191Y-48353028D01*
X171553943Y-48320056D01*
X171514202Y-48189048D01*
X171449667Y-48068311D01*
X171435117Y-48050582D01*
X171362817Y-47962483D01*
X171256989Y-47875633D01*
X171136252Y-47811098D01*
X171005244Y-47771357D01*
X170903135Y-47761300D01*
X170903134Y-47761300D01*
X170869000Y-47757938D01*
X170834865Y-47761300D01*
X170007462Y-47761300D01*
X170340825Y-47623217D01*
X170780588Y-47329376D01*
X171154576Y-46955388D01*
X171448417Y-46515625D01*
X171650817Y-46026986D01*
X171754000Y-45508249D01*
X171754000Y-45087691D01*
X172564000Y-45087691D01*
X172564000Y-45399909D01*
X172624911Y-45706127D01*
X172744391Y-45994579D01*
X172917850Y-46254179D01*
X173138621Y-46474950D01*
X173398221Y-46648409D01*
X173686673Y-46767889D01*
X173992891Y-46828800D01*
X174305109Y-46828800D01*
X174611327Y-46767889D01*
X174899779Y-46648409D01*
X175159379Y-46474950D01*
X175380150Y-46254179D01*
X175553609Y-45994579D01*
X175673089Y-45706127D01*
X175734000Y-45399909D01*
X175734000Y-45087691D01*
X175673089Y-44781473D01*
X175553609Y-44493021D01*
X175380150Y-44233421D01*
X175159379Y-44012650D01*
X174899779Y-43839191D01*
X174611327Y-43719711D01*
X174305109Y-43658800D01*
X173992891Y-43658800D01*
X173686673Y-43719711D01*
X173398221Y-43839191D01*
X173138621Y-44012650D01*
X172917850Y-44233421D01*
X172744391Y-44493021D01*
X172624911Y-44781473D01*
X172564000Y-45087691D01*
X171754000Y-45087691D01*
X171754000Y-44979351D01*
X171650817Y-44460614D01*
X171448417Y-43971975D01*
X171154576Y-43532212D01*
X170780588Y-43158224D01*
X170340825Y-42864383D01*
X169852186Y-42661983D01*
X169333449Y-42558800D01*
X168804551Y-42558800D01*
X168285814Y-42661983D01*
X167797175Y-42864383D01*
X167357412Y-43158224D01*
X167342463Y-43173173D01*
X167394000Y-42914079D01*
X167394000Y-42493521D01*
X167311953Y-42081044D01*
X167151012Y-41692498D01*
X166917363Y-41342817D01*
X166619983Y-41045437D01*
X166270302Y-40811788D01*
X165881756Y-40650847D01*
X165469279Y-40568800D01*
X165048721Y-40568800D01*
X164636244Y-40650847D01*
X164247698Y-40811788D01*
X163898017Y-41045437D01*
X163600637Y-41342817D01*
X163366988Y-41692498D01*
X163206047Y-42081044D01*
X163124000Y-42493521D01*
X163124000Y-42914079D01*
X163206047Y-43326556D01*
X163366988Y-43715102D01*
X163404015Y-43770517D01*
X163238221Y-43839191D01*
X162978621Y-44012650D01*
X162952054Y-44039217D01*
X162912089Y-44012514D01*
X162741929Y-43942032D01*
X162561289Y-43906100D01*
X162377111Y-43906100D01*
X162196471Y-43942032D01*
X162026311Y-44012514D01*
X161873172Y-44114838D01*
X161742938Y-44245072D01*
X161640614Y-44398211D01*
X161570132Y-44568371D01*
X161534200Y-44749011D01*
X161534200Y-44933189D01*
X161570132Y-45113829D01*
X161640614Y-45283989D01*
X161734200Y-45424051D01*
X161734201Y-52525441D01*
X161542446Y-52333686D01*
X161028979Y-51990599D01*
X160458446Y-51754276D01*
X159852771Y-51633800D01*
X159235229Y-51633800D01*
X158629554Y-51754276D01*
X158059021Y-51990599D01*
X157545554Y-52333686D01*
X157108886Y-52770354D01*
X156765799Y-53283821D01*
X156529476Y-53854354D01*
X156409000Y-54460029D01*
X156409000Y-55077571D01*
X156529476Y-55683246D01*
X156765799Y-56253779D01*
X157108886Y-56767246D01*
X157545554Y-57203914D01*
X158059021Y-57547001D01*
X158629554Y-57783324D01*
X159235229Y-57903800D01*
X159852771Y-57903800D01*
X160458446Y-57783324D01*
X161028979Y-57547001D01*
X161542446Y-57203914D01*
X161979114Y-56767246D01*
X162322201Y-56253779D01*
X162558524Y-55683246D01*
X162679000Y-55077571D01*
X162679000Y-54477846D01*
X164304753Y-56103600D01*
X162697685Y-57710668D01*
X162532471Y-57743532D01*
X162362311Y-57814014D01*
X162209172Y-57916338D01*
X162078938Y-58046572D01*
X161976614Y-58199711D01*
X161906132Y-58369871D01*
X161870200Y-58550511D01*
X161870200Y-58561300D01*
X160981051Y-58561300D01*
X160840989Y-58467714D01*
X160670829Y-58397232D01*
X160490189Y-58361300D01*
X160306011Y-58361300D01*
X160125371Y-58397232D01*
X159955211Y-58467714D01*
X159802072Y-58570038D01*
X159671838Y-58700272D01*
X159569514Y-58853411D01*
X159499032Y-59023571D01*
X159463100Y-59204211D01*
X159463100Y-59388389D01*
X159499032Y-59569029D01*
X159569514Y-59739189D01*
X159671838Y-59892328D01*
X159802072Y-60022562D01*
X159955211Y-60124886D01*
X160125371Y-60195368D01*
X160306011Y-60231300D01*
X160490189Y-60231300D01*
X160670829Y-60195368D01*
X160840989Y-60124886D01*
X160981051Y-60031300D01*
X163994005Y-60031300D01*
X163898017Y-60095437D01*
X163600637Y-60392817D01*
X163366988Y-60742498D01*
X163206047Y-61131044D01*
X163124000Y-61543521D01*
X163124000Y-61964079D01*
X163206047Y-62376556D01*
X163366988Y-62765102D01*
X163404015Y-62820517D01*
X163238221Y-62889191D01*
X162978621Y-63062650D01*
X162757850Y-63283421D01*
X162584391Y-63543021D01*
X162464911Y-63831473D01*
X162404000Y-64137691D01*
X162404000Y-64449909D01*
X162464911Y-64756127D01*
X162584391Y-65044579D01*
X162757850Y-65304179D01*
X162978621Y-65524950D01*
X163238221Y-65698409D01*
X163526673Y-65817889D01*
X163832891Y-65878800D01*
X164145109Y-65878800D01*
X164451327Y-65817889D01*
X164739779Y-65698409D01*
X164999379Y-65524950D01*
X165220150Y-65304179D01*
X165393609Y-65044579D01*
X165513089Y-64756127D01*
X165574000Y-64449909D01*
X165574000Y-64137691D01*
X165522391Y-63878235D01*
X165881756Y-63806753D01*
X166270302Y-63645812D01*
X166492748Y-63497178D01*
X166487183Y-63510614D01*
X166384000Y-64029351D01*
X166384000Y-64558249D01*
X166487183Y-65076986D01*
X166689583Y-65565625D01*
X166983424Y-66005388D01*
X167357412Y-66379376D01*
X167797175Y-66673217D01*
X168130538Y-66811300D01*
X167303135Y-66811300D01*
X167269000Y-66807938D01*
X167234866Y-66811300D01*
X167234865Y-66811300D01*
X167132756Y-66821357D01*
X167001748Y-66861098D01*
X166881011Y-66925633D01*
X166775183Y-67012483D01*
X166688333Y-67118311D01*
X166623798Y-67239048D01*
X166584057Y-67370056D01*
X166570638Y-67506300D01*
X166574001Y-67540445D01*
X166574000Y-70098600D01*
X156009568Y-70098600D01*
X155664654Y-69753687D01*
X155600586Y-69599011D01*
X155498262Y-69445872D01*
X155368028Y-69315638D01*
X155214889Y-69213314D01*
X155044729Y-69142832D01*
X154864089Y-69106900D01*
X154679911Y-69106900D01*
X154499271Y-69142832D01*
X154329111Y-69213314D01*
X154175972Y-69315638D01*
X154045738Y-69445872D01*
X153943414Y-69599011D01*
X153872932Y-69769171D01*
X153837000Y-69949811D01*
X153837000Y-70133989D01*
X153872932Y-70314629D01*
X153943414Y-70484789D01*
X154045738Y-70637928D01*
X154175972Y-70768162D01*
X154329111Y-70870486D01*
X154483787Y-70934554D01*
X154928055Y-71378823D01*
X142311799Y-71378823D01*
X142176193Y-71365527D01*
X142076530Y-71335437D01*
X141984605Y-71286560D01*
X141903926Y-71220759D01*
X141837566Y-71140544D01*
X141788049Y-71048963D01*
X141757263Y-70949511D01*
X141743231Y-70816007D01*
X141743231Y-45087691D01*
X143354000Y-45087691D01*
X143354000Y-45399909D01*
X143414911Y-45706127D01*
X143534391Y-45994579D01*
X143707850Y-46254179D01*
X143928621Y-46474950D01*
X144188221Y-46648409D01*
X144476673Y-46767889D01*
X144782891Y-46828800D01*
X145095109Y-46828800D01*
X145401327Y-46767889D01*
X145689779Y-46648409D01*
X145949379Y-46474950D01*
X146170150Y-46254179D01*
X146343609Y-45994579D01*
X146463089Y-45706127D01*
X146524000Y-45399909D01*
X146524000Y-45087691D01*
X146472391Y-44828235D01*
X146831756Y-44756753D01*
X147220302Y-44595812D01*
X147442748Y-44447178D01*
X147437183Y-44460614D01*
X147334000Y-44979351D01*
X147334000Y-45508249D01*
X147437183Y-46026986D01*
X147639583Y-46515625D01*
X147933424Y-46955388D01*
X148307412Y-47329376D01*
X148747175Y-47623217D01*
X149080538Y-47761300D01*
X148253135Y-47761300D01*
X148219000Y-47757938D01*
X148184866Y-47761300D01*
X148184865Y-47761300D01*
X148082756Y-47771357D01*
X147951748Y-47811098D01*
X147831011Y-47875633D01*
X147725183Y-47962483D01*
X147638333Y-48068311D01*
X147573798Y-48189048D01*
X147534057Y-48320056D01*
X147520638Y-48456300D01*
X147524001Y-48490445D01*
X147524000Y-50760029D01*
X147410871Y-50782532D01*
X147240711Y-50853014D01*
X147087572Y-50955338D01*
X146957338Y-51085572D01*
X146855014Y-51238711D01*
X146784532Y-51408871D01*
X146748600Y-51589511D01*
X146748600Y-51773689D01*
X146784532Y-51954329D01*
X146855014Y-52124489D01*
X146948600Y-52264551D01*
X146948601Y-57615385D01*
X146945044Y-57651500D01*
X146959235Y-57795585D01*
X146995866Y-57916338D01*
X147001264Y-57934133D01*
X147069514Y-58061820D01*
X147161363Y-58173738D01*
X147189408Y-58196754D01*
X150680414Y-61687761D01*
X150283449Y-61608800D01*
X149754551Y-61608800D01*
X149235814Y-61711983D01*
X148747175Y-61914383D01*
X148307412Y-62208224D01*
X148292463Y-62223173D01*
X148344000Y-61964079D01*
X148344000Y-61543521D01*
X148261953Y-61131044D01*
X148101012Y-60742498D01*
X147867363Y-60392817D01*
X147569983Y-60095437D01*
X147220302Y-59861788D01*
X146831756Y-59700847D01*
X146419279Y-59618800D01*
X145998721Y-59618800D01*
X145586244Y-59700847D01*
X145197698Y-59861788D01*
X144848017Y-60095437D01*
X144550637Y-60392817D01*
X144316988Y-60742498D01*
X144156047Y-61131044D01*
X144074000Y-61543521D01*
X144074000Y-61964079D01*
X144156047Y-62376556D01*
X144316988Y-62765102D01*
X144354015Y-62820517D01*
X144188221Y-62889191D01*
X143928621Y-63062650D01*
X143707850Y-63283421D01*
X143534391Y-63543021D01*
X143414911Y-63831473D01*
X143354000Y-64137691D01*
X143354000Y-64449909D01*
X143414911Y-64756127D01*
X143534391Y-65044579D01*
X143707850Y-65304179D01*
X143928621Y-65524950D01*
X144188221Y-65698409D01*
X144476673Y-65817889D01*
X144782891Y-65878800D01*
X145095109Y-65878800D01*
X145401327Y-65817889D01*
X145689779Y-65698409D01*
X145949379Y-65524950D01*
X146170150Y-65304179D01*
X146343609Y-65044579D01*
X146463089Y-64756127D01*
X146524000Y-64449909D01*
X146524000Y-64137691D01*
X146472391Y-63878235D01*
X146831756Y-63806753D01*
X147220302Y-63645812D01*
X147442748Y-63497178D01*
X147437183Y-63510614D01*
X147334000Y-64029351D01*
X147334000Y-64558249D01*
X147437183Y-65076986D01*
X147639583Y-65565625D01*
X147933424Y-66005388D01*
X148307412Y-66379376D01*
X148747175Y-66673217D01*
X149080538Y-66811300D01*
X148253135Y-66811300D01*
X148219000Y-66807938D01*
X148184866Y-66811300D01*
X148184865Y-66811300D01*
X148082756Y-66821357D01*
X147951748Y-66861098D01*
X147831011Y-66925633D01*
X147725183Y-67012483D01*
X147638333Y-67118311D01*
X147573798Y-67239048D01*
X147534057Y-67370056D01*
X147520638Y-67506300D01*
X147524001Y-67540445D01*
X147524000Y-70572165D01*
X147520638Y-70606300D01*
X147534057Y-70742544D01*
X147573798Y-70873552D01*
X147638333Y-70994289D01*
X147725183Y-71100117D01*
X147825392Y-71182356D01*
X147831011Y-71186967D01*
X147951748Y-71251502D01*
X148082756Y-71291243D01*
X148219000Y-71304662D01*
X148253134Y-71301300D01*
X151784866Y-71301300D01*
X151819000Y-71304662D01*
X151955244Y-71291243D01*
X152086252Y-71251502D01*
X152206989Y-71186967D01*
X152312817Y-71100117D01*
X152399667Y-70994289D01*
X152464202Y-70873552D01*
X152503943Y-70742544D01*
X152514000Y-70640435D01*
X152514000Y-70640434D01*
X152517362Y-70606300D01*
X152514000Y-70572165D01*
X152514000Y-67540435D01*
X152517362Y-67506300D01*
X152503943Y-67370056D01*
X152464202Y-67239048D01*
X152399667Y-67118311D01*
X152312817Y-67012483D01*
X152206989Y-66925633D01*
X152086252Y-66861098D01*
X151955244Y-66821357D01*
X151853135Y-66811300D01*
X151853134Y-66811300D01*
X151819000Y-66807938D01*
X151784865Y-66811300D01*
X150957462Y-66811300D01*
X151290825Y-66673217D01*
X151730588Y-66379376D01*
X152104576Y-66005388D01*
X152398417Y-65565625D01*
X152600817Y-65076986D01*
X152704000Y-64558249D01*
X152704000Y-64137691D01*
X153514000Y-64137691D01*
X153514000Y-64449909D01*
X153574911Y-64756127D01*
X153694391Y-65044579D01*
X153867850Y-65304179D01*
X154088621Y-65524950D01*
X154348221Y-65698409D01*
X154636673Y-65817889D01*
X154942891Y-65878800D01*
X155255109Y-65878800D01*
X155561327Y-65817889D01*
X155849779Y-65698409D01*
X156109379Y-65524950D01*
X156330150Y-65304179D01*
X156503609Y-65044579D01*
X156623089Y-64756127D01*
X156684000Y-64449909D01*
X156684000Y-64137691D01*
X156623089Y-63831473D01*
X156503609Y-63543021D01*
X156330150Y-63283421D01*
X156109379Y-63062650D01*
X155849779Y-62889191D01*
X155561327Y-62769711D01*
X155255109Y-62708800D01*
X154942891Y-62708800D01*
X154636673Y-62769711D01*
X154348221Y-62889191D01*
X154088621Y-63062650D01*
X153867850Y-63283421D01*
X153694391Y-63543021D01*
X153574911Y-63831473D01*
X153514000Y-64137691D01*
X152704000Y-64137691D01*
X152704000Y-64029351D01*
X152600817Y-63510614D01*
X152398417Y-63021975D01*
X152329350Y-62918609D01*
X152495989Y-62849586D01*
X152649128Y-62747262D01*
X152779362Y-62617028D01*
X152881686Y-62463889D01*
X152952168Y-62293729D01*
X152988100Y-62113089D01*
X152988100Y-61928911D01*
X152952168Y-61748271D01*
X152881686Y-61578111D01*
X152779362Y-61424972D01*
X152703190Y-61348800D01*
X152769279Y-61348800D01*
X153181756Y-61266753D01*
X153570302Y-61105812D01*
X153919983Y-60872163D01*
X154217363Y-60574783D01*
X154451012Y-60225102D01*
X154611953Y-59836556D01*
X154694000Y-59424079D01*
X154694000Y-59003521D01*
X154611953Y-58591044D01*
X154451012Y-58202498D01*
X154217363Y-57852817D01*
X153919983Y-57555437D01*
X153570302Y-57321788D01*
X153181756Y-57160847D01*
X152769279Y-57078800D01*
X152348721Y-57078800D01*
X151936244Y-57160847D01*
X151547698Y-57321788D01*
X151198017Y-57555437D01*
X150900637Y-57852817D01*
X150666988Y-58202498D01*
X150506047Y-58591044D01*
X150424000Y-59003521D01*
X150424000Y-59352453D01*
X148418600Y-57347054D01*
X148418600Y-52264551D01*
X148427454Y-52251300D01*
X151784866Y-52251300D01*
X151819000Y-52254662D01*
X151955244Y-52241243D01*
X152086252Y-52201502D01*
X152206989Y-52136967D01*
X152312817Y-52050117D01*
X152399667Y-51944289D01*
X152464202Y-51823552D01*
X152503943Y-51692544D01*
X152514000Y-51590435D01*
X152514000Y-51590434D01*
X152517362Y-51556300D01*
X152514000Y-51522165D01*
X152514000Y-48490435D01*
X152517362Y-48456300D01*
X152507191Y-48353028D01*
X152503943Y-48320056D01*
X152464202Y-48189048D01*
X152399667Y-48068311D01*
X152385117Y-48050582D01*
X152312817Y-47962483D01*
X152206989Y-47875633D01*
X152086252Y-47811098D01*
X151955244Y-47771357D01*
X151853135Y-47761300D01*
X151853134Y-47761300D01*
X151819000Y-47757938D01*
X151784865Y-47761300D01*
X150957462Y-47761300D01*
X151290825Y-47623217D01*
X151730588Y-47329376D01*
X152104576Y-46955388D01*
X152398417Y-46515625D01*
X152600817Y-46026986D01*
X152704000Y-45508249D01*
X152704000Y-45087691D01*
X153514000Y-45087691D01*
X153514000Y-45399909D01*
X153574911Y-45706127D01*
X153694391Y-45994579D01*
X153867850Y-46254179D01*
X154088621Y-46474950D01*
X154348221Y-46648409D01*
X154636673Y-46767889D01*
X154942891Y-46828800D01*
X155255109Y-46828800D01*
X155561327Y-46767889D01*
X155849779Y-46648409D01*
X156109379Y-46474950D01*
X156330150Y-46254179D01*
X156503609Y-45994579D01*
X156623089Y-45706127D01*
X156684000Y-45399909D01*
X156684000Y-45087691D01*
X156623089Y-44781473D01*
X156503609Y-44493021D01*
X156330150Y-44233421D01*
X156109379Y-44012650D01*
X155849779Y-43839191D01*
X155561327Y-43719711D01*
X155255109Y-43658800D01*
X154942891Y-43658800D01*
X154636673Y-43719711D01*
X154348221Y-43839191D01*
X154088621Y-44012650D01*
X153867850Y-44233421D01*
X153694391Y-44493021D01*
X153574911Y-44781473D01*
X153514000Y-45087691D01*
X152704000Y-45087691D01*
X152704000Y-44979351D01*
X152600817Y-44460614D01*
X152398417Y-43971975D01*
X152104576Y-43532212D01*
X151730588Y-43158224D01*
X151290825Y-42864383D01*
X150802186Y-42661983D01*
X150283449Y-42558800D01*
X149754551Y-42558800D01*
X149235814Y-42661983D01*
X148747175Y-42864383D01*
X148307412Y-43158224D01*
X148292463Y-43173173D01*
X148344000Y-42914079D01*
X148344000Y-42493521D01*
X148261953Y-42081044D01*
X148101012Y-41692498D01*
X147867363Y-41342817D01*
X147569983Y-41045437D01*
X147220302Y-40811788D01*
X146831756Y-40650847D01*
X146419279Y-40568800D01*
X145998721Y-40568800D01*
X145586244Y-40650847D01*
X145197698Y-40811788D01*
X144848017Y-41045437D01*
X144550637Y-41342817D01*
X144316988Y-41692498D01*
X144156047Y-42081044D01*
X144074000Y-42493521D01*
X144074000Y-42914079D01*
X144156047Y-43326556D01*
X144316988Y-43715102D01*
X144354015Y-43770517D01*
X144188221Y-43839191D01*
X143928621Y-44012650D01*
X143707850Y-44233421D01*
X143534391Y-44493021D01*
X143414911Y-44781473D01*
X143354000Y-45087691D01*
X141743231Y-45087691D01*
X141743231Y-39322642D01*
X141767865Y-39071414D01*
X141831537Y-38860521D01*
X141934958Y-38666016D01*
X142074192Y-38495298D01*
X142243927Y-38354881D01*
X142437714Y-38250101D01*
X142648152Y-38184960D01*
X142897345Y-38158769D01*
X151820550Y-38158769D01*
X151547698Y-38271788D01*
X151198017Y-38505437D01*
X150900637Y-38802817D01*
X150666988Y-39152498D01*
X150506047Y-39541044D01*
X150424000Y-39953521D01*
X150424000Y-40374079D01*
X150506047Y-40786556D01*
X150666988Y-41175102D01*
X150900637Y-41524783D01*
X151198017Y-41822163D01*
X151547698Y-42055812D01*
X151936244Y-42216753D01*
X152348721Y-42298800D01*
X152769279Y-42298800D01*
X153181756Y-42216753D01*
X153570302Y-42055812D01*
X153919983Y-41822163D01*
X154217363Y-41524783D01*
X154451012Y-41175102D01*
X154611953Y-40786556D01*
X154694000Y-40374079D01*
X154694000Y-39953521D01*
X154611953Y-39541044D01*
X154451012Y-39152498D01*
X154217363Y-38802817D01*
X153919983Y-38505437D01*
X153570302Y-38271788D01*
X153297450Y-38158769D01*
X170870550Y-38158769D01*
X170597698Y-38271788D01*
X170248017Y-38505437D01*
X169950637Y-38802817D01*
X169716988Y-39152498D01*
X169556047Y-39541044D01*
X169474000Y-39953521D01*
X169474000Y-40374079D01*
X169556047Y-40786556D01*
X169716988Y-41175102D01*
X169950637Y-41524783D01*
X170248017Y-41822163D01*
X170597698Y-42055812D01*
X170986244Y-42216753D01*
X171398721Y-42298800D01*
X171819279Y-42298800D01*
X172231756Y-42216753D01*
X172620302Y-42055812D01*
X172969983Y-41822163D01*
X173267363Y-41524783D01*
X173501012Y-41175102D01*
X173661953Y-40786556D01*
X173744000Y-40374079D01*
X173744000Y-39953521D01*
X173661953Y-39541044D01*
X173501012Y-39152498D01*
X173267363Y-38802817D01*
X172969983Y-38505437D01*
X172620302Y-38271788D01*
X172347450Y-38158769D01*
X178626025Y-38158769D01*
X178722116Y-38149305D01*
X178845405Y-38111906D01*
X178959029Y-38051172D01*
X179058620Y-37969439D01*
X179140353Y-37869848D01*
X179201087Y-37756224D01*
X179238486Y-37632935D01*
X179251114Y-37504719D01*
X179251100Y-37504578D01*
X179272584Y-37285475D01*
X179336256Y-37074582D01*
X179439677Y-36880077D01*
X179578911Y-36709359D01*
X179622289Y-36673474D01*
X179589992Y-36779944D01*
%TA.AperFunction,NonConductor*%
D25*
G36*
X179589992Y-36779944D02*
G01*
X179572928Y-36953198D01*
X179572928Y-37478202D01*
X179589992Y-37651456D01*
X179640528Y-37818052D01*
X179722595Y-37971587D01*
X179833038Y-38106162D01*
X179859891Y-38128200D01*
X179833038Y-38150238D01*
X179722595Y-38284813D01*
X179640528Y-38438348D01*
X179589992Y-38604944D01*
X179572928Y-38778198D01*
X179572928Y-39303202D01*
X179589992Y-39476456D01*
X179640528Y-39643052D01*
X179722595Y-39796587D01*
X179833038Y-39931162D01*
X179967613Y-40041605D01*
X180121148Y-40123672D01*
X180287744Y-40174208D01*
X180460998Y-40191272D01*
X181361002Y-40191272D01*
X181534256Y-40174208D01*
X181700852Y-40123672D01*
X181854387Y-40041605D01*
X181988962Y-39931162D01*
X182099405Y-39796587D01*
X182110569Y-39775700D01*
X183099573Y-39775700D01*
X183004554Y-39804524D01*
X182807378Y-39909916D01*
X182634552Y-40051751D01*
X182492717Y-40224577D01*
X182387324Y-40421753D01*
X182322423Y-40635701D01*
X182306000Y-40802448D01*
X182306000Y-42013951D01*
X182322423Y-42180698D01*
X182387324Y-42394646D01*
X182479164Y-42566468D01*
X181227433Y-43818200D01*
X181121517Y-43818200D01*
X181121284Y-43817916D01*
X180990497Y-43710582D01*
X180841283Y-43630825D01*
X180679377Y-43581712D01*
X180511000Y-43565128D01*
X180011000Y-43565128D01*
X179842623Y-43581712D01*
X179680717Y-43630825D01*
X179531503Y-43710582D01*
X179400716Y-43817916D01*
X179293382Y-43948703D01*
X179213625Y-44097917D01*
X179164512Y-44259823D01*
X179147928Y-44428200D01*
X179147928Y-44878200D01*
X179164512Y-45046577D01*
X179213625Y-45208483D01*
X179293382Y-45357697D01*
X179351242Y-45428200D01*
X179293382Y-45498703D01*
X179213625Y-45647917D01*
X179164512Y-45809823D01*
X179147928Y-45978200D01*
X179147928Y-46276825D01*
X177341508Y-48083246D01*
X177313462Y-48106263D01*
X177221613Y-48218181D01*
X177153363Y-48345868D01*
X177125268Y-48438484D01*
X177111335Y-48484415D01*
X177097144Y-48628500D01*
X177100700Y-48664605D01*
X177100701Y-54944085D01*
X177097144Y-54980200D01*
X177106102Y-55071156D01*
X173993600Y-51958654D01*
X173993600Y-50670051D01*
X174087186Y-50529989D01*
X174157668Y-50359829D01*
X174193600Y-50179189D01*
X174193600Y-49995011D01*
X174157668Y-49814371D01*
X174087186Y-49644211D01*
X173984862Y-49491072D01*
X173854628Y-49360838D01*
X173701489Y-49258514D01*
X173531329Y-49188032D01*
X173350689Y-49152100D01*
X173166511Y-49152100D01*
X172985871Y-49188032D01*
X172815711Y-49258514D01*
X172662572Y-49360838D01*
X172532338Y-49491072D01*
X172430014Y-49644211D01*
X172359532Y-49814371D01*
X172323600Y-49995011D01*
X172323600Y-50179189D01*
X172359532Y-50359829D01*
X172430014Y-50529989D01*
X172523600Y-50670051D01*
X172523601Y-52226985D01*
X172520044Y-52263100D01*
X172534235Y-52407185D01*
X172564829Y-52508038D01*
X172576264Y-52545733D01*
X172644514Y-52673420D01*
X172736363Y-52785338D01*
X172764408Y-52808354D01*
X178778446Y-58822393D01*
X178801462Y-58850438D01*
X178829506Y-58873453D01*
X178913380Y-58942287D01*
X179041066Y-59010537D01*
X179172928Y-59050537D01*
X179172928Y-59403200D01*
X179185188Y-59527682D01*
X179185345Y-59528200D01*
X179185188Y-59528718D01*
X179172928Y-59653200D01*
X179172928Y-59993200D01*
X176415347Y-59993200D01*
X172031559Y-55609413D01*
X172008538Y-55581362D01*
X171896620Y-55489513D01*
X171768933Y-55421263D01*
X171630385Y-55379235D01*
X171522405Y-55368600D01*
X171486300Y-55365044D01*
X171450195Y-55368600D01*
X165648647Y-55368600D01*
X163204200Y-52924154D01*
X163204200Y-46625677D01*
X163238221Y-46648409D01*
X163526673Y-46767889D01*
X163832891Y-46828800D01*
X164145109Y-46828800D01*
X164451327Y-46767889D01*
X164739779Y-46648409D01*
X164999379Y-46474950D01*
X165220150Y-46254179D01*
X165393609Y-45994579D01*
X165513089Y-45706127D01*
X165574000Y-45399909D01*
X165574000Y-45087691D01*
X165522391Y-44828235D01*
X165881756Y-44756753D01*
X166270302Y-44595812D01*
X166492748Y-44447178D01*
X166487183Y-44460614D01*
X166384000Y-44979351D01*
X166384000Y-45508249D01*
X166487183Y-46026986D01*
X166689583Y-46515625D01*
X166983424Y-46955388D01*
X167357412Y-47329376D01*
X167797175Y-47623217D01*
X168130538Y-47761300D01*
X167303135Y-47761300D01*
X167269000Y-47757938D01*
X167234866Y-47761300D01*
X167234865Y-47761300D01*
X167132756Y-47771357D01*
X167001748Y-47811098D01*
X166881011Y-47875633D01*
X166775183Y-47962483D01*
X166688333Y-48068311D01*
X166623798Y-48189048D01*
X166584057Y-48320056D01*
X166570638Y-48456300D01*
X166574001Y-48490445D01*
X166574000Y-51522165D01*
X166570638Y-51556300D01*
X166584057Y-51692544D01*
X166623798Y-51823552D01*
X166688333Y-51944289D01*
X166775183Y-52050117D01*
X166875310Y-52132288D01*
X166881011Y-52136967D01*
X167001748Y-52201502D01*
X167132756Y-52241243D01*
X167269000Y-52254662D01*
X167303134Y-52251300D01*
X170834866Y-52251300D01*
X170869000Y-52254662D01*
X171005244Y-52241243D01*
X171136252Y-52201502D01*
X171256989Y-52136967D01*
X171362817Y-52050117D01*
X171449667Y-51944289D01*
X171514202Y-51823552D01*
X171553943Y-51692544D01*
X171564000Y-51590435D01*
X171564000Y-51590434D01*
X171567362Y-51556300D01*
X171564000Y-51522165D01*
X171564000Y-48490435D01*
X171567362Y-48456300D01*
X171557191Y-48353028D01*
X171553943Y-48320056D01*
X171514202Y-48189048D01*
X171449667Y-48068311D01*
X171435117Y-48050582D01*
X171362817Y-47962483D01*
X171256989Y-47875633D01*
X171136252Y-47811098D01*
X171005244Y-47771357D01*
X170903135Y-47761300D01*
X170903134Y-47761300D01*
X170869000Y-47757938D01*
X170834865Y-47761300D01*
X170007462Y-47761300D01*
X170340825Y-47623217D01*
X170780588Y-47329376D01*
X171154576Y-46955388D01*
X171448417Y-46515625D01*
X171650817Y-46026986D01*
X171754000Y-45508249D01*
X171754000Y-45087691D01*
X172564000Y-45087691D01*
X172564000Y-45399909D01*
X172624911Y-45706127D01*
X172744391Y-45994579D01*
X172917850Y-46254179D01*
X173138621Y-46474950D01*
X173398221Y-46648409D01*
X173686673Y-46767889D01*
X173992891Y-46828800D01*
X174305109Y-46828800D01*
X174611327Y-46767889D01*
X174899779Y-46648409D01*
X175159379Y-46474950D01*
X175380150Y-46254179D01*
X175553609Y-45994579D01*
X175673089Y-45706127D01*
X175734000Y-45399909D01*
X175734000Y-45087691D01*
X175673089Y-44781473D01*
X175553609Y-44493021D01*
X175380150Y-44233421D01*
X175159379Y-44012650D01*
X174899779Y-43839191D01*
X174611327Y-43719711D01*
X174305109Y-43658800D01*
X173992891Y-43658800D01*
X173686673Y-43719711D01*
X173398221Y-43839191D01*
X173138621Y-44012650D01*
X172917850Y-44233421D01*
X172744391Y-44493021D01*
X172624911Y-44781473D01*
X172564000Y-45087691D01*
X171754000Y-45087691D01*
X171754000Y-44979351D01*
X171650817Y-44460614D01*
X171448417Y-43971975D01*
X171154576Y-43532212D01*
X170780588Y-43158224D01*
X170340825Y-42864383D01*
X169852186Y-42661983D01*
X169333449Y-42558800D01*
X168804551Y-42558800D01*
X168285814Y-42661983D01*
X167797175Y-42864383D01*
X167357412Y-43158224D01*
X167342463Y-43173173D01*
X167394000Y-42914079D01*
X167394000Y-42493521D01*
X167311953Y-42081044D01*
X167151012Y-41692498D01*
X166917363Y-41342817D01*
X166619983Y-41045437D01*
X166270302Y-40811788D01*
X165881756Y-40650847D01*
X165469279Y-40568800D01*
X165048721Y-40568800D01*
X164636244Y-40650847D01*
X164247698Y-40811788D01*
X163898017Y-41045437D01*
X163600637Y-41342817D01*
X163366988Y-41692498D01*
X163206047Y-42081044D01*
X163124000Y-42493521D01*
X163124000Y-42914079D01*
X163206047Y-43326556D01*
X163366988Y-43715102D01*
X163404015Y-43770517D01*
X163238221Y-43839191D01*
X162978621Y-44012650D01*
X162952054Y-44039217D01*
X162912089Y-44012514D01*
X162741929Y-43942032D01*
X162561289Y-43906100D01*
X162377111Y-43906100D01*
X162196471Y-43942032D01*
X162026311Y-44012514D01*
X161873172Y-44114838D01*
X161742938Y-44245072D01*
X161640614Y-44398211D01*
X161570132Y-44568371D01*
X161534200Y-44749011D01*
X161534200Y-44933189D01*
X161570132Y-45113829D01*
X161640614Y-45283989D01*
X161734200Y-45424051D01*
X161734201Y-52525441D01*
X161542446Y-52333686D01*
X161028979Y-51990599D01*
X160458446Y-51754276D01*
X159852771Y-51633800D01*
X159235229Y-51633800D01*
X158629554Y-51754276D01*
X158059021Y-51990599D01*
X157545554Y-52333686D01*
X157108886Y-52770354D01*
X156765799Y-53283821D01*
X156529476Y-53854354D01*
X156409000Y-54460029D01*
X156409000Y-55077571D01*
X156529476Y-55683246D01*
X156765799Y-56253779D01*
X157108886Y-56767246D01*
X157545554Y-57203914D01*
X158059021Y-57547001D01*
X158629554Y-57783324D01*
X159235229Y-57903800D01*
X159852771Y-57903800D01*
X160458446Y-57783324D01*
X161028979Y-57547001D01*
X161542446Y-57203914D01*
X161979114Y-56767246D01*
X162322201Y-56253779D01*
X162558524Y-55683246D01*
X162679000Y-55077571D01*
X162679000Y-54477846D01*
X164304753Y-56103600D01*
X162697685Y-57710668D01*
X162532471Y-57743532D01*
X162362311Y-57814014D01*
X162209172Y-57916338D01*
X162078938Y-58046572D01*
X161976614Y-58199711D01*
X161906132Y-58369871D01*
X161870200Y-58550511D01*
X161870200Y-58561300D01*
X160981051Y-58561300D01*
X160840989Y-58467714D01*
X160670829Y-58397232D01*
X160490189Y-58361300D01*
X160306011Y-58361300D01*
X160125371Y-58397232D01*
X159955211Y-58467714D01*
X159802072Y-58570038D01*
X159671838Y-58700272D01*
X159569514Y-58853411D01*
X159499032Y-59023571D01*
X159463100Y-59204211D01*
X159463100Y-59388389D01*
X159499032Y-59569029D01*
X159569514Y-59739189D01*
X159671838Y-59892328D01*
X159802072Y-60022562D01*
X159955211Y-60124886D01*
X160125371Y-60195368D01*
X160306011Y-60231300D01*
X160490189Y-60231300D01*
X160670829Y-60195368D01*
X160840989Y-60124886D01*
X160981051Y-60031300D01*
X163994005Y-60031300D01*
X163898017Y-60095437D01*
X163600637Y-60392817D01*
X163366988Y-60742498D01*
X163206047Y-61131044D01*
X163124000Y-61543521D01*
X163124000Y-61964079D01*
X163206047Y-62376556D01*
X163366988Y-62765102D01*
X163404015Y-62820517D01*
X163238221Y-62889191D01*
X162978621Y-63062650D01*
X162757850Y-63283421D01*
X162584391Y-63543021D01*
X162464911Y-63831473D01*
X162404000Y-64137691D01*
X162404000Y-64449909D01*
X162464911Y-64756127D01*
X162584391Y-65044579D01*
X162757850Y-65304179D01*
X162978621Y-65524950D01*
X163238221Y-65698409D01*
X163526673Y-65817889D01*
X163832891Y-65878800D01*
X164145109Y-65878800D01*
X164451327Y-65817889D01*
X164739779Y-65698409D01*
X164999379Y-65524950D01*
X165220150Y-65304179D01*
X165393609Y-65044579D01*
X165513089Y-64756127D01*
X165574000Y-64449909D01*
X165574000Y-64137691D01*
X165522391Y-63878235D01*
X165881756Y-63806753D01*
X166270302Y-63645812D01*
X166492748Y-63497178D01*
X166487183Y-63510614D01*
X166384000Y-64029351D01*
X166384000Y-64558249D01*
X166487183Y-65076986D01*
X166689583Y-65565625D01*
X166983424Y-66005388D01*
X167357412Y-66379376D01*
X167797175Y-66673217D01*
X168130538Y-66811300D01*
X167303135Y-66811300D01*
X167269000Y-66807938D01*
X167234866Y-66811300D01*
X167234865Y-66811300D01*
X167132756Y-66821357D01*
X167001748Y-66861098D01*
X166881011Y-66925633D01*
X166775183Y-67012483D01*
X166688333Y-67118311D01*
X166623798Y-67239048D01*
X166584057Y-67370056D01*
X166570638Y-67506300D01*
X166574001Y-67540445D01*
X166574000Y-70098600D01*
X156009568Y-70098600D01*
X155664654Y-69753687D01*
X155600586Y-69599011D01*
X155498262Y-69445872D01*
X155368028Y-69315638D01*
X155214889Y-69213314D01*
X155044729Y-69142832D01*
X154864089Y-69106900D01*
X154679911Y-69106900D01*
X154499271Y-69142832D01*
X154329111Y-69213314D01*
X154175972Y-69315638D01*
X154045738Y-69445872D01*
X153943414Y-69599011D01*
X153872932Y-69769171D01*
X153837000Y-69949811D01*
X153837000Y-70133989D01*
X153872932Y-70314629D01*
X153943414Y-70484789D01*
X154045738Y-70637928D01*
X154175972Y-70768162D01*
X154329111Y-70870486D01*
X154483787Y-70934554D01*
X154928055Y-71378823D01*
X142311799Y-71378823D01*
X142176193Y-71365527D01*
X142076530Y-71335437D01*
X141984605Y-71286560D01*
X141903926Y-71220759D01*
X141837566Y-71140544D01*
X141788049Y-71048963D01*
X141757263Y-70949511D01*
X141743231Y-70816007D01*
X141743231Y-45087691D01*
X143354000Y-45087691D01*
X143354000Y-45399909D01*
X143414911Y-45706127D01*
X143534391Y-45994579D01*
X143707850Y-46254179D01*
X143928621Y-46474950D01*
X144188221Y-46648409D01*
X144476673Y-46767889D01*
X144782891Y-46828800D01*
X145095109Y-46828800D01*
X145401327Y-46767889D01*
X145689779Y-46648409D01*
X145949379Y-46474950D01*
X146170150Y-46254179D01*
X146343609Y-45994579D01*
X146463089Y-45706127D01*
X146524000Y-45399909D01*
X146524000Y-45087691D01*
X146472391Y-44828235D01*
X146831756Y-44756753D01*
X147220302Y-44595812D01*
X147442748Y-44447178D01*
X147437183Y-44460614D01*
X147334000Y-44979351D01*
X147334000Y-45508249D01*
X147437183Y-46026986D01*
X147639583Y-46515625D01*
X147933424Y-46955388D01*
X148307412Y-47329376D01*
X148747175Y-47623217D01*
X149080538Y-47761300D01*
X148253135Y-47761300D01*
X148219000Y-47757938D01*
X148184866Y-47761300D01*
X148184865Y-47761300D01*
X148082756Y-47771357D01*
X147951748Y-47811098D01*
X147831011Y-47875633D01*
X147725183Y-47962483D01*
X147638333Y-48068311D01*
X147573798Y-48189048D01*
X147534057Y-48320056D01*
X147520638Y-48456300D01*
X147524001Y-48490445D01*
X147524000Y-50760029D01*
X147410871Y-50782532D01*
X147240711Y-50853014D01*
X147087572Y-50955338D01*
X146957338Y-51085572D01*
X146855014Y-51238711D01*
X146784532Y-51408871D01*
X146748600Y-51589511D01*
X146748600Y-51773689D01*
X146784532Y-51954329D01*
X146855014Y-52124489D01*
X146948600Y-52264551D01*
X146948601Y-57615385D01*
X146945044Y-57651500D01*
X146959235Y-57795585D01*
X146995866Y-57916338D01*
X147001264Y-57934133D01*
X147069514Y-58061820D01*
X147161363Y-58173738D01*
X147189408Y-58196754D01*
X150680414Y-61687761D01*
X150283449Y-61608800D01*
X149754551Y-61608800D01*
X149235814Y-61711983D01*
X148747175Y-61914383D01*
X148307412Y-62208224D01*
X148292463Y-62223173D01*
X148344000Y-61964079D01*
X148344000Y-61543521D01*
X148261953Y-61131044D01*
X148101012Y-60742498D01*
X147867363Y-60392817D01*
X147569983Y-60095437D01*
X147220302Y-59861788D01*
X146831756Y-59700847D01*
X146419279Y-59618800D01*
X145998721Y-59618800D01*
X145586244Y-59700847D01*
X145197698Y-59861788D01*
X144848017Y-60095437D01*
X144550637Y-60392817D01*
X144316988Y-60742498D01*
X144156047Y-61131044D01*
X144074000Y-61543521D01*
X144074000Y-61964079D01*
X144156047Y-62376556D01*
X144316988Y-62765102D01*
X144354015Y-62820517D01*
X144188221Y-62889191D01*
X143928621Y-63062650D01*
X143707850Y-63283421D01*
X143534391Y-63543021D01*
X143414911Y-63831473D01*
X143354000Y-64137691D01*
X143354000Y-64449909D01*
X143414911Y-64756127D01*
X143534391Y-65044579D01*
X143707850Y-65304179D01*
X143928621Y-65524950D01*
X144188221Y-65698409D01*
X144476673Y-65817889D01*
X144782891Y-65878800D01*
X145095109Y-65878800D01*
X145401327Y-65817889D01*
X145689779Y-65698409D01*
X145949379Y-65524950D01*
X146170150Y-65304179D01*
X146343609Y-65044579D01*
X146463089Y-64756127D01*
X146524000Y-64449909D01*
X146524000Y-64137691D01*
X146472391Y-63878235D01*
X146831756Y-63806753D01*
X147220302Y-63645812D01*
X147442748Y-63497178D01*
X147437183Y-63510614D01*
X147334000Y-64029351D01*
X147334000Y-64558249D01*
X147437183Y-65076986D01*
X147639583Y-65565625D01*
X147933424Y-66005388D01*
X148307412Y-66379376D01*
X148747175Y-66673217D01*
X149080538Y-66811300D01*
X148253135Y-66811300D01*
X148219000Y-66807938D01*
X148184866Y-66811300D01*
X148184865Y-66811300D01*
X148082756Y-66821357D01*
X147951748Y-66861098D01*
X147831011Y-66925633D01*
X147725183Y-67012483D01*
X147638333Y-67118311D01*
X147573798Y-67239048D01*
X147534057Y-67370056D01*
X147520638Y-67506300D01*
X147524001Y-67540445D01*
X147524000Y-70572165D01*
X147520638Y-70606300D01*
X147534057Y-70742544D01*
X147573798Y-70873552D01*
X147638333Y-70994289D01*
X147725183Y-71100117D01*
X147825392Y-71182356D01*
X147831011Y-71186967D01*
X147951748Y-71251502D01*
X148082756Y-71291243D01*
X148219000Y-71304662D01*
X148253134Y-71301300D01*
X151784866Y-71301300D01*
X151819000Y-71304662D01*
X151955244Y-71291243D01*
X152086252Y-71251502D01*
X152206989Y-71186967D01*
X152312817Y-71100117D01*
X152399667Y-70994289D01*
X152464202Y-70873552D01*
X152503943Y-70742544D01*
X152514000Y-70640435D01*
X152514000Y-70640434D01*
X152517362Y-70606300D01*
X152514000Y-70572165D01*
X152514000Y-67540435D01*
X152517362Y-67506300D01*
X152503943Y-67370056D01*
X152464202Y-67239048D01*
X152399667Y-67118311D01*
X152312817Y-67012483D01*
X152206989Y-66925633D01*
X152086252Y-66861098D01*
X151955244Y-66821357D01*
X151853135Y-66811300D01*
X151853134Y-66811300D01*
X151819000Y-66807938D01*
X151784865Y-66811300D01*
X150957462Y-66811300D01*
X151290825Y-66673217D01*
X151730588Y-66379376D01*
X152104576Y-66005388D01*
X152398417Y-65565625D01*
X152600817Y-65076986D01*
X152704000Y-64558249D01*
X152704000Y-64137691D01*
X153514000Y-64137691D01*
X153514000Y-64449909D01*
X153574911Y-64756127D01*
X153694391Y-65044579D01*
X153867850Y-65304179D01*
X154088621Y-65524950D01*
X154348221Y-65698409D01*
X154636673Y-65817889D01*
X154942891Y-65878800D01*
X155255109Y-65878800D01*
X155561327Y-65817889D01*
X155849779Y-65698409D01*
X156109379Y-65524950D01*
X156330150Y-65304179D01*
X156503609Y-65044579D01*
X156623089Y-64756127D01*
X156684000Y-64449909D01*
X156684000Y-64137691D01*
X156623089Y-63831473D01*
X156503609Y-63543021D01*
X156330150Y-63283421D01*
X156109379Y-63062650D01*
X155849779Y-62889191D01*
X155561327Y-62769711D01*
X155255109Y-62708800D01*
X154942891Y-62708800D01*
X154636673Y-62769711D01*
X154348221Y-62889191D01*
X154088621Y-63062650D01*
X153867850Y-63283421D01*
X153694391Y-63543021D01*
X153574911Y-63831473D01*
X153514000Y-64137691D01*
X152704000Y-64137691D01*
X152704000Y-64029351D01*
X152600817Y-63510614D01*
X152398417Y-63021975D01*
X152329350Y-62918609D01*
X152495989Y-62849586D01*
X152649128Y-62747262D01*
X152779362Y-62617028D01*
X152881686Y-62463889D01*
X152952168Y-62293729D01*
X152988100Y-62113089D01*
X152988100Y-61928911D01*
X152952168Y-61748271D01*
X152881686Y-61578111D01*
X152779362Y-61424972D01*
X152703190Y-61348800D01*
X152769279Y-61348800D01*
X153181756Y-61266753D01*
X153570302Y-61105812D01*
X153919983Y-60872163D01*
X154217363Y-60574783D01*
X154451012Y-60225102D01*
X154611953Y-59836556D01*
X154694000Y-59424079D01*
X154694000Y-59003521D01*
X154611953Y-58591044D01*
X154451012Y-58202498D01*
X154217363Y-57852817D01*
X153919983Y-57555437D01*
X153570302Y-57321788D01*
X153181756Y-57160847D01*
X152769279Y-57078800D01*
X152348721Y-57078800D01*
X151936244Y-57160847D01*
X151547698Y-57321788D01*
X151198017Y-57555437D01*
X150900637Y-57852817D01*
X150666988Y-58202498D01*
X150506047Y-58591044D01*
X150424000Y-59003521D01*
X150424000Y-59352453D01*
X148418600Y-57347054D01*
X148418600Y-52264551D01*
X148427454Y-52251300D01*
X151784866Y-52251300D01*
X151819000Y-52254662D01*
X151955244Y-52241243D01*
X152086252Y-52201502D01*
X152206989Y-52136967D01*
X152312817Y-52050117D01*
X152399667Y-51944289D01*
X152464202Y-51823552D01*
X152503943Y-51692544D01*
X152514000Y-51590435D01*
X152514000Y-51590434D01*
X152517362Y-51556300D01*
X152514000Y-51522165D01*
X152514000Y-48490435D01*
X152517362Y-48456300D01*
X152507191Y-48353028D01*
X152503943Y-48320056D01*
X152464202Y-48189048D01*
X152399667Y-48068311D01*
X152385117Y-48050582D01*
X152312817Y-47962483D01*
X152206989Y-47875633D01*
X152086252Y-47811098D01*
X151955244Y-47771357D01*
X151853135Y-47761300D01*
X151853134Y-47761300D01*
X151819000Y-47757938D01*
X151784865Y-47761300D01*
X150957462Y-47761300D01*
X151290825Y-47623217D01*
X151730588Y-47329376D01*
X152104576Y-46955388D01*
X152398417Y-46515625D01*
X152600817Y-46026986D01*
X152704000Y-45508249D01*
X152704000Y-45087691D01*
X153514000Y-45087691D01*
X153514000Y-45399909D01*
X153574911Y-45706127D01*
X153694391Y-45994579D01*
X153867850Y-46254179D01*
X154088621Y-46474950D01*
X154348221Y-46648409D01*
X154636673Y-46767889D01*
X154942891Y-46828800D01*
X155255109Y-46828800D01*
X155561327Y-46767889D01*
X155849779Y-46648409D01*
X156109379Y-46474950D01*
X156330150Y-46254179D01*
X156503609Y-45994579D01*
X156623089Y-45706127D01*
X156684000Y-45399909D01*
X156684000Y-45087691D01*
X156623089Y-44781473D01*
X156503609Y-44493021D01*
X156330150Y-44233421D01*
X156109379Y-44012650D01*
X155849779Y-43839191D01*
X155561327Y-43719711D01*
X155255109Y-43658800D01*
X154942891Y-43658800D01*
X154636673Y-43719711D01*
X154348221Y-43839191D01*
X154088621Y-44012650D01*
X153867850Y-44233421D01*
X153694391Y-44493021D01*
X153574911Y-44781473D01*
X153514000Y-45087691D01*
X152704000Y-45087691D01*
X152704000Y-44979351D01*
X152600817Y-44460614D01*
X152398417Y-43971975D01*
X152104576Y-43532212D01*
X151730588Y-43158224D01*
X151290825Y-42864383D01*
X150802186Y-42661983D01*
X150283449Y-42558800D01*
X149754551Y-42558800D01*
X149235814Y-42661983D01*
X148747175Y-42864383D01*
X148307412Y-43158224D01*
X148292463Y-43173173D01*
X148344000Y-42914079D01*
X148344000Y-42493521D01*
X148261953Y-42081044D01*
X148101012Y-41692498D01*
X147867363Y-41342817D01*
X147569983Y-41045437D01*
X147220302Y-40811788D01*
X146831756Y-40650847D01*
X146419279Y-40568800D01*
X145998721Y-40568800D01*
X145586244Y-40650847D01*
X145197698Y-40811788D01*
X144848017Y-41045437D01*
X144550637Y-41342817D01*
X144316988Y-41692498D01*
X144156047Y-42081044D01*
X144074000Y-42493521D01*
X144074000Y-42914079D01*
X144156047Y-43326556D01*
X144316988Y-43715102D01*
X144354015Y-43770517D01*
X144188221Y-43839191D01*
X143928621Y-44012650D01*
X143707850Y-44233421D01*
X143534391Y-44493021D01*
X143414911Y-44781473D01*
X143354000Y-45087691D01*
X141743231Y-45087691D01*
X141743231Y-39322642D01*
X141767865Y-39071414D01*
X141831537Y-38860521D01*
X141934958Y-38666016D01*
X142074192Y-38495298D01*
X142243927Y-38354881D01*
X142437714Y-38250101D01*
X142648152Y-38184960D01*
X142897345Y-38158769D01*
X151820550Y-38158769D01*
X151547698Y-38271788D01*
X151198017Y-38505437D01*
X150900637Y-38802817D01*
X150666988Y-39152498D01*
X150506047Y-39541044D01*
X150424000Y-39953521D01*
X150424000Y-40374079D01*
X150506047Y-40786556D01*
X150666988Y-41175102D01*
X150900637Y-41524783D01*
X151198017Y-41822163D01*
X151547698Y-42055812D01*
X151936244Y-42216753D01*
X152348721Y-42298800D01*
X152769279Y-42298800D01*
X153181756Y-42216753D01*
X153570302Y-42055812D01*
X153919983Y-41822163D01*
X154217363Y-41524783D01*
X154451012Y-41175102D01*
X154611953Y-40786556D01*
X154694000Y-40374079D01*
X154694000Y-39953521D01*
X154611953Y-39541044D01*
X154451012Y-39152498D01*
X154217363Y-38802817D01*
X153919983Y-38505437D01*
X153570302Y-38271788D01*
X153297450Y-38158769D01*
X170870550Y-38158769D01*
X170597698Y-38271788D01*
X170248017Y-38505437D01*
X169950637Y-38802817D01*
X169716988Y-39152498D01*
X169556047Y-39541044D01*
X169474000Y-39953521D01*
X169474000Y-40374079D01*
X169556047Y-40786556D01*
X169716988Y-41175102D01*
X169950637Y-41524783D01*
X170248017Y-41822163D01*
X170597698Y-42055812D01*
X170986244Y-42216753D01*
X171398721Y-42298800D01*
X171819279Y-42298800D01*
X172231756Y-42216753D01*
X172620302Y-42055812D01*
X172969983Y-41822163D01*
X173267363Y-41524783D01*
X173501012Y-41175102D01*
X173661953Y-40786556D01*
X173744000Y-40374079D01*
X173744000Y-39953521D01*
X173661953Y-39541044D01*
X173501012Y-39152498D01*
X173267363Y-38802817D01*
X172969983Y-38505437D01*
X172620302Y-38271788D01*
X172347450Y-38158769D01*
X178626025Y-38158769D01*
X178722116Y-38149305D01*
X178845405Y-38111906D01*
X178959029Y-38051172D01*
X179058620Y-37969439D01*
X179140353Y-37869848D01*
X179201087Y-37756224D01*
X179238486Y-37632935D01*
X179251114Y-37504719D01*
X179251100Y-37504578D01*
X179272584Y-37285475D01*
X179336256Y-37074582D01*
X179439677Y-36880077D01*
X179578911Y-36709359D01*
X179622289Y-36673474D01*
X179589992Y-36779944D01*
G37*
%TD.AperFunction*%
D24*
X196192701Y-65441828D02*
X194486000Y-65441828D01*
X194361518Y-65454088D01*
X194241820Y-65490398D01*
X194131506Y-65549363D01*
X194034815Y-65628715D01*
X193955463Y-65725406D01*
X193896498Y-65835720D01*
X193860188Y-65955418D01*
X193847928Y-66079900D01*
X193847928Y-67179900D01*
X193860188Y-67304382D01*
X193896498Y-67424080D01*
X193955463Y-67534394D01*
X194034815Y-67631085D01*
X194131506Y-67710437D01*
X194241820Y-67769402D01*
X194361518Y-67805712D01*
X194486000Y-67817972D01*
X196192700Y-67817972D01*
X196192700Y-69141828D01*
X194486000Y-69141828D01*
X194361518Y-69154088D01*
X194241820Y-69190398D01*
X194131506Y-69249363D01*
X194034815Y-69328715D01*
X193955463Y-69425406D01*
X193896498Y-69535720D01*
X193896115Y-69536982D01*
X193837613Y-69554728D01*
X193692554Y-69632264D01*
X193565409Y-69736609D01*
X193539261Y-69768471D01*
X192835433Y-70472300D01*
X190724072Y-70472300D01*
X190724072Y-69779900D01*
X190711812Y-69655418D01*
X190675502Y-69535720D01*
X190616537Y-69425406D01*
X190537185Y-69328715D01*
X190440494Y-69249363D01*
X190330180Y-69190398D01*
X190210482Y-69154088D01*
X190086000Y-69141828D01*
X188286000Y-69141828D01*
X188161518Y-69154088D01*
X188041820Y-69190398D01*
X187931506Y-69249363D01*
X187834815Y-69328715D01*
X187755463Y-69425406D01*
X187696498Y-69535720D01*
X187660188Y-69655418D01*
X187647928Y-69779900D01*
X187647928Y-70472300D01*
X186087072Y-70472300D01*
X186087072Y-69543800D01*
X186074812Y-69419318D01*
X186038502Y-69299620D01*
X186035391Y-69293800D01*
X186038502Y-69287980D01*
X186074812Y-69168282D01*
X186087072Y-69043800D01*
X186087072Y-67243800D01*
X186074812Y-67119318D01*
X186038502Y-66999620D01*
X185979537Y-66889306D01*
X185978557Y-66888112D01*
X186028497Y-66861418D01*
X186159284Y-66754084D01*
X186266618Y-66623297D01*
X186346375Y-66474083D01*
X186395488Y-66312177D01*
X186412072Y-66143800D01*
X186412072Y-65845175D01*
X186755193Y-65502054D01*
X186783238Y-65479038D01*
X186875087Y-65367120D01*
X186943337Y-65239433D01*
X186979962Y-65118696D01*
X186985365Y-65100886D01*
X186989084Y-65063122D01*
X187129711Y-65157086D01*
X187299871Y-65227568D01*
X187323701Y-65232308D01*
X187323700Y-66593795D01*
X187320144Y-66629900D01*
X187334335Y-66773985D01*
X187376363Y-66912533D01*
X187444613Y-67040220D01*
X187536462Y-67152138D01*
X187640580Y-67237586D01*
X187648380Y-67243987D01*
X187654565Y-67247293D01*
X187660188Y-67304382D01*
X187696498Y-67424080D01*
X187755463Y-67534394D01*
X187834815Y-67631085D01*
X187931506Y-67710437D01*
X188041820Y-67769402D01*
X188161518Y-67805712D01*
X188286000Y-67817972D01*
X190086000Y-67817972D01*
X190210482Y-67805712D01*
X190330180Y-67769402D01*
X190440494Y-67710437D01*
X190537185Y-67631085D01*
X190616537Y-67534394D01*
X190675502Y-67424080D01*
X190693454Y-67364900D01*
X191435695Y-67364900D01*
X191471800Y-67368456D01*
X191507905Y-67364900D01*
X191615885Y-67354265D01*
X191754433Y-67312237D01*
X191882120Y-67243987D01*
X191994038Y-67152138D01*
X192017059Y-67124087D01*
X195849875Y-63291272D01*
X196192701Y-63291272D01*
X196192701Y-65441828D01*
%TA.AperFunction,NonConductor*%
D25*
G36*
X196192701Y-65441828D02*
G01*
X194486000Y-65441828D01*
X194361518Y-65454088D01*
X194241820Y-65490398D01*
X194131506Y-65549363D01*
X194034815Y-65628715D01*
X193955463Y-65725406D01*
X193896498Y-65835720D01*
X193860188Y-65955418D01*
X193847928Y-66079900D01*
X193847928Y-67179900D01*
X193860188Y-67304382D01*
X193896498Y-67424080D01*
X193955463Y-67534394D01*
X194034815Y-67631085D01*
X194131506Y-67710437D01*
X194241820Y-67769402D01*
X194361518Y-67805712D01*
X194486000Y-67817972D01*
X196192700Y-67817972D01*
X196192700Y-69141828D01*
X194486000Y-69141828D01*
X194361518Y-69154088D01*
X194241820Y-69190398D01*
X194131506Y-69249363D01*
X194034815Y-69328715D01*
X193955463Y-69425406D01*
X193896498Y-69535720D01*
X193896115Y-69536982D01*
X193837613Y-69554728D01*
X193692554Y-69632264D01*
X193565409Y-69736609D01*
X193539261Y-69768471D01*
X192835433Y-70472300D01*
X190724072Y-70472300D01*
X190724072Y-69779900D01*
X190711812Y-69655418D01*
X190675502Y-69535720D01*
X190616537Y-69425406D01*
X190537185Y-69328715D01*
X190440494Y-69249363D01*
X190330180Y-69190398D01*
X190210482Y-69154088D01*
X190086000Y-69141828D01*
X188286000Y-69141828D01*
X188161518Y-69154088D01*
X188041820Y-69190398D01*
X187931506Y-69249363D01*
X187834815Y-69328715D01*
X187755463Y-69425406D01*
X187696498Y-69535720D01*
X187660188Y-69655418D01*
X187647928Y-69779900D01*
X187647928Y-70472300D01*
X186087072Y-70472300D01*
X186087072Y-69543800D01*
X186074812Y-69419318D01*
X186038502Y-69299620D01*
X186035391Y-69293800D01*
X186038502Y-69287980D01*
X186074812Y-69168282D01*
X186087072Y-69043800D01*
X186087072Y-67243800D01*
X186074812Y-67119318D01*
X186038502Y-66999620D01*
X185979537Y-66889306D01*
X185978557Y-66888112D01*
X186028497Y-66861418D01*
X186159284Y-66754084D01*
X186266618Y-66623297D01*
X186346375Y-66474083D01*
X186395488Y-66312177D01*
X186412072Y-66143800D01*
X186412072Y-65845175D01*
X186755193Y-65502054D01*
X186783238Y-65479038D01*
X186875087Y-65367120D01*
X186943337Y-65239433D01*
X186979962Y-65118696D01*
X186985365Y-65100886D01*
X186989084Y-65063122D01*
X187129711Y-65157086D01*
X187299871Y-65227568D01*
X187323701Y-65232308D01*
X187323700Y-66593795D01*
X187320144Y-66629900D01*
X187334335Y-66773985D01*
X187376363Y-66912533D01*
X187444613Y-67040220D01*
X187536462Y-67152138D01*
X187640580Y-67237586D01*
X187648380Y-67243987D01*
X187654565Y-67247293D01*
X187660188Y-67304382D01*
X187696498Y-67424080D01*
X187755463Y-67534394D01*
X187834815Y-67631085D01*
X187931506Y-67710437D01*
X188041820Y-67769402D01*
X188161518Y-67805712D01*
X188286000Y-67817972D01*
X190086000Y-67817972D01*
X190210482Y-67805712D01*
X190330180Y-67769402D01*
X190440494Y-67710437D01*
X190537185Y-67631085D01*
X190616537Y-67534394D01*
X190675502Y-67424080D01*
X190693454Y-67364900D01*
X191435695Y-67364900D01*
X191471800Y-67368456D01*
X191507905Y-67364900D01*
X191615885Y-67354265D01*
X191754433Y-67312237D01*
X191882120Y-67243987D01*
X191994038Y-67152138D01*
X192017059Y-67124087D01*
X195849875Y-63291272D01*
X196192701Y-63291272D01*
X196192701Y-65441828D01*
G37*
%TD.AperFunction*%
D24*
X172917850Y-63283421D02*
X172744391Y-63543021D01*
X172624911Y-63831473D01*
X172564000Y-64137691D01*
X172564000Y-64449909D01*
X172624911Y-64756127D01*
X172744391Y-65044579D01*
X172917850Y-65304179D01*
X173138621Y-65524950D01*
X173398221Y-65698409D01*
X173686673Y-65817889D01*
X173992891Y-65878800D01*
X174305109Y-65878800D01*
X174611327Y-65817889D01*
X174899779Y-65698409D01*
X175159379Y-65524950D01*
X175380150Y-65304179D01*
X175553609Y-65044579D01*
X175673089Y-64756127D01*
X175734000Y-64449909D01*
X175734000Y-64137691D01*
X175673089Y-63831473D01*
X175553609Y-63543021D01*
X175380150Y-63283421D01*
X175259929Y-63163200D01*
X181347928Y-63163200D01*
X181347928Y-63178200D01*
X181360188Y-63302682D01*
X181396498Y-63422380D01*
X181455463Y-63532694D01*
X181534815Y-63629385D01*
X181622673Y-63701488D01*
X181531419Y-63692500D01*
X181531418Y-63692500D01*
X181490400Y-63688460D01*
X181449382Y-63692500D01*
X180656918Y-63692500D01*
X180615900Y-63688460D01*
X180574881Y-63692500D01*
X180452211Y-63704582D01*
X180294813Y-63752328D01*
X180149754Y-63829864D01*
X180022609Y-63934209D01*
X179996459Y-63966074D01*
X178339779Y-65622754D01*
X178307909Y-65648909D01*
X178225180Y-65749716D01*
X178203564Y-65776055D01*
X178126028Y-65921114D01*
X178078282Y-66078512D01*
X178062160Y-66242200D01*
X178066200Y-66283219D01*
X178066201Y-68991600D01*
X173659804Y-68991600D01*
X173505129Y-68927532D01*
X173324489Y-68891600D01*
X173140311Y-68891600D01*
X172959671Y-68927532D01*
X172789511Y-68998014D01*
X172636372Y-69100338D01*
X172506138Y-69230572D01*
X172403814Y-69383711D01*
X172339746Y-69538386D01*
X171779533Y-70098600D01*
X171564000Y-70098600D01*
X171564000Y-67540435D01*
X171567362Y-67506300D01*
X171553943Y-67370056D01*
X171514202Y-67239048D01*
X171449667Y-67118311D01*
X171362817Y-67012483D01*
X171256989Y-66925633D01*
X171136252Y-66861098D01*
X171005244Y-66821357D01*
X170903135Y-66811300D01*
X170903134Y-66811300D01*
X170869000Y-66807938D01*
X170834865Y-66811300D01*
X170007462Y-66811300D01*
X170340825Y-66673217D01*
X170780588Y-66379376D01*
X171154576Y-66005388D01*
X171448417Y-65565625D01*
X171650817Y-65076986D01*
X171754000Y-64558249D01*
X171754000Y-64029351D01*
X171650817Y-63510614D01*
X171506914Y-63163200D01*
X173038071Y-63163200D01*
X172917850Y-63283421D01*
%TA.AperFunction,NonConductor*%
D25*
G36*
X172917850Y-63283421D02*
G01*
X172744391Y-63543021D01*
X172624911Y-63831473D01*
X172564000Y-64137691D01*
X172564000Y-64449909D01*
X172624911Y-64756127D01*
X172744391Y-65044579D01*
X172917850Y-65304179D01*
X173138621Y-65524950D01*
X173398221Y-65698409D01*
X173686673Y-65817889D01*
X173992891Y-65878800D01*
X174305109Y-65878800D01*
X174611327Y-65817889D01*
X174899779Y-65698409D01*
X175159379Y-65524950D01*
X175380150Y-65304179D01*
X175553609Y-65044579D01*
X175673089Y-64756127D01*
X175734000Y-64449909D01*
X175734000Y-64137691D01*
X175673089Y-63831473D01*
X175553609Y-63543021D01*
X175380150Y-63283421D01*
X175259929Y-63163200D01*
X181347928Y-63163200D01*
X181347928Y-63178200D01*
X181360188Y-63302682D01*
X181396498Y-63422380D01*
X181455463Y-63532694D01*
X181534815Y-63629385D01*
X181622673Y-63701488D01*
X181531419Y-63692500D01*
X181531418Y-63692500D01*
X181490400Y-63688460D01*
X181449382Y-63692500D01*
X180656918Y-63692500D01*
X180615900Y-63688460D01*
X180574881Y-63692500D01*
X180452211Y-63704582D01*
X180294813Y-63752328D01*
X180149754Y-63829864D01*
X180022609Y-63934209D01*
X179996459Y-63966074D01*
X178339779Y-65622754D01*
X178307909Y-65648909D01*
X178225180Y-65749716D01*
X178203564Y-65776055D01*
X178126028Y-65921114D01*
X178078282Y-66078512D01*
X178062160Y-66242200D01*
X178066200Y-66283219D01*
X178066201Y-68991600D01*
X173659804Y-68991600D01*
X173505129Y-68927532D01*
X173324489Y-68891600D01*
X173140311Y-68891600D01*
X172959671Y-68927532D01*
X172789511Y-68998014D01*
X172636372Y-69100338D01*
X172506138Y-69230572D01*
X172403814Y-69383711D01*
X172339746Y-69538386D01*
X171779533Y-70098600D01*
X171564000Y-70098600D01*
X171564000Y-67540435D01*
X171567362Y-67506300D01*
X171553943Y-67370056D01*
X171514202Y-67239048D01*
X171449667Y-67118311D01*
X171362817Y-67012483D01*
X171256989Y-66925633D01*
X171136252Y-66861098D01*
X171005244Y-66821357D01*
X170903135Y-66811300D01*
X170903134Y-66811300D01*
X170869000Y-66807938D01*
X170834865Y-66811300D01*
X170007462Y-66811300D01*
X170340825Y-66673217D01*
X170780588Y-66379376D01*
X171154576Y-66005388D01*
X171448417Y-65565625D01*
X171650817Y-65076986D01*
X171754000Y-64558249D01*
X171754000Y-64029351D01*
X171650817Y-63510614D01*
X171506914Y-63163200D01*
X173038071Y-63163200D01*
X172917850Y-63283421D01*
G37*
%TD.AperFunction*%
D24*
X192918858Y-61789626D02*
X192945009Y-61821491D01*
X193072154Y-61925836D01*
X193217213Y-62003372D01*
X193374611Y-62051118D01*
X193497281Y-62063200D01*
X193497282Y-62063200D01*
X193538300Y-62067240D01*
X193579318Y-62063200D01*
X194622928Y-62063200D01*
X194622928Y-62403202D01*
X194626167Y-62436086D01*
X191167354Y-65894900D01*
X190693454Y-65894900D01*
X190675502Y-65835720D01*
X190616537Y-65725406D01*
X190537185Y-65628715D01*
X190440494Y-65549363D01*
X190330180Y-65490398D01*
X190210482Y-65454088D01*
X190086000Y-65441828D01*
X188793700Y-65441828D01*
X188793700Y-64850694D01*
X188797255Y-64814599D01*
X188793700Y-64778504D01*
X188793700Y-64778495D01*
X188783065Y-64670515D01*
X188741037Y-64531967D01*
X188672787Y-64404280D01*
X188580938Y-64292362D01*
X188552887Y-64269341D01*
X188504532Y-64220986D01*
X188471668Y-64055771D01*
X188401186Y-63885611D01*
X188352661Y-63812989D01*
X188386000Y-63816272D01*
X188936000Y-63816272D01*
X189060482Y-63804012D01*
X189061000Y-63803855D01*
X189061518Y-63804012D01*
X189186000Y-63816272D01*
X189736000Y-63816272D01*
X189860482Y-63804012D01*
X189861000Y-63803855D01*
X189861518Y-63804012D01*
X189986000Y-63816272D01*
X190536000Y-63816272D01*
X190660482Y-63804012D01*
X190780180Y-63767702D01*
X190890494Y-63708737D01*
X190987185Y-63629385D01*
X191066537Y-63532694D01*
X191125502Y-63422380D01*
X191161812Y-63302682D01*
X191174072Y-63178200D01*
X191174072Y-61678200D01*
X191170038Y-61637238D01*
X191211000Y-61641272D01*
X192711000Y-61641272D01*
X192765169Y-61635937D01*
X192918858Y-61789626D01*
%TA.AperFunction,NonConductor*%
D25*
G36*
X192918858Y-61789626D02*
G01*
X192945009Y-61821491D01*
X193072154Y-61925836D01*
X193217213Y-62003372D01*
X193374611Y-62051118D01*
X193497281Y-62063200D01*
X193497282Y-62063200D01*
X193538300Y-62067240D01*
X193579318Y-62063200D01*
X194622928Y-62063200D01*
X194622928Y-62403202D01*
X194626167Y-62436086D01*
X191167354Y-65894900D01*
X190693454Y-65894900D01*
X190675502Y-65835720D01*
X190616537Y-65725406D01*
X190537185Y-65628715D01*
X190440494Y-65549363D01*
X190330180Y-65490398D01*
X190210482Y-65454088D01*
X190086000Y-65441828D01*
X188793700Y-65441828D01*
X188793700Y-64850694D01*
X188797255Y-64814599D01*
X188793700Y-64778504D01*
X188793700Y-64778495D01*
X188783065Y-64670515D01*
X188741037Y-64531967D01*
X188672787Y-64404280D01*
X188580938Y-64292362D01*
X188552887Y-64269341D01*
X188504532Y-64220986D01*
X188471668Y-64055771D01*
X188401186Y-63885611D01*
X188352661Y-63812989D01*
X188386000Y-63816272D01*
X188936000Y-63816272D01*
X189060482Y-63804012D01*
X189061000Y-63803855D01*
X189061518Y-63804012D01*
X189186000Y-63816272D01*
X189736000Y-63816272D01*
X189860482Y-63804012D01*
X189861000Y-63803855D01*
X189861518Y-63804012D01*
X189986000Y-63816272D01*
X190536000Y-63816272D01*
X190660482Y-63804012D01*
X190780180Y-63767702D01*
X190890494Y-63708737D01*
X190987185Y-63629385D01*
X191066537Y-63532694D01*
X191125502Y-63422380D01*
X191161812Y-63302682D01*
X191174072Y-63178200D01*
X191174072Y-61678200D01*
X191170038Y-61637238D01*
X191211000Y-61641272D01*
X192711000Y-61641272D01*
X192765169Y-61635937D01*
X192918858Y-61789626D01*
G37*
%TD.AperFunction*%
D24*
X181986000Y-63816272D02*
X182201918Y-63816272D01*
X182200200Y-63824911D01*
X182200200Y-64009089D01*
X182211956Y-64068189D01*
X182109845Y-63966078D01*
X182083691Y-63934209D01*
X181956546Y-63829864D01*
X181918721Y-63809646D01*
X181986000Y-63816272D01*
%TA.AperFunction,NonConductor*%
D25*
G36*
X181986000Y-63816272D02*
G01*
X182201918Y-63816272D01*
X182200200Y-63824911D01*
X182200200Y-64009089D01*
X182211956Y-64068189D01*
X182109845Y-63966078D01*
X182083691Y-63934209D01*
X181956546Y-63829864D01*
X181918721Y-63809646D01*
X181986000Y-63816272D01*
G37*
%TD.AperFunction*%
D24*
X168604955Y-61648502D02*
X168285814Y-61711983D01*
X167797175Y-61914383D01*
X167357412Y-62208224D01*
X167342463Y-62223173D01*
X167394000Y-61964079D01*
X167394000Y-61543521D01*
X167311953Y-61131044D01*
X167151012Y-60742498D01*
X166917363Y-60392817D01*
X166619983Y-60095437D01*
X166523995Y-60031300D01*
X166987754Y-60031300D01*
X168604955Y-61648502D01*
%TA.AperFunction,NonConductor*%
D25*
G36*
X168604955Y-61648502D02*
G01*
X168285814Y-61711983D01*
X167797175Y-61914383D01*
X167357412Y-62208224D01*
X167342463Y-62223173D01*
X167394000Y-61964079D01*
X167394000Y-61543521D01*
X167311953Y-61131044D01*
X167151012Y-60742498D01*
X166917363Y-60392817D01*
X166619983Y-60095437D01*
X166523995Y-60031300D01*
X166987754Y-60031300D01*
X168604955Y-61648502D01*
G37*
%TD.AperFunction*%
D24*
X171422054Y-57078800D02*
X171398721Y-57078800D01*
X170986244Y-57160847D01*
X170597698Y-57321788D01*
X170248017Y-57555437D01*
X169950637Y-57852817D01*
X169716988Y-58202498D01*
X169556047Y-58591044D01*
X169474000Y-59003521D01*
X169474000Y-59424079D01*
X169556047Y-59836556D01*
X169716988Y-60225102D01*
X169950637Y-60574783D01*
X170248017Y-60872163D01*
X170597698Y-61105812D01*
X170986244Y-61266753D01*
X171398721Y-61348800D01*
X171819279Y-61348800D01*
X172231756Y-61266753D01*
X172620302Y-61105812D01*
X172969983Y-60872163D01*
X173267363Y-60574783D01*
X173501012Y-60225102D01*
X173661953Y-59836556D01*
X173744000Y-59424079D01*
X173744000Y-59400747D01*
X175565646Y-61222393D01*
X175588662Y-61250438D01*
X175700580Y-61342287D01*
X175828267Y-61410537D01*
X175924786Y-61439816D01*
X175966814Y-61452565D01*
X176110899Y-61466756D01*
X176147004Y-61463200D01*
X179370556Y-61463200D01*
X179456506Y-61533737D01*
X179566820Y-61592702D01*
X179686518Y-61629012D01*
X179811000Y-61641272D01*
X181311000Y-61641272D01*
X181351962Y-61637238D01*
X181347928Y-61678200D01*
X181347928Y-61693200D01*
X170728547Y-61693200D01*
X167837459Y-58802113D01*
X167814438Y-58774062D01*
X167702520Y-58682213D01*
X167574833Y-58613963D01*
X167436285Y-58571935D01*
X167328305Y-58561300D01*
X167292200Y-58557744D01*
X167256095Y-58561300D01*
X163925946Y-58561300D01*
X165648647Y-56838600D01*
X171181854Y-56838600D01*
X171422054Y-57078800D01*
%TA.AperFunction,NonConductor*%
D25*
G36*
X171422054Y-57078800D02*
G01*
X171398721Y-57078800D01*
X170986244Y-57160847D01*
X170597698Y-57321788D01*
X170248017Y-57555437D01*
X169950637Y-57852817D01*
X169716988Y-58202498D01*
X169556047Y-58591044D01*
X169474000Y-59003521D01*
X169474000Y-59424079D01*
X169556047Y-59836556D01*
X169716988Y-60225102D01*
X169950637Y-60574783D01*
X170248017Y-60872163D01*
X170597698Y-61105812D01*
X170986244Y-61266753D01*
X171398721Y-61348800D01*
X171819279Y-61348800D01*
X172231756Y-61266753D01*
X172620302Y-61105812D01*
X172969983Y-60872163D01*
X173267363Y-60574783D01*
X173501012Y-60225102D01*
X173661953Y-59836556D01*
X173744000Y-59424079D01*
X173744000Y-59400747D01*
X175565646Y-61222393D01*
X175588662Y-61250438D01*
X175700580Y-61342287D01*
X175828267Y-61410537D01*
X175924786Y-61439816D01*
X175966814Y-61452565D01*
X176110899Y-61466756D01*
X176147004Y-61463200D01*
X179370556Y-61463200D01*
X179456506Y-61533737D01*
X179566820Y-61592702D01*
X179686518Y-61629012D01*
X179811000Y-61641272D01*
X181311000Y-61641272D01*
X181351962Y-61637238D01*
X181347928Y-61678200D01*
X181347928Y-61693200D01*
X170728547Y-61693200D01*
X167837459Y-58802113D01*
X167814438Y-58774062D01*
X167702520Y-58682213D01*
X167574833Y-58613963D01*
X167436285Y-58571935D01*
X167328305Y-58561300D01*
X167292200Y-58557744D01*
X167256095Y-58561300D01*
X163925946Y-58561300D01*
X165648647Y-56838600D01*
X171181854Y-56838600D01*
X171422054Y-57078800D01*
G37*
%TD.AperFunction*%
D24*
X189861518Y-52404012D02*
X189986000Y-52416272D01*
X190536000Y-52416272D01*
X190576962Y-52412238D01*
X190572928Y-52453200D01*
X190572928Y-53003200D01*
X190585188Y-53127682D01*
X190585345Y-53128200D01*
X190585188Y-53128718D01*
X190572928Y-53253200D01*
X190572928Y-53803200D01*
X190585188Y-53927682D01*
X190585345Y-53928200D01*
X190585188Y-53928718D01*
X190572928Y-54053200D01*
X190572928Y-54603200D01*
X190585188Y-54727682D01*
X190585345Y-54728200D01*
X190585188Y-54728718D01*
X190572928Y-54853200D01*
X190572928Y-55403200D01*
X190585188Y-55527682D01*
X190585345Y-55528200D01*
X190585188Y-55528718D01*
X190572928Y-55653200D01*
X190572928Y-56203200D01*
X190585188Y-56327682D01*
X190585345Y-56328200D01*
X190585188Y-56328718D01*
X190572928Y-56453200D01*
X190572928Y-57003200D01*
X190585188Y-57127682D01*
X190585345Y-57128200D01*
X190585188Y-57128718D01*
X190572928Y-57253200D01*
X190572928Y-57803200D01*
X190585188Y-57927682D01*
X190585345Y-57928200D01*
X190585188Y-57928718D01*
X190572928Y-58053200D01*
X190572928Y-58603200D01*
X190585188Y-58727682D01*
X190585345Y-58728200D01*
X190585188Y-58728718D01*
X190572928Y-58853200D01*
X190572928Y-59403200D01*
X190585188Y-59527682D01*
X190585345Y-59528200D01*
X190585188Y-59528718D01*
X190572928Y-59653200D01*
X190572928Y-60203200D01*
X190585188Y-60327682D01*
X190585345Y-60328200D01*
X190585188Y-60328718D01*
X190572928Y-60453200D01*
X190572928Y-61003200D01*
X190576962Y-61044162D01*
X190536000Y-61040128D01*
X189986000Y-61040128D01*
X189861518Y-61052388D01*
X189861000Y-61052545D01*
X189860482Y-61052388D01*
X189736000Y-61040128D01*
X189186000Y-61040128D01*
X189061518Y-61052388D01*
X189061000Y-61052545D01*
X189060482Y-61052388D01*
X188936000Y-61040128D01*
X188386000Y-61040128D01*
X188261518Y-61052388D01*
X188261000Y-61052545D01*
X188260482Y-61052388D01*
X188136000Y-61040128D01*
X187586000Y-61040128D01*
X187461518Y-61052388D01*
X187461000Y-61052545D01*
X187460482Y-61052388D01*
X187336000Y-61040128D01*
X186786000Y-61040128D01*
X186661518Y-61052388D01*
X186661000Y-61052545D01*
X186660482Y-61052388D01*
X186536000Y-61040128D01*
X185986000Y-61040128D01*
X185861518Y-61052388D01*
X185861000Y-61052545D01*
X185860482Y-61052388D01*
X185736000Y-61040128D01*
X185186000Y-61040128D01*
X185061518Y-61052388D01*
X185061000Y-61052545D01*
X185060482Y-61052388D01*
X184936000Y-61040128D01*
X184386000Y-61040128D01*
X184261518Y-61052388D01*
X184261000Y-61052545D01*
X184260482Y-61052388D01*
X184136000Y-61040128D01*
X183586000Y-61040128D01*
X183461518Y-61052388D01*
X183461000Y-61052545D01*
X183460482Y-61052388D01*
X183336000Y-61040128D01*
X182786000Y-61040128D01*
X182661518Y-61052388D01*
X182661000Y-61052545D01*
X182660482Y-61052388D01*
X182536000Y-61040128D01*
X181986000Y-61040128D01*
X181945038Y-61044162D01*
X181949072Y-61003200D01*
X181949072Y-60453200D01*
X181936812Y-60328718D01*
X181936655Y-60328200D01*
X181936812Y-60327682D01*
X181949072Y-60203200D01*
X181949072Y-59653200D01*
X181936812Y-59528718D01*
X181936655Y-59528200D01*
X181936812Y-59527682D01*
X181949072Y-59403200D01*
X181949072Y-58853200D01*
X181936812Y-58728718D01*
X181936655Y-58728200D01*
X181936812Y-58727682D01*
X181949072Y-58603200D01*
X181949072Y-58053200D01*
X181936812Y-57928718D01*
X181936655Y-57928200D01*
X181936812Y-57927682D01*
X181949072Y-57803200D01*
X181949072Y-57253200D01*
X181936812Y-57128718D01*
X181936655Y-57128200D01*
X181936812Y-57127682D01*
X181949072Y-57003200D01*
X181949072Y-56453200D01*
X181936812Y-56328718D01*
X181936655Y-56328200D01*
X181936812Y-56327682D01*
X181949072Y-56203200D01*
X181949072Y-55653200D01*
X181936812Y-55528718D01*
X181936655Y-55528200D01*
X181936812Y-55527682D01*
X181949072Y-55403200D01*
X181949072Y-54853200D01*
X181936812Y-54728718D01*
X181936655Y-54728200D01*
X181936812Y-54727682D01*
X181949072Y-54603200D01*
X181949072Y-54053200D01*
X181936812Y-53928718D01*
X181936655Y-53928200D01*
X181936812Y-53927682D01*
X181949072Y-53803200D01*
X181949072Y-53253200D01*
X181936812Y-53128718D01*
X181936655Y-53128200D01*
X181936812Y-53127682D01*
X181949072Y-53003200D01*
X181949072Y-52453200D01*
X181945038Y-52412238D01*
X181986000Y-52416272D01*
X182536000Y-52416272D01*
X182660482Y-52404012D01*
X182661000Y-52403855D01*
X182661518Y-52404012D01*
X182786000Y-52416272D01*
X183336000Y-52416272D01*
X183460482Y-52404012D01*
X183461000Y-52403855D01*
X183461518Y-52404012D01*
X183586000Y-52416272D01*
X184136000Y-52416272D01*
X184260482Y-52404012D01*
X184261000Y-52403855D01*
X184261518Y-52404012D01*
X184386000Y-52416272D01*
X184936000Y-52416272D01*
X185060482Y-52404012D01*
X185061000Y-52403855D01*
X185061518Y-52404012D01*
X185186000Y-52416272D01*
X185736000Y-52416272D01*
X185860482Y-52404012D01*
X185861000Y-52403855D01*
X185861518Y-52404012D01*
X185986000Y-52416272D01*
X186536000Y-52416272D01*
X186660482Y-52404012D01*
X186661000Y-52403855D01*
X186661518Y-52404012D01*
X186786000Y-52416272D01*
X187336000Y-52416272D01*
X187460482Y-52404012D01*
X187461000Y-52403855D01*
X187461518Y-52404012D01*
X187586000Y-52416272D01*
X188136000Y-52416272D01*
X188260482Y-52404012D01*
X188261000Y-52403855D01*
X188261518Y-52404012D01*
X188386000Y-52416272D01*
X188936000Y-52416272D01*
X189060482Y-52404012D01*
X189061000Y-52403855D01*
X189061518Y-52404012D01*
X189186000Y-52416272D01*
X189736000Y-52416272D01*
X189860482Y-52404012D01*
X189861000Y-52403855D01*
X189861518Y-52404012D01*
%TA.AperFunction,NonConductor*%
D25*
G36*
X189861518Y-52404012D02*
G01*
X189986000Y-52416272D01*
X190536000Y-52416272D01*
X190576962Y-52412238D01*
X190572928Y-52453200D01*
X190572928Y-53003200D01*
X190585188Y-53127682D01*
X190585345Y-53128200D01*
X190585188Y-53128718D01*
X190572928Y-53253200D01*
X190572928Y-53803200D01*
X190585188Y-53927682D01*
X190585345Y-53928200D01*
X190585188Y-53928718D01*
X190572928Y-54053200D01*
X190572928Y-54603200D01*
X190585188Y-54727682D01*
X190585345Y-54728200D01*
X190585188Y-54728718D01*
X190572928Y-54853200D01*
X190572928Y-55403200D01*
X190585188Y-55527682D01*
X190585345Y-55528200D01*
X190585188Y-55528718D01*
X190572928Y-55653200D01*
X190572928Y-56203200D01*
X190585188Y-56327682D01*
X190585345Y-56328200D01*
X190585188Y-56328718D01*
X190572928Y-56453200D01*
X190572928Y-57003200D01*
X190585188Y-57127682D01*
X190585345Y-57128200D01*
X190585188Y-57128718D01*
X190572928Y-57253200D01*
X190572928Y-57803200D01*
X190585188Y-57927682D01*
X190585345Y-57928200D01*
X190585188Y-57928718D01*
X190572928Y-58053200D01*
X190572928Y-58603200D01*
X190585188Y-58727682D01*
X190585345Y-58728200D01*
X190585188Y-58728718D01*
X190572928Y-58853200D01*
X190572928Y-59403200D01*
X190585188Y-59527682D01*
X190585345Y-59528200D01*
X190585188Y-59528718D01*
X190572928Y-59653200D01*
X190572928Y-60203200D01*
X190585188Y-60327682D01*
X190585345Y-60328200D01*
X190585188Y-60328718D01*
X190572928Y-60453200D01*
X190572928Y-61003200D01*
X190576962Y-61044162D01*
X190536000Y-61040128D01*
X189986000Y-61040128D01*
X189861518Y-61052388D01*
X189861000Y-61052545D01*
X189860482Y-61052388D01*
X189736000Y-61040128D01*
X189186000Y-61040128D01*
X189061518Y-61052388D01*
X189061000Y-61052545D01*
X189060482Y-61052388D01*
X188936000Y-61040128D01*
X188386000Y-61040128D01*
X188261518Y-61052388D01*
X188261000Y-61052545D01*
X188260482Y-61052388D01*
X188136000Y-61040128D01*
X187586000Y-61040128D01*
X187461518Y-61052388D01*
X187461000Y-61052545D01*
X187460482Y-61052388D01*
X187336000Y-61040128D01*
X186786000Y-61040128D01*
X186661518Y-61052388D01*
X186661000Y-61052545D01*
X186660482Y-61052388D01*
X186536000Y-61040128D01*
X185986000Y-61040128D01*
X185861518Y-61052388D01*
X185861000Y-61052545D01*
X185860482Y-61052388D01*
X185736000Y-61040128D01*
X185186000Y-61040128D01*
X185061518Y-61052388D01*
X185061000Y-61052545D01*
X185060482Y-61052388D01*
X184936000Y-61040128D01*
X184386000Y-61040128D01*
X184261518Y-61052388D01*
X184261000Y-61052545D01*
X184260482Y-61052388D01*
X184136000Y-61040128D01*
X183586000Y-61040128D01*
X183461518Y-61052388D01*
X183461000Y-61052545D01*
X183460482Y-61052388D01*
X183336000Y-61040128D01*
X182786000Y-61040128D01*
X182661518Y-61052388D01*
X182661000Y-61052545D01*
X182660482Y-61052388D01*
X182536000Y-61040128D01*
X181986000Y-61040128D01*
X181945038Y-61044162D01*
X181949072Y-61003200D01*
X181949072Y-60453200D01*
X181936812Y-60328718D01*
X181936655Y-60328200D01*
X181936812Y-60327682D01*
X181949072Y-60203200D01*
X181949072Y-59653200D01*
X181936812Y-59528718D01*
X181936655Y-59528200D01*
X181936812Y-59527682D01*
X181949072Y-59403200D01*
X181949072Y-58853200D01*
X181936812Y-58728718D01*
X181936655Y-58728200D01*
X181936812Y-58727682D01*
X181949072Y-58603200D01*
X181949072Y-58053200D01*
X181936812Y-57928718D01*
X181936655Y-57928200D01*
X181936812Y-57927682D01*
X181949072Y-57803200D01*
X181949072Y-57253200D01*
X181936812Y-57128718D01*
X181936655Y-57128200D01*
X181936812Y-57127682D01*
X181949072Y-57003200D01*
X181949072Y-56453200D01*
X181936812Y-56328718D01*
X181936655Y-56328200D01*
X181936812Y-56327682D01*
X181949072Y-56203200D01*
X181949072Y-55653200D01*
X181936812Y-55528718D01*
X181936655Y-55528200D01*
X181936812Y-55527682D01*
X181949072Y-55403200D01*
X181949072Y-54853200D01*
X181936812Y-54728718D01*
X181936655Y-54728200D01*
X181936812Y-54727682D01*
X181949072Y-54603200D01*
X181949072Y-54053200D01*
X181936812Y-53928718D01*
X181936655Y-53928200D01*
X181936812Y-53927682D01*
X181949072Y-53803200D01*
X181949072Y-53253200D01*
X181936812Y-53128718D01*
X181936655Y-53128200D01*
X181936812Y-53127682D01*
X181949072Y-53003200D01*
X181949072Y-52453200D01*
X181945038Y-52412238D01*
X181986000Y-52416272D01*
X182536000Y-52416272D01*
X182660482Y-52404012D01*
X182661000Y-52403855D01*
X182661518Y-52404012D01*
X182786000Y-52416272D01*
X183336000Y-52416272D01*
X183460482Y-52404012D01*
X183461000Y-52403855D01*
X183461518Y-52404012D01*
X183586000Y-52416272D01*
X184136000Y-52416272D01*
X184260482Y-52404012D01*
X184261000Y-52403855D01*
X184261518Y-52404012D01*
X184386000Y-52416272D01*
X184936000Y-52416272D01*
X185060482Y-52404012D01*
X185061000Y-52403855D01*
X185061518Y-52404012D01*
X185186000Y-52416272D01*
X185736000Y-52416272D01*
X185860482Y-52404012D01*
X185861000Y-52403855D01*
X185861518Y-52404012D01*
X185986000Y-52416272D01*
X186536000Y-52416272D01*
X186660482Y-52404012D01*
X186661000Y-52403855D01*
X186661518Y-52404012D01*
X186786000Y-52416272D01*
X187336000Y-52416272D01*
X187460482Y-52404012D01*
X187461000Y-52403855D01*
X187461518Y-52404012D01*
X187586000Y-52416272D01*
X188136000Y-52416272D01*
X188260482Y-52404012D01*
X188261000Y-52403855D01*
X188261518Y-52404012D01*
X188386000Y-52416272D01*
X188936000Y-52416272D01*
X189060482Y-52404012D01*
X189061000Y-52403855D01*
X189061518Y-52404012D01*
X189186000Y-52416272D01*
X189736000Y-52416272D01*
X189860482Y-52404012D01*
X189861000Y-52403855D01*
X189861518Y-52404012D01*
G37*
%TD.AperFunction*%
D24*
X194672928Y-56053202D02*
X194689992Y-56226456D01*
X194740528Y-56393052D01*
X194822595Y-56546587D01*
X194933038Y-56681162D01*
X195067613Y-56791605D01*
X195221148Y-56873672D01*
X195387744Y-56924208D01*
X195560998Y-56941272D01*
X196253700Y-56941272D01*
X196253701Y-59165128D01*
X195949446Y-59165128D01*
X195857587Y-59116028D01*
X195700189Y-59068282D01*
X195577519Y-59056200D01*
X195577518Y-59056200D01*
X195536500Y-59052160D01*
X195495482Y-59056200D01*
X194945094Y-59056200D01*
X194937868Y-59019871D01*
X194867386Y-58849711D01*
X194765062Y-58696572D01*
X194634828Y-58566338D01*
X194481689Y-58464014D01*
X194311529Y-58393532D01*
X194130889Y-58357600D01*
X193946711Y-58357600D01*
X193766071Y-58393532D01*
X193595911Y-58464014D01*
X193442772Y-58566338D01*
X193342863Y-58666247D01*
X193349072Y-58603200D01*
X193349072Y-58053200D01*
X193336812Y-57928718D01*
X193336655Y-57928200D01*
X193336812Y-57927682D01*
X193349072Y-57803200D01*
X193349072Y-57253200D01*
X193336812Y-57128718D01*
X193336655Y-57128200D01*
X193336812Y-57127682D01*
X193349072Y-57003200D01*
X193349072Y-56821100D01*
X193411695Y-56821100D01*
X193447800Y-56824656D01*
X193483905Y-56821100D01*
X193591885Y-56810465D01*
X193730433Y-56768437D01*
X193858120Y-56700187D01*
X193970038Y-56608338D01*
X193993058Y-56580288D01*
X194672928Y-55900419D01*
X194672928Y-56053202D01*
%TA.AperFunction,NonConductor*%
D25*
G36*
X194672928Y-56053202D02*
G01*
X194689992Y-56226456D01*
X194740528Y-56393052D01*
X194822595Y-56546587D01*
X194933038Y-56681162D01*
X195067613Y-56791605D01*
X195221148Y-56873672D01*
X195387744Y-56924208D01*
X195560998Y-56941272D01*
X196253700Y-56941272D01*
X196253701Y-59165128D01*
X195949446Y-59165128D01*
X195857587Y-59116028D01*
X195700189Y-59068282D01*
X195577519Y-59056200D01*
X195577518Y-59056200D01*
X195536500Y-59052160D01*
X195495482Y-59056200D01*
X194945094Y-59056200D01*
X194937868Y-59019871D01*
X194867386Y-58849711D01*
X194765062Y-58696572D01*
X194634828Y-58566338D01*
X194481689Y-58464014D01*
X194311529Y-58393532D01*
X194130889Y-58357600D01*
X193946711Y-58357600D01*
X193766071Y-58393532D01*
X193595911Y-58464014D01*
X193442772Y-58566338D01*
X193342863Y-58666247D01*
X193349072Y-58603200D01*
X193349072Y-58053200D01*
X193336812Y-57928718D01*
X193336655Y-57928200D01*
X193336812Y-57927682D01*
X193349072Y-57803200D01*
X193349072Y-57253200D01*
X193336812Y-57128718D01*
X193336655Y-57128200D01*
X193336812Y-57127682D01*
X193349072Y-57003200D01*
X193349072Y-56821100D01*
X193411695Y-56821100D01*
X193447800Y-56824656D01*
X193483905Y-56821100D01*
X193591885Y-56810465D01*
X193730433Y-56768437D01*
X193858120Y-56700187D01*
X193970038Y-56608338D01*
X193993058Y-56580288D01*
X194672928Y-55900419D01*
X194672928Y-56053202D01*
G37*
%TD.AperFunction*%
D24*
X193537344Y-54098191D02*
X193500514Y-54153311D01*
X193430032Y-54323471D01*
X193394100Y-54504111D01*
X193394100Y-54551438D01*
X193349072Y-54514484D01*
X193349072Y-54053200D01*
X193336812Y-53928718D01*
X193336655Y-53928200D01*
X193336812Y-53927682D01*
X193339504Y-53900350D01*
X193537344Y-54098191D01*
%TA.AperFunction,NonConductor*%
D25*
G36*
X193537344Y-54098191D02*
G01*
X193500514Y-54153311D01*
X193430032Y-54323471D01*
X193394100Y-54504111D01*
X193394100Y-54551438D01*
X193349072Y-54514484D01*
X193349072Y-54053200D01*
X193336812Y-53928718D01*
X193336655Y-53928200D01*
X193336812Y-53927682D01*
X193339504Y-53900350D01*
X193537344Y-54098191D01*
G37*
%TD.AperFunction*%
D24*
X194200716Y-51538484D02*
X194331503Y-51645818D01*
X194480717Y-51725575D01*
X194642623Y-51774688D01*
X194811000Y-51791272D01*
X195261000Y-51791272D01*
X195429377Y-51774688D01*
X195591283Y-51725575D01*
X195740497Y-51645818D01*
X195751000Y-51637198D01*
X195751001Y-52815128D01*
X195560998Y-52815128D01*
X195387744Y-52832192D01*
X195221148Y-52882728D01*
X195067613Y-52964795D01*
X194933038Y-53075238D01*
X194822595Y-53209813D01*
X194789596Y-53271549D01*
X193752059Y-52234013D01*
X193729038Y-52205962D01*
X193617120Y-52114113D01*
X193489433Y-52045863D01*
X193350885Y-52003835D01*
X193242905Y-51993200D01*
X193206800Y-51989644D01*
X193170695Y-51993200D01*
X193151444Y-51993200D01*
X193065494Y-51922663D01*
X192955180Y-51863698D01*
X192835482Y-51827388D01*
X192711000Y-51815128D01*
X191211000Y-51815128D01*
X191170038Y-51819162D01*
X191172151Y-51797700D01*
X191245789Y-51797700D01*
X191426429Y-51761768D01*
X191596589Y-51691286D01*
X191749728Y-51588962D01*
X191825490Y-51513200D01*
X194179966Y-51513200D01*
X194200716Y-51538484D01*
%TA.AperFunction,NonConductor*%
D25*
G36*
X194200716Y-51538484D02*
G01*
X194331503Y-51645818D01*
X194480717Y-51725575D01*
X194642623Y-51774688D01*
X194811000Y-51791272D01*
X195261000Y-51791272D01*
X195429377Y-51774688D01*
X195591283Y-51725575D01*
X195740497Y-51645818D01*
X195751000Y-51637198D01*
X195751001Y-52815128D01*
X195560998Y-52815128D01*
X195387744Y-52832192D01*
X195221148Y-52882728D01*
X195067613Y-52964795D01*
X194933038Y-53075238D01*
X194822595Y-53209813D01*
X194789596Y-53271549D01*
X193752059Y-52234013D01*
X193729038Y-52205962D01*
X193617120Y-52114113D01*
X193489433Y-52045863D01*
X193350885Y-52003835D01*
X193242905Y-51993200D01*
X193206800Y-51989644D01*
X193170695Y-51993200D01*
X193151444Y-51993200D01*
X193065494Y-51922663D01*
X192955180Y-51863698D01*
X192835482Y-51827388D01*
X192711000Y-51815128D01*
X191211000Y-51815128D01*
X191170038Y-51819162D01*
X191172151Y-51797700D01*
X191245789Y-51797700D01*
X191426429Y-51761768D01*
X191596589Y-51691286D01*
X191749728Y-51588962D01*
X191825490Y-51513200D01*
X194179966Y-51513200D01*
X194200716Y-51538484D01*
G37*
%TD.AperFunction*%
D24*
X193846150Y-45423672D02*
X193996311Y-45469222D01*
X193956512Y-45600423D01*
X193939928Y-45768800D01*
X193939928Y-46268800D01*
X193956512Y-46437177D01*
X194005625Y-46599083D01*
X194085382Y-46748297D01*
X194126582Y-46798500D01*
X194085382Y-46848703D01*
X194005625Y-46997917D01*
X193956512Y-47159823D01*
X193939928Y-47328200D01*
X193939928Y-47828200D01*
X193956512Y-47996577D01*
X194005625Y-48158483D01*
X194085382Y-48307697D01*
X194122725Y-48353200D01*
X194085382Y-48398703D01*
X194005625Y-48547917D01*
X193956512Y-48709823D01*
X193939928Y-48878200D01*
X193939928Y-49378200D01*
X193956512Y-49546577D01*
X194005625Y-49708483D01*
X194077633Y-49843200D01*
X191379207Y-49843200D01*
X191338199Y-49839161D01*
X191297191Y-49843200D01*
X191297181Y-49843200D01*
X191174511Y-49855282D01*
X191043098Y-49895146D01*
X190987185Y-49827015D01*
X190890494Y-49747663D01*
X190860916Y-49731853D01*
X191099833Y-49492936D01*
X191131691Y-49466791D01*
X191225188Y-49352865D01*
X191236036Y-49339646D01*
X191313572Y-49194587D01*
X191358012Y-49048086D01*
X191361318Y-49037189D01*
X191373227Y-48916272D01*
X192111000Y-48916272D01*
X192235482Y-48904012D01*
X192355180Y-48867702D01*
X192465494Y-48808737D01*
X192562185Y-48729385D01*
X192641537Y-48632694D01*
X192700502Y-48522380D01*
X192736812Y-48402682D01*
X192749072Y-48278200D01*
X192749072Y-47032295D01*
X193523533Y-46257836D01*
X193555391Y-46231691D01*
X193584615Y-46196082D01*
X193659736Y-46104546D01*
X193737272Y-45959487D01*
X193785018Y-45802089D01*
X193793507Y-45715900D01*
X193797100Y-45679419D01*
X193797100Y-45679418D01*
X193801140Y-45638400D01*
X193797100Y-45597382D01*
X193797100Y-45397454D01*
X193846150Y-45423672D01*
%TA.AperFunction,NonConductor*%
D25*
G36*
X193846150Y-45423672D02*
G01*
X193996311Y-45469222D01*
X193956512Y-45600423D01*
X193939928Y-45768800D01*
X193939928Y-46268800D01*
X193956512Y-46437177D01*
X194005625Y-46599083D01*
X194085382Y-46748297D01*
X194126582Y-46798500D01*
X194085382Y-46848703D01*
X194005625Y-46997917D01*
X193956512Y-47159823D01*
X193939928Y-47328200D01*
X193939928Y-47828200D01*
X193956512Y-47996577D01*
X194005625Y-48158483D01*
X194085382Y-48307697D01*
X194122725Y-48353200D01*
X194085382Y-48398703D01*
X194005625Y-48547917D01*
X193956512Y-48709823D01*
X193939928Y-48878200D01*
X193939928Y-49378200D01*
X193956512Y-49546577D01*
X194005625Y-49708483D01*
X194077633Y-49843200D01*
X191379207Y-49843200D01*
X191338199Y-49839161D01*
X191297191Y-49843200D01*
X191297181Y-49843200D01*
X191174511Y-49855282D01*
X191043098Y-49895146D01*
X190987185Y-49827015D01*
X190890494Y-49747663D01*
X190860916Y-49731853D01*
X191099833Y-49492936D01*
X191131691Y-49466791D01*
X191225188Y-49352865D01*
X191236036Y-49339646D01*
X191313572Y-49194587D01*
X191358012Y-49048086D01*
X191361318Y-49037189D01*
X191373227Y-48916272D01*
X192111000Y-48916272D01*
X192235482Y-48904012D01*
X192355180Y-48867702D01*
X192465494Y-48808737D01*
X192562185Y-48729385D01*
X192641537Y-48632694D01*
X192700502Y-48522380D01*
X192736812Y-48402682D01*
X192749072Y-48278200D01*
X192749072Y-47032295D01*
X193523533Y-46257836D01*
X193555391Y-46231691D01*
X193584615Y-46196082D01*
X193659736Y-46104546D01*
X193737272Y-45959487D01*
X193785018Y-45802089D01*
X193793507Y-45715900D01*
X193797100Y-45679419D01*
X193797100Y-45679418D01*
X193801140Y-45638400D01*
X193797100Y-45597382D01*
X193797100Y-45397454D01*
X193846150Y-45423672D01*
G37*
%TD.AperFunction*%
D24*
X182739913Y-49175728D02*
X182594854Y-49253264D01*
X182467709Y-49357609D01*
X182363364Y-49484754D01*
X182285828Y-49629813D01*
X182282699Y-49640128D01*
X182106019Y-49640128D01*
X182577147Y-49169000D01*
X182762092Y-49169000D01*
X182739913Y-49175728D01*
%TA.AperFunction,NonConductor*%
D25*
G36*
X182739913Y-49175728D02*
G01*
X182594854Y-49253264D01*
X182467709Y-49357609D01*
X182363364Y-49484754D01*
X182285828Y-49629813D01*
X182282699Y-49640128D01*
X182106019Y-49640128D01*
X182577147Y-49169000D01*
X182762092Y-49169000D01*
X182739913Y-49175728D01*
G37*
%TD.AperFunction*%
D24*
X188438446Y-48072393D02*
X188461462Y-48100438D01*
X188572928Y-48191916D01*
X188572928Y-48278200D01*
X188585188Y-48402682D01*
X188621498Y-48522380D01*
X188680463Y-48632694D01*
X188759815Y-48729385D01*
X188856506Y-48808737D01*
X188966820Y-48867702D01*
X189086518Y-48904012D01*
X189211000Y-48916272D01*
X189314760Y-48916272D01*
X189115133Y-49115900D01*
X185151151Y-49115900D01*
X185278020Y-49048087D01*
X185389938Y-48956238D01*
X185412958Y-48928188D01*
X185799874Y-48541272D01*
X186361002Y-48541272D01*
X186534256Y-48524208D01*
X186700852Y-48473672D01*
X186854387Y-48391605D01*
X186988962Y-48281162D01*
X187099405Y-48146587D01*
X187181472Y-47993052D01*
X187232008Y-47826456D01*
X187249072Y-47653202D01*
X187249072Y-47213200D01*
X187579254Y-47213200D01*
X188438446Y-48072393D01*
%TA.AperFunction,NonConductor*%
D25*
G36*
X188438446Y-48072393D02*
G01*
X188461462Y-48100438D01*
X188572928Y-48191916D01*
X188572928Y-48278200D01*
X188585188Y-48402682D01*
X188621498Y-48522380D01*
X188680463Y-48632694D01*
X188759815Y-48729385D01*
X188856506Y-48808737D01*
X188966820Y-48867702D01*
X189086518Y-48904012D01*
X189211000Y-48916272D01*
X189314760Y-48916272D01*
X189115133Y-49115900D01*
X185151151Y-49115900D01*
X185278020Y-49048087D01*
X185389938Y-48956238D01*
X185412958Y-48928188D01*
X185799874Y-48541272D01*
X186361002Y-48541272D01*
X186534256Y-48524208D01*
X186700852Y-48473672D01*
X186854387Y-48391605D01*
X186988962Y-48281162D01*
X187099405Y-48146587D01*
X187181472Y-47993052D01*
X187232008Y-47826456D01*
X187249072Y-47653202D01*
X187249072Y-47213200D01*
X187579254Y-47213200D01*
X188438446Y-48072393D01*
G37*
%TD.AperFunction*%
D24*
X183548737Y-44059909D02*
X183564854Y-44073136D01*
X183709913Y-44150672D01*
X183867311Y-44198418D01*
X184030999Y-44214540D01*
X184072018Y-44210500D01*
X184494982Y-44210500D01*
X184536000Y-44214540D01*
X184699689Y-44198418D01*
X184857087Y-44150672D01*
X184902619Y-44126334D01*
X184582214Y-44446740D01*
X184534256Y-44432192D01*
X184361002Y-44415128D01*
X183460998Y-44415128D01*
X183287744Y-44432192D01*
X183121148Y-44482728D01*
X182967613Y-44564795D01*
X182833038Y-44675238D01*
X182722595Y-44809813D01*
X182640528Y-44963348D01*
X182589992Y-45129944D01*
X182572928Y-45303198D01*
X182572928Y-45828202D01*
X182589992Y-46001456D01*
X182640528Y-46168052D01*
X182722595Y-46321587D01*
X182833038Y-46456162D01*
X182859891Y-46478200D01*
X182833038Y-46500238D01*
X182722595Y-46634813D01*
X182705094Y-46667555D01*
X182570567Y-46708363D01*
X182442880Y-46776613D01*
X182330962Y-46868462D01*
X182307946Y-46896507D01*
X181825710Y-47378744D01*
X181846372Y-47340087D01*
X181894118Y-47182689D01*
X181896370Y-47159823D01*
X181910240Y-47019001D01*
X181906200Y-46977982D01*
X181906200Y-45422058D01*
X182039446Y-45350836D01*
X182166591Y-45246491D01*
X182192746Y-45214621D01*
X183438186Y-43969182D01*
X183548737Y-44059909D01*
%TA.AperFunction,NonConductor*%
D25*
G36*
X183548737Y-44059909D02*
G01*
X183564854Y-44073136D01*
X183709913Y-44150672D01*
X183867311Y-44198418D01*
X184030999Y-44214540D01*
X184072018Y-44210500D01*
X184494982Y-44210500D01*
X184536000Y-44214540D01*
X184699689Y-44198418D01*
X184857087Y-44150672D01*
X184902619Y-44126334D01*
X184582214Y-44446740D01*
X184534256Y-44432192D01*
X184361002Y-44415128D01*
X183460998Y-44415128D01*
X183287744Y-44432192D01*
X183121148Y-44482728D01*
X182967613Y-44564795D01*
X182833038Y-44675238D01*
X182722595Y-44809813D01*
X182640528Y-44963348D01*
X182589992Y-45129944D01*
X182572928Y-45303198D01*
X182572928Y-45828202D01*
X182589992Y-46001456D01*
X182640528Y-46168052D01*
X182722595Y-46321587D01*
X182833038Y-46456162D01*
X182859891Y-46478200D01*
X182833038Y-46500238D01*
X182722595Y-46634813D01*
X182705094Y-46667555D01*
X182570567Y-46708363D01*
X182442880Y-46776613D01*
X182330962Y-46868462D01*
X182307946Y-46896507D01*
X181825710Y-47378744D01*
X181846372Y-47340087D01*
X181894118Y-47182689D01*
X181896370Y-47159823D01*
X181910240Y-47019001D01*
X181906200Y-46977982D01*
X181906200Y-45422058D01*
X182039446Y-45350836D01*
X182166591Y-45246491D01*
X182192746Y-45214621D01*
X183438186Y-43969182D01*
X183548737Y-44059909D01*
G37*
%TD.AperFunction*%
D24*
X187776000Y-44830700D02*
X187110569Y-44830700D01*
X187099405Y-44809813D01*
X186988962Y-44675238D01*
X186854387Y-44564795D01*
X186700852Y-44482728D01*
X186642745Y-44465102D01*
X187097347Y-44010500D01*
X187776000Y-44010500D01*
X187776000Y-44830700D01*
%TA.AperFunction,NonConductor*%
D25*
G36*
X187776000Y-44830700D02*
G01*
X187110569Y-44830700D01*
X187099405Y-44809813D01*
X186988962Y-44675238D01*
X186854387Y-44564795D01*
X186700852Y-44482728D01*
X186642745Y-44465102D01*
X187097347Y-44010500D01*
X187776000Y-44010500D01*
X187776000Y-44830700D01*
G37*
%TD.AperFunction*%
D24*
X189786518Y-43674012D02*
X189911000Y-43686272D01*
X190207699Y-43686272D01*
X190210828Y-43696587D01*
X190288364Y-43841646D01*
X190392709Y-43968791D01*
X190519854Y-44073136D01*
X190567894Y-44098814D01*
X190521000Y-44123880D01*
X190455180Y-44088698D01*
X190335482Y-44052388D01*
X190211000Y-44040128D01*
X189246000Y-44040128D01*
X189246000Y-43677901D01*
X189261000Y-43676423D01*
X189361000Y-43686272D01*
X189661000Y-43686272D01*
X189785482Y-43674012D01*
X189786000Y-43673855D01*
X189786518Y-43674012D01*
%TA.AperFunction,NonConductor*%
D25*
G36*
X189786518Y-43674012D02*
G01*
X189911000Y-43686272D01*
X190207699Y-43686272D01*
X190210828Y-43696587D01*
X190288364Y-43841646D01*
X190392709Y-43968791D01*
X190519854Y-44073136D01*
X190567894Y-44098814D01*
X190521000Y-44123880D01*
X190455180Y-44088698D01*
X190335482Y-44052388D01*
X190211000Y-44040128D01*
X189246000Y-44040128D01*
X189246000Y-43677901D01*
X189261000Y-43676423D01*
X189361000Y-43686272D01*
X189661000Y-43686272D01*
X189785482Y-43674012D01*
X189786000Y-43673855D01*
X189786518Y-43674012D01*
G37*
%TD.AperFunction*%
D24*
X185286835Y-43742119D02*
X185311172Y-43696587D01*
X185314301Y-43686272D01*
X185342681Y-43686272D01*
X185286835Y-43742119D01*
%TA.AperFunction,NonConductor*%
D25*
G36*
X185286835Y-43742119D02*
G01*
X185311172Y-43696587D01*
X185314301Y-43686272D01*
X185342681Y-43686272D01*
X185286835Y-43742119D01*
G37*
%TD.AperFunction*%
D24*
X193846150Y-42623672D02*
X194012746Y-42674208D01*
X194186000Y-42691272D01*
X195223500Y-42691272D01*
X195223500Y-42965128D01*
X194186000Y-42965128D01*
X194012746Y-42982192D01*
X193846150Y-43032728D01*
X193797100Y-43058946D01*
X193797100Y-42597454D01*
X193846150Y-42623672D01*
%TA.AperFunction,NonConductor*%
D25*
G36*
X193846150Y-42623672D02*
G01*
X194012746Y-42674208D01*
X194186000Y-42691272D01*
X195223500Y-42691272D01*
X195223500Y-42965128D01*
X194186000Y-42965128D01*
X194012746Y-42982192D01*
X193846150Y-43032728D01*
X193797100Y-43058946D01*
X193797100Y-42597454D01*
X193846150Y-42623672D01*
G37*
%TD.AperFunction*%
D24*
X193667613Y-40041605D02*
X193821148Y-40123672D01*
X193987744Y-40174208D01*
X194040777Y-40179431D01*
X194012746Y-40182192D01*
X193846150Y-40232728D01*
X193758783Y-40279427D01*
X193737272Y-40208513D01*
X193659736Y-40063454D01*
X193588565Y-39976732D01*
X193667613Y-40041605D01*
%TA.AperFunction,NonConductor*%
D25*
G36*
X193667613Y-40041605D02*
G01*
X193821148Y-40123672D01*
X193987744Y-40174208D01*
X194040777Y-40179431D01*
X194012746Y-40182192D01*
X193846150Y-40232728D01*
X193758783Y-40279427D01*
X193737272Y-40208513D01*
X193659736Y-40063454D01*
X193588565Y-39976732D01*
X193667613Y-40041605D01*
G37*
%TD.AperFunction*%
D24*
X195810101Y-40251036D02*
X195775850Y-40232728D01*
X195609254Y-40182192D01*
X195436000Y-40165128D01*
X195264189Y-40165128D01*
X195400852Y-40123672D01*
X195554387Y-40041605D01*
X195688962Y-39931162D01*
X195799405Y-39796587D01*
X195810101Y-39776577D01*
X195810101Y-40251036D01*
%TA.AperFunction,NonConductor*%
D25*
G36*
X195810101Y-40251036D02*
G01*
X195775850Y-40232728D01*
X195609254Y-40182192D01*
X195436000Y-40165128D01*
X195264189Y-40165128D01*
X195400852Y-40123672D01*
X195554387Y-40041605D01*
X195688962Y-39931162D01*
X195799405Y-39796587D01*
X195810101Y-39776577D01*
X195810101Y-40251036D01*
G37*
%TD.AperFunction*%
D24*
X193422595Y-39796587D02*
X193480444Y-39867076D01*
X193389068Y-39775700D01*
X193411431Y-39775700D01*
X193422595Y-39796587D01*
%TA.AperFunction,NonConductor*%
D25*
G36*
X193422595Y-39796587D02*
G01*
X193480444Y-39867076D01*
X193389068Y-39775700D01*
X193411431Y-39775700D01*
X193422595Y-39796587D01*
G37*
%TD.AperFunction*%
D24*
X190946000Y-37583951D02*
X190962423Y-37750698D01*
X191027324Y-37964646D01*
X191132716Y-38161823D01*
X191175650Y-38214138D01*
X190996989Y-38178600D01*
X190812811Y-38178600D01*
X190632171Y-38214532D01*
X190462011Y-38285014D01*
X190308872Y-38387338D01*
X190178638Y-38517572D01*
X190076314Y-38670711D01*
X190005832Y-38840871D01*
X189969900Y-39021511D01*
X189969900Y-39205689D01*
X190005832Y-39386329D01*
X190006514Y-39387976D01*
X189983809Y-39406609D01*
X189957658Y-39438474D01*
X189790484Y-39605649D01*
X189777400Y-39604360D01*
X189736382Y-39608400D01*
X186220418Y-39608400D01*
X186179400Y-39604360D01*
X186138381Y-39608400D01*
X186015711Y-39620482D01*
X185858313Y-39668228D01*
X185713254Y-39745764D01*
X185606838Y-39833097D01*
X185645968Y-39738629D01*
X185681900Y-39557989D01*
X185681900Y-39373811D01*
X185645968Y-39193171D01*
X185575486Y-39023011D01*
X185473162Y-38869872D01*
X185342928Y-38739638D01*
X185189789Y-38637314D01*
X185019629Y-38566832D01*
X184857103Y-38534503D01*
X184843938Y-38518462D01*
X184732020Y-38426613D01*
X184604333Y-38358363D01*
X184465785Y-38316335D01*
X184357805Y-38305700D01*
X184321700Y-38302144D01*
X184285595Y-38305700D01*
X184271207Y-38305700D01*
X184389284Y-38161823D01*
X184494676Y-37964647D01*
X184559577Y-37750699D01*
X184576000Y-37583952D01*
X184576000Y-37499500D01*
X190946000Y-37499500D01*
X190946000Y-37583951D01*
%TA.AperFunction,NonConductor*%
D25*
G36*
X190946000Y-37583951D02*
G01*
X190962423Y-37750698D01*
X191027324Y-37964646D01*
X191132716Y-38161823D01*
X191175650Y-38214138D01*
X190996989Y-38178600D01*
X190812811Y-38178600D01*
X190632171Y-38214532D01*
X190462011Y-38285014D01*
X190308872Y-38387338D01*
X190178638Y-38517572D01*
X190076314Y-38670711D01*
X190005832Y-38840871D01*
X189969900Y-39021511D01*
X189969900Y-39205689D01*
X190005832Y-39386329D01*
X190006514Y-39387976D01*
X189983809Y-39406609D01*
X189957658Y-39438474D01*
X189790484Y-39605649D01*
X189777400Y-39604360D01*
X189736382Y-39608400D01*
X186220418Y-39608400D01*
X186179400Y-39604360D01*
X186138381Y-39608400D01*
X186015711Y-39620482D01*
X185858313Y-39668228D01*
X185713254Y-39745764D01*
X185606838Y-39833097D01*
X185645968Y-39738629D01*
X185681900Y-39557989D01*
X185681900Y-39373811D01*
X185645968Y-39193171D01*
X185575486Y-39023011D01*
X185473162Y-38869872D01*
X185342928Y-38739638D01*
X185189789Y-38637314D01*
X185019629Y-38566832D01*
X184857103Y-38534503D01*
X184843938Y-38518462D01*
X184732020Y-38426613D01*
X184604333Y-38358363D01*
X184465785Y-38316335D01*
X184357805Y-38305700D01*
X184321700Y-38302144D01*
X184285595Y-38305700D01*
X184271207Y-38305700D01*
X184389284Y-38161823D01*
X184494676Y-37964647D01*
X184559577Y-37750699D01*
X184576000Y-37583952D01*
X184576000Y-37499500D01*
X190946000Y-37499500D01*
X190946000Y-37583951D01*
G37*
%TD.AperFunction*%
D24*
X183874793Y-39803719D02*
X183782428Y-39775700D01*
X183863187Y-39775700D01*
X183874793Y-39803719D01*
%TA.AperFunction,NonConductor*%
D25*
G36*
X183874793Y-39803719D02*
G01*
X183782428Y-39775700D01*
X183863187Y-39775700D01*
X183874793Y-39803719D01*
G37*
%TD.AperFunction*%
D24*
X196077221Y-36397464D02*
X196288114Y-36461136D01*
X196482619Y-36564557D01*
X196653337Y-36703791D01*
X196793754Y-36873526D01*
X196898534Y-37067313D01*
X196963675Y-37277751D01*
X196989867Y-37526953D01*
X196989867Y-38413698D01*
X195949072Y-37372904D01*
X195949072Y-36953198D01*
X195932008Y-36779944D01*
X195881472Y-36613348D01*
X195799405Y-36459813D01*
X195728020Y-36372830D01*
X195825993Y-36372830D01*
X196077221Y-36397464D01*
%TA.AperFunction,NonConductor*%
D25*
G36*
X196077221Y-36397464D02*
G01*
X196288114Y-36461136D01*
X196482619Y-36564557D01*
X196653337Y-36703791D01*
X196793754Y-36873526D01*
X196898534Y-37067313D01*
X196963675Y-37277751D01*
X196989867Y-37526953D01*
X196989867Y-38413698D01*
X195949072Y-37372904D01*
X195949072Y-36953198D01*
X195932008Y-36779944D01*
X195881472Y-36613348D01*
X195799405Y-36459813D01*
X195728020Y-36372830D01*
X195825993Y-36372830D01*
X196077221Y-36397464D01*
G37*
%TD.AperFunction*%
D24*
X193272928Y-37058495D02*
X193272928Y-37478202D01*
X193289992Y-37651456D01*
X193340528Y-37818052D01*
X193422595Y-37971587D01*
X193533038Y-38106162D01*
X193559891Y-38128200D01*
X193533038Y-38150238D01*
X193422595Y-38284813D01*
X193411431Y-38305700D01*
X192911207Y-38305700D01*
X193029284Y-38161823D01*
X193134676Y-37964647D01*
X193199577Y-37750699D01*
X193216000Y-37583952D01*
X193216000Y-37001567D01*
X193272928Y-37058495D01*
%TA.AperFunction,NonConductor*%
D25*
G36*
X193272928Y-37058495D02*
G01*
X193272928Y-37478202D01*
X193289992Y-37651456D01*
X193340528Y-37818052D01*
X193422595Y-37971587D01*
X193533038Y-38106162D01*
X193559891Y-38128200D01*
X193533038Y-38150238D01*
X193422595Y-38284813D01*
X193411431Y-38305700D01*
X192911207Y-38305700D01*
X193029284Y-38161823D01*
X193134676Y-37964647D01*
X193199577Y-37750699D01*
X193216000Y-37583952D01*
X193216000Y-37001567D01*
X193272928Y-37058495D01*
G37*
%TD.AperFunction*%
D24*
X182387324Y-37964646D02*
X182492716Y-38161823D01*
X182610793Y-38305700D01*
X182110569Y-38305700D01*
X182099405Y-38284813D01*
X181988962Y-38150238D01*
X181962109Y-38128200D01*
X181988962Y-38106162D01*
X182099405Y-37971587D01*
X182181472Y-37818052D01*
X182201023Y-37753600D01*
X182323303Y-37753600D01*
X182387324Y-37964646D01*
%TA.AperFunction,NonConductor*%
D25*
G36*
X182387324Y-37964646D02*
G01*
X182492716Y-38161823D01*
X182610793Y-38305700D01*
X182110569Y-38305700D01*
X182099405Y-38284813D01*
X181988962Y-38150238D01*
X181962109Y-38128200D01*
X181988962Y-38106162D01*
X182099405Y-37971587D01*
X182181472Y-37818052D01*
X182201023Y-37753600D01*
X182323303Y-37753600D01*
X182387324Y-37964646D01*
G37*
%TD.AperFunction*%
M02*
