%TF.GenerationSoftware,KiCad,Pcbnew,(5.1.7)-1*%
%TF.CreationDate,2020-10-17T05:15:24-04:00*%
%TF.ProjectId,OreoOrtho,4f72656f-4f72-4746-986f-2e6b69636164,rev?*%
%TF.SameCoordinates,Original*%
%TF.FileFunction,Legend,Bot*%
%TF.FilePolarity,Positive*%
%FSLAX46Y46*%
G04 Gerber Fmt 4.6, Leading zero omitted, Abs format (unit mm)*
G04 Created by KiCad (PCBNEW (5.1.7)-1) date 2020-10-17 05:15:24*
%MOMM*%
%LPD*%
G01*
G04 APERTURE LIST*
%ADD10C,0.120000*%
%ADD11C,0.150000*%
G04 APERTURE END LIST*
D10*
%TO.C,LED2*%
X137250000Y-62162500D02*
X137250000Y-63762500D01*
X129450000Y-60062500D02*
X137250000Y-60062500D01*
X137250000Y-63762500D02*
X129450000Y-63762500D01*
D11*
%TO.C,D1*%
X121884000Y-64612400D02*
X121884000Y-59212400D01*
X123384000Y-59212400D02*
X123384000Y-64612400D01*
X123384000Y-64612400D02*
X121884000Y-64612400D01*
X123384000Y-59212400D02*
X121884000Y-59212400D01*
X123134000Y-61412400D02*
X122134000Y-61412400D01*
X122134000Y-61412400D02*
X122634000Y-62312400D01*
X122634000Y-62312400D02*
X123134000Y-61412400D01*
X123134000Y-62412400D02*
X122134000Y-62412400D01*
%TO.C,D6*%
X158794000Y-74137500D02*
X158794000Y-68737500D01*
X160294000Y-68737500D02*
X160294000Y-74137500D01*
X160294000Y-74137500D02*
X158794000Y-74137500D01*
X160294000Y-68737500D02*
X158794000Y-68737500D01*
X160044000Y-70937500D02*
X159044000Y-70937500D01*
X159044000Y-70937500D02*
X159544000Y-71837500D01*
X159544000Y-71837500D02*
X160044000Y-70937500D01*
X160044000Y-71937500D02*
X159044000Y-71937500D01*
%TO.C,D5*%
X124266000Y-74137400D02*
X124266000Y-68737400D01*
X125766000Y-68737400D02*
X125766000Y-74137400D01*
X125766000Y-74137400D02*
X124266000Y-74137400D01*
X125766000Y-68737400D02*
X124266000Y-68737400D01*
X125516000Y-70937400D02*
X124516000Y-70937400D01*
X124516000Y-70937400D02*
X125016000Y-71837400D01*
X125016000Y-71837400D02*
X125516000Y-70937400D01*
X125516000Y-71937400D02*
X124516000Y-71937400D01*
%TO.C,D4*%
X121884000Y-74137500D02*
X121884000Y-68737500D01*
X123384000Y-68737500D02*
X123384000Y-74137500D01*
X123384000Y-74137500D02*
X121884000Y-74137500D01*
X123384000Y-68737500D02*
X121884000Y-68737500D01*
X123134000Y-70937500D02*
X122134000Y-70937500D01*
X122134000Y-70937500D02*
X122634000Y-71837500D01*
X122634000Y-71837500D02*
X123134000Y-70937500D01*
X123134000Y-71937500D02*
X122134000Y-71937500D01*
%TO.C,D3*%
X158794000Y-64612500D02*
X158794000Y-59212500D01*
X160294000Y-59212500D02*
X160294000Y-64612500D01*
X160294000Y-64612500D02*
X158794000Y-64612500D01*
X160294000Y-59212500D02*
X158794000Y-59212500D01*
X160044000Y-61412500D02*
X159044000Y-61412500D01*
X159044000Y-61412500D02*
X159544000Y-62312500D01*
X159544000Y-62312500D02*
X160044000Y-61412500D01*
X160044000Y-62412500D02*
X159044000Y-62412500D01*
%TO.C,D2*%
X124266000Y-64612400D02*
X124266000Y-59212400D01*
X125766000Y-59212400D02*
X125766000Y-64612400D01*
X125766000Y-64612400D02*
X124266000Y-64612400D01*
X125766000Y-59212400D02*
X124266000Y-59212400D01*
X125516000Y-61412400D02*
X124516000Y-61412400D01*
X124516000Y-61412400D02*
X125016000Y-62312400D01*
X125016000Y-62312400D02*
X125516000Y-61412400D01*
X125516000Y-62412400D02*
X124516000Y-62412400D01*
D10*
%TO.C,Y1*%
X148959000Y-64570300D02*
X153459000Y-64570300D01*
X153459000Y-64570300D02*
X153459000Y-69970300D01*
D11*
%TO.C,U1*%
X146500000Y-64240600D02*
X146500000Y-64465600D01*
X139250000Y-64240600D02*
X139250000Y-64565600D01*
X139250000Y-71490600D02*
X139250000Y-71165600D01*
X146500000Y-71490600D02*
X146500000Y-71165600D01*
X146500000Y-64240600D02*
X146175000Y-64240600D01*
X146500000Y-71490600D02*
X146175000Y-71490600D01*
X139250000Y-71490600D02*
X139575000Y-71490600D01*
X139250000Y-64240600D02*
X139575000Y-64240600D01*
X146500000Y-64465600D02*
X147925000Y-64465600D01*
%TO.C,RST_SW1*%
X143875000Y-80962400D02*
G75*
G03*
X143875000Y-80962400I-1000000J0D01*
G01*
X145475000Y-83562400D02*
X145475000Y-78362400D01*
X140275000Y-83562400D02*
X145475000Y-83562400D01*
X140275000Y-78362400D02*
X140275000Y-83562400D01*
X145475000Y-78362400D02*
X140275000Y-78362400D01*
D10*
%TO.C,R6*%
X149791936Y-50145900D02*
X150246064Y-50145900D01*
X149791936Y-48675900D02*
X150246064Y-48675900D01*
%TO.C,R5*%
X145396000Y-60948964D02*
X145396000Y-60494836D01*
X143926000Y-60948964D02*
X143926000Y-60494836D01*
%TO.C,R4*%
X140354000Y-60494836D02*
X140354000Y-60948964D01*
X141824000Y-60494836D02*
X141824000Y-60948964D01*
%TO.C,R3*%
X135958064Y-48675900D02*
X135503936Y-48675900D01*
X135958064Y-50145900D02*
X135503936Y-50145900D01*
%TO.C,R2*%
X140949000Y-75377536D02*
X140949000Y-75831664D01*
X142419000Y-75377536D02*
X142419000Y-75831664D01*
%TO.C,R1*%
X144801000Y-75831664D02*
X144801000Y-75377536D01*
X143331000Y-75831664D02*
X143331000Y-75377536D01*
%TO.C,LED6*%
X118200000Y-81212500D02*
X118200000Y-82812500D01*
X110400000Y-79112500D02*
X118200000Y-79112500D01*
X118200000Y-82812500D02*
X110400000Y-82812500D01*
%TO.C,LED5*%
X137250000Y-81212500D02*
X137250000Y-82812500D01*
X129450000Y-79112500D02*
X137250000Y-79112500D01*
X137250000Y-82812500D02*
X129450000Y-82812500D01*
%TO.C,LED4*%
X156300000Y-81212500D02*
X156300000Y-82812500D01*
X148500000Y-79112500D02*
X156300000Y-79112500D01*
X156300000Y-82812500D02*
X148500000Y-82812500D01*
%TO.C,LED3*%
X156300000Y-62162500D02*
X156300000Y-63762500D01*
X148500000Y-60062500D02*
X156300000Y-60062500D01*
X156300000Y-63762500D02*
X148500000Y-63762500D01*
%TO.C,LED1*%
X118200000Y-62162500D02*
X118200000Y-63762500D01*
X110400000Y-60062500D02*
X118200000Y-60062500D01*
X118200000Y-63762500D02*
X110400000Y-63762500D01*
%TO.C,F1*%
X135451000Y-66681664D02*
X135451000Y-65477536D01*
X133631000Y-66681664D02*
X133631000Y-65477536D01*
%TO.C,U2*%
X143480000Y-58104600D02*
X141080000Y-58104600D01*
X141080000Y-55004600D02*
X144030000Y-55004600D01*
%TO.C,C6*%
X150159580Y-70927400D02*
X149878420Y-70927400D01*
X150159580Y-71947400D02*
X149878420Y-71947400D01*
%TO.C,C5*%
X146532000Y-60581320D02*
X146532000Y-60862480D01*
X147552000Y-60581320D02*
X147552000Y-60862480D01*
%TO.C,C4*%
X144746000Y-57009420D02*
X144746000Y-57290580D01*
X145766000Y-57009420D02*
X145766000Y-57290580D01*
%TO.C,C3*%
X138198000Y-60581320D02*
X138198000Y-60862480D01*
X139218000Y-60581320D02*
X139218000Y-60862480D01*
%TO.C,C2*%
X155516580Y-67355600D02*
X155235420Y-67355600D01*
X155516580Y-68375600D02*
X155235420Y-68375600D01*
%TO.C,C1*%
X155516580Y-64974300D02*
X155235420Y-64974300D01*
X155516580Y-65994300D02*
X155235420Y-65994300D01*
%TO.C,USB1*%
D11*
X144613095Y-49458642D02*
X144613095Y-50268166D01*
X144565476Y-50363404D01*
X144517857Y-50411023D01*
X144422619Y-50458642D01*
X144232142Y-50458642D01*
X144136904Y-50411023D01*
X144089285Y-50363404D01*
X144041666Y-50268166D01*
X144041666Y-49458642D01*
X143613095Y-50411023D02*
X143470238Y-50458642D01*
X143232142Y-50458642D01*
X143136904Y-50411023D01*
X143089285Y-50363404D01*
X143041666Y-50268166D01*
X143041666Y-50172928D01*
X143089285Y-50077690D01*
X143136904Y-50030071D01*
X143232142Y-49982452D01*
X143422619Y-49934833D01*
X143517857Y-49887214D01*
X143565476Y-49839595D01*
X143613095Y-49744357D01*
X143613095Y-49649119D01*
X143565476Y-49553881D01*
X143517857Y-49506262D01*
X143422619Y-49458642D01*
X143184523Y-49458642D01*
X143041666Y-49506262D01*
X142279761Y-49934833D02*
X142136904Y-49982452D01*
X142089285Y-50030071D01*
X142041666Y-50125309D01*
X142041666Y-50268166D01*
X142089285Y-50363404D01*
X142136904Y-50411023D01*
X142232142Y-50458642D01*
X142613095Y-50458642D01*
X142613095Y-49458642D01*
X142279761Y-49458642D01*
X142184523Y-49506262D01*
X142136904Y-49553881D01*
X142089285Y-49649119D01*
X142089285Y-49744357D01*
X142136904Y-49839595D01*
X142184523Y-49887214D01*
X142279761Y-49934833D01*
X142613095Y-49934833D01*
X141089285Y-50458642D02*
X141660714Y-50458642D01*
X141375000Y-50458642D02*
X141375000Y-49458642D01*
X141470238Y-49601500D01*
X141565476Y-49696738D01*
X141660714Y-49744357D01*
%TO.C,LED2*%
X134469047Y-67127380D02*
X134945238Y-67127380D01*
X134945238Y-66127380D01*
X134135714Y-66603571D02*
X133802380Y-66603571D01*
X133659523Y-67127380D02*
X134135714Y-67127380D01*
X134135714Y-66127380D01*
X133659523Y-66127380D01*
X133230952Y-67127380D02*
X133230952Y-66127380D01*
X132992857Y-66127380D01*
X132850000Y-66175000D01*
X132754761Y-66270238D01*
X132707142Y-66365476D01*
X132659523Y-66555952D01*
X132659523Y-66698809D01*
X132707142Y-66889285D01*
X132754761Y-66984523D01*
X132850000Y-67079761D01*
X132992857Y-67127380D01*
X133230952Y-67127380D01*
X132278571Y-66222619D02*
X132230952Y-66175000D01*
X132135714Y-66127380D01*
X131897619Y-66127380D01*
X131802380Y-66175000D01*
X131754761Y-66222619D01*
X131707142Y-66317857D01*
X131707142Y-66413095D01*
X131754761Y-66555952D01*
X132326190Y-67127380D01*
X131707142Y-67127380D01*
%TO.C,Y1*%
X148135190Y-66794109D02*
X148611380Y-66794109D01*
X147611380Y-66460776D02*
X148135190Y-66794109D01*
X147611380Y-67127442D01*
X148611380Y-67984585D02*
X148611380Y-67413157D01*
X148611380Y-67698871D02*
X147611380Y-67698871D01*
X147754238Y-67603633D01*
X147849476Y-67508395D01*
X147897095Y-67413157D01*
%TO.C,U1*%
X143637024Y-67317923D02*
X143637024Y-68127447D01*
X143589405Y-68222685D01*
X143541786Y-68270304D01*
X143446548Y-68317923D01*
X143256072Y-68317923D01*
X143160834Y-68270304D01*
X143113215Y-68222685D01*
X143065596Y-68127447D01*
X143065596Y-67317923D01*
X142065596Y-68317923D02*
X142637024Y-68317923D01*
X142351310Y-68317923D02*
X142351310Y-67317923D01*
X142446548Y-67460781D01*
X142541786Y-67556019D01*
X142637024Y-67603638D01*
%TO.C,RST_SW1*%
X145327380Y-85478780D02*
X145660714Y-85002590D01*
X145898809Y-85478780D02*
X145898809Y-84478780D01*
X145517857Y-84478780D01*
X145422619Y-84526400D01*
X145375000Y-84574019D01*
X145327380Y-84669257D01*
X145327380Y-84812114D01*
X145375000Y-84907352D01*
X145422619Y-84954971D01*
X145517857Y-85002590D01*
X145898809Y-85002590D01*
X144946428Y-85431161D02*
X144803571Y-85478780D01*
X144565476Y-85478780D01*
X144470238Y-85431161D01*
X144422619Y-85383542D01*
X144375000Y-85288304D01*
X144375000Y-85193066D01*
X144422619Y-85097828D01*
X144470238Y-85050209D01*
X144565476Y-85002590D01*
X144755952Y-84954971D01*
X144851190Y-84907352D01*
X144898809Y-84859733D01*
X144946428Y-84764495D01*
X144946428Y-84669257D01*
X144898809Y-84574019D01*
X144851190Y-84526400D01*
X144755952Y-84478780D01*
X144517857Y-84478780D01*
X144375000Y-84526400D01*
X144089285Y-84478780D02*
X143517857Y-84478780D01*
X143803571Y-85478780D02*
X143803571Y-84478780D01*
X143422619Y-85574019D02*
X142660714Y-85574019D01*
X142470238Y-85431161D02*
X142327380Y-85478780D01*
X142089285Y-85478780D01*
X141994047Y-85431161D01*
X141946428Y-85383542D01*
X141898809Y-85288304D01*
X141898809Y-85193066D01*
X141946428Y-85097828D01*
X141994047Y-85050209D01*
X142089285Y-85002590D01*
X142279761Y-84954971D01*
X142375000Y-84907352D01*
X142422619Y-84859733D01*
X142470238Y-84764495D01*
X142470238Y-84669257D01*
X142422619Y-84574019D01*
X142375000Y-84526400D01*
X142279761Y-84478780D01*
X142041666Y-84478780D01*
X141898809Y-84526400D01*
X141565476Y-84478780D02*
X141327380Y-85478780D01*
X141136904Y-84764495D01*
X140946428Y-85478780D01*
X140708333Y-84478780D01*
X139803571Y-85478780D02*
X140374999Y-85478780D01*
X140089285Y-85478780D02*
X140089285Y-84478780D01*
X140184523Y-84621638D01*
X140279761Y-84716876D01*
X140374999Y-84764495D01*
%TO.C,R6*%
X150185666Y-51513280D02*
X150519000Y-51037090D01*
X150757095Y-51513280D02*
X150757095Y-50513280D01*
X150376142Y-50513280D01*
X150280904Y-50560900D01*
X150233285Y-50608519D01*
X150185666Y-50703757D01*
X150185666Y-50846614D01*
X150233285Y-50941852D01*
X150280904Y-50989471D01*
X150376142Y-51037090D01*
X150757095Y-51037090D01*
X149328523Y-50513280D02*
X149519000Y-50513280D01*
X149614238Y-50560900D01*
X149661857Y-50608519D01*
X149757095Y-50751376D01*
X149804714Y-50941852D01*
X149804714Y-51322804D01*
X149757095Y-51418042D01*
X149709476Y-51465661D01*
X149614238Y-51513280D01*
X149423761Y-51513280D01*
X149328523Y-51465661D01*
X149280904Y-51418042D01*
X149233285Y-51322804D01*
X149233285Y-51084709D01*
X149280904Y-50989471D01*
X149328523Y-50941852D01*
X149423761Y-50894233D01*
X149614238Y-50894233D01*
X149709476Y-50941852D01*
X149757095Y-50989471D01*
X149804714Y-51084709D01*
%TO.C,R5*%
X146018047Y-58792981D02*
X146351381Y-58316791D01*
X146589476Y-58792981D02*
X146589476Y-57792981D01*
X146208523Y-57792981D01*
X146113285Y-57840601D01*
X146065666Y-57888220D01*
X146018047Y-57983458D01*
X146018047Y-58126315D01*
X146065666Y-58221553D01*
X146113285Y-58269172D01*
X146208523Y-58316791D01*
X146589476Y-58316791D01*
X145113285Y-57792981D02*
X145589476Y-57792981D01*
X145637095Y-58269172D01*
X145589476Y-58221553D01*
X145494238Y-58173934D01*
X145256142Y-58173934D01*
X145160904Y-58221553D01*
X145113285Y-58269172D01*
X145065666Y-58364410D01*
X145065666Y-58602505D01*
X145113285Y-58697743D01*
X145160904Y-58745362D01*
X145256142Y-58792981D01*
X145494238Y-58792981D01*
X145589476Y-58745362D01*
X145637095Y-58697743D01*
%TO.C,R4*%
X140065042Y-58792930D02*
X140398376Y-58316740D01*
X140636471Y-58792930D02*
X140636471Y-57792930D01*
X140255518Y-57792930D01*
X140160280Y-57840550D01*
X140112661Y-57888169D01*
X140065042Y-57983407D01*
X140065042Y-58126264D01*
X140112661Y-58221502D01*
X140160280Y-58269121D01*
X140255518Y-58316740D01*
X140636471Y-58316740D01*
X139207899Y-58126264D02*
X139207899Y-58792930D01*
X139445995Y-57745311D02*
X139684090Y-58459597D01*
X139065042Y-58459597D01*
%TO.C,R3*%
X135897666Y-48213280D02*
X136231000Y-47737090D01*
X136469095Y-48213280D02*
X136469095Y-47213280D01*
X136088142Y-47213280D01*
X135992904Y-47260900D01*
X135945285Y-47308519D01*
X135897666Y-47403757D01*
X135897666Y-47546614D01*
X135945285Y-47641852D01*
X135992904Y-47689471D01*
X136088142Y-47737090D01*
X136469095Y-47737090D01*
X135564333Y-47213280D02*
X134945285Y-47213280D01*
X135278619Y-47594233D01*
X135135761Y-47594233D01*
X135040523Y-47641852D01*
X134992904Y-47689471D01*
X134945285Y-47784709D01*
X134945285Y-48022804D01*
X134992904Y-48118042D01*
X135040523Y-48165661D01*
X135135761Y-48213280D01*
X135421476Y-48213280D01*
X135516714Y-48165661D01*
X135564333Y-48118042D01*
%TO.C,R2*%
X140486380Y-75437933D02*
X140010190Y-75104600D01*
X140486380Y-74866504D02*
X139486380Y-74866504D01*
X139486380Y-75247457D01*
X139534000Y-75342695D01*
X139581619Y-75390314D01*
X139676857Y-75437933D01*
X139819714Y-75437933D01*
X139914952Y-75390314D01*
X139962571Y-75342695D01*
X140010190Y-75247457D01*
X140010190Y-74866504D01*
X139581619Y-75818885D02*
X139534000Y-75866504D01*
X139486380Y-75961742D01*
X139486380Y-76199838D01*
X139534000Y-76295076D01*
X139581619Y-76342695D01*
X139676857Y-76390314D01*
X139772095Y-76390314D01*
X139914952Y-76342695D01*
X140486380Y-75771266D01*
X140486380Y-76390314D01*
%TO.C,R1*%
X146168380Y-75437933D02*
X145692190Y-75104600D01*
X146168380Y-74866504D02*
X145168380Y-74866504D01*
X145168380Y-75247457D01*
X145216000Y-75342695D01*
X145263619Y-75390314D01*
X145358857Y-75437933D01*
X145501714Y-75437933D01*
X145596952Y-75390314D01*
X145644571Y-75342695D01*
X145692190Y-75247457D01*
X145692190Y-74866504D01*
X146168380Y-76390314D02*
X146168380Y-75818885D01*
X146168380Y-76104600D02*
X145168380Y-76104600D01*
X145311238Y-76009361D01*
X145406476Y-75914123D01*
X145454095Y-75818885D01*
%TO.C,LED6*%
X115312172Y-86177380D02*
X115788363Y-86177380D01*
X115788363Y-85177380D01*
X114978839Y-85653571D02*
X114645505Y-85653571D01*
X114502648Y-86177380D02*
X114978839Y-86177380D01*
X114978839Y-85177380D01*
X114502648Y-85177380D01*
X114074077Y-86177380D02*
X114074077Y-85177380D01*
X113835982Y-85177380D01*
X113693125Y-85225000D01*
X113597886Y-85320238D01*
X113550267Y-85415476D01*
X113502648Y-85605952D01*
X113502648Y-85748809D01*
X113550267Y-85939285D01*
X113597886Y-86034523D01*
X113693125Y-86129761D01*
X113835982Y-86177380D01*
X114074077Y-86177380D01*
X112645505Y-85177380D02*
X112835982Y-85177380D01*
X112931220Y-85225000D01*
X112978839Y-85272619D01*
X113074077Y-85415476D01*
X113121696Y-85605952D01*
X113121696Y-85986904D01*
X113074077Y-86082142D01*
X113026458Y-86129761D01*
X112931220Y-86177380D01*
X112740744Y-86177380D01*
X112645505Y-86129761D01*
X112597886Y-86082142D01*
X112550267Y-85986904D01*
X112550267Y-85748809D01*
X112597886Y-85653571D01*
X112645505Y-85605952D01*
X112740744Y-85558333D01*
X112931220Y-85558333D01*
X113026458Y-85605952D01*
X113074077Y-85653571D01*
X113121696Y-85748809D01*
%TO.C,LED5*%
X134468953Y-86177282D02*
X134945144Y-86177282D01*
X134945144Y-85177282D01*
X134135620Y-85653473D02*
X133802286Y-85653473D01*
X133659429Y-86177282D02*
X134135620Y-86177282D01*
X134135620Y-85177282D01*
X133659429Y-85177282D01*
X133230858Y-86177282D02*
X133230858Y-85177282D01*
X132992763Y-85177282D01*
X132849906Y-85224902D01*
X132754667Y-85320140D01*
X132707048Y-85415378D01*
X132659429Y-85605854D01*
X132659429Y-85748711D01*
X132707048Y-85939187D01*
X132754667Y-86034425D01*
X132849906Y-86129663D01*
X132992763Y-86177282D01*
X133230858Y-86177282D01*
X131754667Y-85177282D02*
X132230858Y-85177282D01*
X132278477Y-85653473D01*
X132230858Y-85605854D01*
X132135620Y-85558235D01*
X131897525Y-85558235D01*
X131802286Y-85605854D01*
X131754667Y-85653473D01*
X131707048Y-85748711D01*
X131707048Y-85986806D01*
X131754667Y-86082044D01*
X131802286Y-86129663D01*
X131897525Y-86177282D01*
X132135620Y-86177282D01*
X132230858Y-86129663D01*
X132278477Y-86082044D01*
%TO.C,LED4*%
X153319047Y-86177380D02*
X153795238Y-86177380D01*
X153795238Y-85177380D01*
X152985714Y-85653571D02*
X152652380Y-85653571D01*
X152509523Y-86177380D02*
X152985714Y-86177380D01*
X152985714Y-85177380D01*
X152509523Y-85177380D01*
X152080952Y-86177380D02*
X152080952Y-85177380D01*
X151842857Y-85177380D01*
X151700000Y-85225000D01*
X151604761Y-85320238D01*
X151557142Y-85415476D01*
X151509523Y-85605952D01*
X151509523Y-85748809D01*
X151557142Y-85939285D01*
X151604761Y-86034523D01*
X151700000Y-86129761D01*
X151842857Y-86177380D01*
X152080952Y-86177380D01*
X150652380Y-85510714D02*
X150652380Y-86177380D01*
X150890476Y-85129761D02*
X151128571Y-85844047D01*
X150509523Y-85844047D01*
%TO.C,LED3*%
X153519047Y-67127380D02*
X153995238Y-67127380D01*
X153995238Y-66127380D01*
X153185714Y-66603571D02*
X152852380Y-66603571D01*
X152709523Y-67127380D02*
X153185714Y-67127380D01*
X153185714Y-66127380D01*
X152709523Y-66127380D01*
X152280952Y-67127380D02*
X152280952Y-66127380D01*
X152042857Y-66127380D01*
X151900000Y-66175000D01*
X151804761Y-66270238D01*
X151757142Y-66365476D01*
X151709523Y-66555952D01*
X151709523Y-66698809D01*
X151757142Y-66889285D01*
X151804761Y-66984523D01*
X151900000Y-67079761D01*
X152042857Y-67127380D01*
X152280952Y-67127380D01*
X151376190Y-66127380D02*
X150757142Y-66127380D01*
X151090476Y-66508333D01*
X150947619Y-66508333D01*
X150852380Y-66555952D01*
X150804761Y-66603571D01*
X150757142Y-66698809D01*
X150757142Y-66936904D01*
X150804761Y-67032142D01*
X150852380Y-67079761D01*
X150947619Y-67127380D01*
X151233333Y-67127380D01*
X151328571Y-67079761D01*
X151376190Y-67032142D01*
%TO.C,LED1*%
X115419047Y-67127380D02*
X115895238Y-67127380D01*
X115895238Y-66127380D01*
X115085714Y-66603571D02*
X114752380Y-66603571D01*
X114609523Y-67127380D02*
X115085714Y-67127380D01*
X115085714Y-66127380D01*
X114609523Y-66127380D01*
X114180952Y-67127380D02*
X114180952Y-66127380D01*
X113942857Y-66127380D01*
X113800000Y-66175000D01*
X113704761Y-66270238D01*
X113657142Y-66365476D01*
X113609523Y-66555952D01*
X113609523Y-66698809D01*
X113657142Y-66889285D01*
X113704761Y-66984523D01*
X113800000Y-67079761D01*
X113942857Y-67127380D01*
X114180952Y-67127380D01*
X112657142Y-67127380D02*
X113228571Y-67127380D01*
X112942857Y-67127380D02*
X112942857Y-66127380D01*
X113038095Y-66270238D01*
X113133333Y-66365476D01*
X113228571Y-66413095D01*
%TO.C,F1*%
X136289571Y-65746266D02*
X136289571Y-65412933D01*
X136813380Y-65412933D02*
X135813380Y-65412933D01*
X135813380Y-65889123D01*
X136813380Y-66793885D02*
X136813380Y-66222457D01*
X136813380Y-66508171D02*
X135813380Y-66508171D01*
X135956238Y-66412933D01*
X136051476Y-66317695D01*
X136099095Y-66222457D01*
%TO.C,U2*%
X143021904Y-53626980D02*
X143021904Y-54436504D01*
X142974285Y-54531742D01*
X142926666Y-54579361D01*
X142831428Y-54626980D01*
X142640952Y-54626980D01*
X142545714Y-54579361D01*
X142498095Y-54531742D01*
X142450476Y-54436504D01*
X142450476Y-53626980D01*
X142021904Y-53722219D02*
X141974285Y-53674600D01*
X141879047Y-53626980D01*
X141640952Y-53626980D01*
X141545714Y-53674600D01*
X141498095Y-53722219D01*
X141450476Y-53817457D01*
X141450476Y-53912695D01*
X141498095Y-54055552D01*
X142069523Y-54626980D01*
X141450476Y-54626980D01*
%TO.C,C6*%
X150185666Y-70364542D02*
X150233285Y-70412161D01*
X150376142Y-70459780D01*
X150471380Y-70459780D01*
X150614238Y-70412161D01*
X150709476Y-70316923D01*
X150757095Y-70221685D01*
X150804714Y-70031209D01*
X150804714Y-69888352D01*
X150757095Y-69697876D01*
X150709476Y-69602638D01*
X150614238Y-69507400D01*
X150471380Y-69459780D01*
X150376142Y-69459780D01*
X150233285Y-69507400D01*
X150185666Y-69555019D01*
X149328523Y-69459780D02*
X149519000Y-69459780D01*
X149614238Y-69507400D01*
X149661857Y-69555019D01*
X149757095Y-69697876D01*
X149804714Y-69888352D01*
X149804714Y-70269304D01*
X149757095Y-70364542D01*
X149709476Y-70412161D01*
X149614238Y-70459780D01*
X149423761Y-70459780D01*
X149328523Y-70412161D01*
X149280904Y-70364542D01*
X149233285Y-70269304D01*
X149233285Y-70031209D01*
X149280904Y-69935971D01*
X149328523Y-69888352D01*
X149423761Y-69840733D01*
X149614238Y-69840733D01*
X149709476Y-69888352D01*
X149757095Y-69935971D01*
X149804714Y-70031209D01*
%TO.C,C5*%
X148994605Y-59888416D02*
X149042224Y-59936035D01*
X149185081Y-59983654D01*
X149280319Y-59983654D01*
X149423177Y-59936035D01*
X149518415Y-59840797D01*
X149566034Y-59745559D01*
X149613653Y-59555083D01*
X149613653Y-59412226D01*
X149566034Y-59221750D01*
X149518415Y-59126512D01*
X149423177Y-59031274D01*
X149280319Y-58983654D01*
X149185081Y-58983654D01*
X149042224Y-59031274D01*
X148994605Y-59078893D01*
X148089843Y-58983654D02*
X148566034Y-58983654D01*
X148613653Y-59459845D01*
X148566034Y-59412226D01*
X148470796Y-59364607D01*
X148232700Y-59364607D01*
X148137462Y-59412226D01*
X148089843Y-59459845D01*
X148042224Y-59555083D01*
X148042224Y-59793178D01*
X148089843Y-59888416D01*
X148137462Y-59936035D01*
X148232700Y-59983654D01*
X148470796Y-59983654D01*
X148566034Y-59936035D01*
X148613653Y-59888416D01*
%TO.C,C4*%
X144183142Y-56983333D02*
X144230761Y-56935714D01*
X144278380Y-56792857D01*
X144278380Y-56697619D01*
X144230761Y-56554761D01*
X144135523Y-56459523D01*
X144040285Y-56411904D01*
X143849809Y-56364285D01*
X143706952Y-56364285D01*
X143516476Y-56411904D01*
X143421238Y-56459523D01*
X143326000Y-56554761D01*
X143278380Y-56697619D01*
X143278380Y-56792857D01*
X143326000Y-56935714D01*
X143373619Y-56983333D01*
X143611714Y-57840476D02*
X144278380Y-57840476D01*
X143230761Y-57602380D02*
X143945047Y-57364285D01*
X143945047Y-57983333D01*
%TO.C,C3*%
X137088727Y-59888416D02*
X137136346Y-59936035D01*
X137279203Y-59983654D01*
X137374441Y-59983654D01*
X137517299Y-59936035D01*
X137612537Y-59840797D01*
X137660156Y-59745559D01*
X137707775Y-59555083D01*
X137707775Y-59412226D01*
X137660156Y-59221750D01*
X137612537Y-59126512D01*
X137517299Y-59031274D01*
X137374441Y-58983654D01*
X137279203Y-58983654D01*
X137136346Y-59031274D01*
X137088727Y-59078893D01*
X136755394Y-58983654D02*
X136136346Y-58983654D01*
X136469680Y-59364607D01*
X136326822Y-59364607D01*
X136231584Y-59412226D01*
X136183965Y-59459845D01*
X136136346Y-59555083D01*
X136136346Y-59793178D01*
X136183965Y-59888416D01*
X136231584Y-59936035D01*
X136326822Y-59983654D01*
X136612537Y-59983654D01*
X136707775Y-59936035D01*
X136755394Y-59888416D01*
%TO.C,C2*%
X157923914Y-68222742D02*
X157971533Y-68270361D01*
X158114390Y-68317980D01*
X158209628Y-68317980D01*
X158352486Y-68270361D01*
X158447724Y-68175123D01*
X158495343Y-68079885D01*
X158542962Y-67889409D01*
X158542962Y-67746552D01*
X158495343Y-67556076D01*
X158447724Y-67460838D01*
X158352486Y-67365600D01*
X158209628Y-67317980D01*
X158114390Y-67317980D01*
X157971533Y-67365600D01*
X157923914Y-67413219D01*
X157542962Y-67413219D02*
X157495343Y-67365600D01*
X157400105Y-67317980D01*
X157162009Y-67317980D01*
X157066771Y-67365600D01*
X157019152Y-67413219D01*
X156971533Y-67508457D01*
X156971533Y-67603695D01*
X157019152Y-67746552D01*
X157590581Y-68317980D01*
X156971533Y-68317980D01*
%TO.C,C1*%
X157923914Y-65841442D02*
X157971533Y-65889061D01*
X158114390Y-65936680D01*
X158209628Y-65936680D01*
X158352486Y-65889061D01*
X158447724Y-65793823D01*
X158495343Y-65698585D01*
X158542962Y-65508109D01*
X158542962Y-65365252D01*
X158495343Y-65174776D01*
X158447724Y-65079538D01*
X158352486Y-64984300D01*
X158209628Y-64936680D01*
X158114390Y-64936680D01*
X157971533Y-64984300D01*
X157923914Y-65031919D01*
X156971533Y-65936680D02*
X157542962Y-65936680D01*
X157257248Y-65936680D02*
X157257248Y-64936680D01*
X157352486Y-65079538D01*
X157447724Y-65174776D01*
X157542962Y-65222395D01*
%TD*%
M02*
