M48
; DRILL file {KiCad (5.1.7)-1} date 10/17/20 05:15:20
; FORMAT={-:-/ absolute / inch / decimal}
; #@! TF.CreationDate,2020-10-17T05:15:20-04:00
; #@! TF.GenerationSoftware,Kicad,Pcbnew,(5.1.7)-1
FMAT,2
INCH
T1C0.0079
T2C0.0236
T3C0.0315
T4C0.0256
T5C0.0748
T6C0.1575
%
G90
G05
T1
X4.6569Y-3.2636
X4.6641Y-2.474
X4.7096Y-2.4913
X4.9673Y-2.7632
X5.0282Y-2.7974
X5.0353Y-2.5757
X5.0693Y-2.3844
X5.1965Y-2.5342
X5.2719Y-2.9039
X5.2752Y-2.833
X5.3436Y-2.9304
X5.3521Y-1.893
X5.3803Y-3.2636
X5.4118Y-2.7251
X5.4502Y-2.3284
X5.4549Y-1.9653
X5.5072Y-2.791
X5.5467Y-2.7239
X5.5474Y-2.6382
X5.5608Y-2.2232
X5.5698Y-2.5688
X5.5822Y-3.2636
X5.6186Y-2.313
X5.62Y-2.9438
X5.6408Y-3.1951
X5.6409Y-2.9039
X5.6609Y-2.0407
X5.6926Y-2.1369
X5.6986Y-2.6629
X5.7664Y-2.1473
X5.8181Y-1.9715
X5.8219Y-2.4044
X5.8237Y-2.3663
X5.8574Y-2.5914
X5.87Y-2.3445
X5.9013Y-1.893
X5.9504Y-2.7609
X6.0135Y-2.8746
X6.0546Y-2.8984
X6.0868Y-2.8969
X6.0947Y-3.2636
X6.1477Y-2.6273
X6.1854Y-2.6597
T4
X5.5112Y-2.0273
X5.7388Y-2.0273
T5
X4.3Y-3.0
X4.7Y-3.0
X5.05Y-3.0
X5.8Y-3.0
X6.2Y-3.0
X5.8Y-2.25
X6.2Y-2.25
X5.05Y-2.25
X5.45Y-2.25
X5.45Y-3.0
X4.3Y-2.25
X4.7Y-2.25
T6
X5.25Y-2.25
X4.5Y-3.0
X5.25Y-3.0
X4.5Y-2.25
X6.0Y-3.0
X6.0Y-2.25
T2
G00X5.4549Y-1.8718
M15
G01X5.4549Y-1.8954
M16
G05
G00X5.4549Y-2.0265
M15
G01X5.4549Y-2.0698
M16
G05
G00X5.7951Y-1.8718
M15
G01X5.7951Y-1.8954
M16
G05
G00X5.7951Y-2.0265
M15
G01X5.7951Y-2.0698
M16
G05
T3
G00X4.3421Y-2.9
M15
G01X4.3579Y-2.9
M16
G05
G00X4.5921Y-2.8
M15
G01X4.6079Y-2.8
M16
G05
G00X5.0921Y-2.9
M15
G01X5.1079Y-2.9
M16
G05
G00X5.3421Y-2.8
M15
G01X5.3579Y-2.8
M16
G05
G00X4.3421Y-2.15
M15
G01X4.3579Y-2.15
M16
G05
G00X4.5921Y-2.05
M15
G01X4.6079Y-2.05
M16
G05
G00X5.8421Y-2.9
M15
G01X5.8579Y-2.9
M16
G05
G00X6.0921Y-2.8
M15
G01X6.1079Y-2.8
M16
G05
G00X5.8421Y-2.15
M15
G01X5.8579Y-2.15
M16
G05
G00X6.0921Y-2.05
M15
G01X6.1079Y-2.05
M16
G05
G00X5.0921Y-2.15
M15
G01X5.1079Y-2.15
M16
G05
G00X5.3421Y-2.05
M15
G01X5.3579Y-2.05
M16
G05
T0
M30
