%TF.GenerationSoftware,KiCad,Pcbnew,(5.1.7)-1*%
%TF.CreationDate,2020-10-26T01:34:49-04:00*%
%TF.ProjectId,OreoOrtho,4f72656f-4f72-4746-986f-2e6b69636164,rev?*%
%TF.SameCoordinates,Original*%
%TF.FileFunction,Other,Fab,Top*%
%FSLAX46Y46*%
G04 Gerber Fmt 4.6, Leading zero omitted, Abs format (unit mm)*
G04 Created by KiCad (PCBNEW (5.1.7)-1) date 2020-10-26 01:34:49*
%MOMM*%
%LPD*%
G01*
G04 APERTURE LIST*
%ADD10C,0.150000*%
%ADD11C,0.100000*%
%ADD12C,0.060000*%
%ADD13C,0.105000*%
%ADD14C,0.075000*%
%ADD15C,0.080000*%
%ADD16C,0.120000*%
G04 APERTURE END LIST*
D10*
%TO.C,U1*%
X181261000Y-52728200D02*
X182261000Y-51728200D01*
X181261000Y-61728200D02*
X181261000Y-52728200D01*
X191261000Y-61728200D02*
X181261000Y-61728200D01*
X191261000Y-51728200D02*
X191261000Y-61728200D01*
X182261000Y-51728200D02*
X191261000Y-51728200D01*
D11*
%TO.C,C7*%
X195011000Y-50278200D02*
X196611000Y-50278200D01*
X195011000Y-51078200D02*
X195011000Y-50278200D01*
X196611000Y-51078200D02*
X195011000Y-51078200D01*
X196611000Y-50278200D02*
X196611000Y-51078200D01*
%TO.C,Y1*%
X184549000Y-69043800D02*
X183549000Y-68043800D01*
X181349000Y-70543800D02*
X184549000Y-70543800D01*
X181349000Y-68043800D02*
X181349000Y-70543800D01*
X184549000Y-68043800D02*
X181349000Y-68043800D01*
X184549000Y-70543800D02*
X184549000Y-68043800D01*
%TO.C,U2*%
X192161000Y-47678200D02*
X189161000Y-47678200D01*
X189161000Y-47678200D02*
X189161000Y-45278200D01*
X189161000Y-45278200D02*
X191661000Y-45278200D01*
X192161000Y-45778200D02*
X192161000Y-47678200D01*
X191661000Y-45278200D02*
X192161000Y-45778200D01*
D10*
%TO.C,RST_SW1*%
X188086000Y-65879900D02*
X196486000Y-65879900D01*
X196486000Y-65879900D02*
X196486000Y-67279900D01*
X196486000Y-67379900D02*
X194886000Y-67379900D01*
X194886000Y-67379900D02*
X194886000Y-69579900D01*
X194886000Y-69579900D02*
X196486000Y-69579900D01*
X196486000Y-69579900D02*
X196486000Y-71079900D01*
X196486000Y-71079900D02*
X188086000Y-71079900D01*
X188086000Y-71079900D02*
X188086000Y-69579900D01*
X188086000Y-69579900D02*
X189686000Y-69579900D01*
X189686000Y-69579900D02*
X189686000Y-67379900D01*
X189686000Y-67379900D02*
X188086000Y-67379900D01*
X188086000Y-67379900D02*
X188086000Y-65879900D01*
X193286000Y-68479900D02*
G75*
G03*
X193286000Y-68479900I-1000000J0D01*
G01*
X189686000Y-67379900D02*
X191186000Y-65879900D01*
X194886000Y-67379900D02*
X193386000Y-65879900D01*
X194886000Y-69579900D02*
X193386000Y-71079900D01*
X189686000Y-69579900D02*
X191186000Y-71079900D01*
D11*
%TO.C,R6*%
X181536000Y-37128200D02*
X181536000Y-39128200D01*
X180286000Y-37128200D02*
X181536000Y-37128200D01*
X180286000Y-39128200D02*
X180286000Y-37128200D01*
X181536000Y-39128200D02*
X180286000Y-39128200D01*
%TO.C,R5*%
X186536000Y-45478200D02*
X186536000Y-47478200D01*
X185286000Y-45478200D02*
X186536000Y-45478200D01*
X185286000Y-47478200D02*
X185286000Y-45478200D01*
X186536000Y-47478200D02*
X185286000Y-47478200D01*
%TO.C,R4*%
X183286000Y-47478200D02*
X183286000Y-45478200D01*
X184536000Y-47478200D02*
X183286000Y-47478200D01*
X184536000Y-45478200D02*
X184536000Y-47478200D01*
X183286000Y-45478200D02*
X184536000Y-45478200D01*
%TO.C,R3*%
X195236000Y-37128200D02*
X195236000Y-39128200D01*
X193986000Y-37128200D02*
X195236000Y-37128200D01*
X193986000Y-39128200D02*
X193986000Y-37128200D01*
X195236000Y-39128200D02*
X193986000Y-39128200D01*
%TO.C,R2*%
X195386000Y-55878200D02*
X195386000Y-53878200D01*
X196636000Y-55878200D02*
X195386000Y-55878200D01*
X196636000Y-53878200D02*
X196636000Y-55878200D01*
X195386000Y-53878200D02*
X196636000Y-53878200D01*
%TO.C,R1*%
X196586000Y-60228200D02*
X196586000Y-62228200D01*
X195336000Y-60228200D02*
X196586000Y-60228200D01*
X195336000Y-62228200D02*
X195336000Y-60228200D01*
X196586000Y-62228200D02*
X195336000Y-62228200D01*
%TO.C,F1*%
X194011000Y-44428200D02*
X194011000Y-41228200D01*
X195611000Y-44428200D02*
X194011000Y-44428200D01*
X195611000Y-41228200D02*
X195611000Y-44428200D01*
X194011000Y-41228200D02*
X195611000Y-41228200D01*
%TO.C,C6*%
X195003000Y-48728200D02*
X196603000Y-48728200D01*
X195003000Y-49528200D02*
X195003000Y-48728200D01*
X196603000Y-49528200D02*
X195003000Y-49528200D01*
X196603000Y-48728200D02*
X196603000Y-49528200D01*
%TO.C,C5*%
X195003000Y-47178200D02*
X196603000Y-47178200D01*
X195003000Y-47978200D02*
X195003000Y-47178200D01*
X196603000Y-47978200D02*
X195003000Y-47978200D01*
X196603000Y-47178200D02*
X196603000Y-47978200D01*
%TO.C,C4*%
X195003000Y-45618800D02*
X196603000Y-45618800D01*
X195003000Y-46418800D02*
X195003000Y-45618800D01*
X196603000Y-46418800D02*
X195003000Y-46418800D01*
X196603000Y-45618800D02*
X196603000Y-46418800D01*
%TO.C,C3*%
X179861000Y-46228200D02*
X179861000Y-44628200D01*
X180661000Y-46228200D02*
X179861000Y-46228200D01*
X180661000Y-44628200D02*
X180661000Y-46228200D01*
X179861000Y-44628200D02*
X180661000Y-44628200D01*
%TO.C,C2*%
X180499000Y-65493800D02*
X182099000Y-65493800D01*
X180499000Y-66293800D02*
X180499000Y-65493800D01*
X182099000Y-66293800D02*
X180499000Y-66293800D01*
X182099000Y-65493800D02*
X182099000Y-66293800D01*
%TO.C,C1*%
X185349000Y-66293800D02*
X183749000Y-66293800D01*
X185349000Y-65493800D02*
X185349000Y-66293800D01*
X183749000Y-65493800D02*
X185349000Y-65493800D01*
X183749000Y-66293800D02*
X183749000Y-65493800D01*
%TD*%
%TO.C,H1*%
D10*
X158782095Y-52021180D02*
X158782095Y-51021180D01*
X158782095Y-51497371D02*
X159353523Y-51497371D01*
X159353523Y-52021180D02*
X159353523Y-51021180D01*
X160353523Y-52021180D02*
X159782095Y-52021180D01*
X160067809Y-52021180D02*
X160067809Y-51021180D01*
X159972571Y-51164038D01*
X159877333Y-51259276D01*
X159782095Y-51306895D01*
X154758285Y-58421180D02*
X154758285Y-57421180D01*
X155091619Y-58135466D01*
X155424952Y-57421180D01*
X155424952Y-58421180D01*
X156044000Y-58421180D02*
X155948761Y-58373561D01*
X155901142Y-58325942D01*
X155853523Y-58230704D01*
X155853523Y-57944990D01*
X155901142Y-57849752D01*
X155948761Y-57802133D01*
X156044000Y-57754514D01*
X156186857Y-57754514D01*
X156282095Y-57802133D01*
X156329714Y-57849752D01*
X156377333Y-57944990D01*
X156377333Y-58230704D01*
X156329714Y-58325942D01*
X156282095Y-58373561D01*
X156186857Y-58421180D01*
X156044000Y-58421180D01*
X157234476Y-57754514D02*
X157234476Y-58421180D01*
X156805904Y-57754514D02*
X156805904Y-58278323D01*
X156853523Y-58373561D01*
X156948761Y-58421180D01*
X157091619Y-58421180D01*
X157186857Y-58373561D01*
X157234476Y-58325942D01*
X157710666Y-57754514D02*
X157710666Y-58421180D01*
X157710666Y-57849752D02*
X157758285Y-57802133D01*
X157853523Y-57754514D01*
X157996380Y-57754514D01*
X158091619Y-57802133D01*
X158139238Y-57897371D01*
X158139238Y-58421180D01*
X158472571Y-57754514D02*
X158853523Y-57754514D01*
X158615428Y-57421180D02*
X158615428Y-58278323D01*
X158663047Y-58373561D01*
X158758285Y-58421180D01*
X158853523Y-58421180D01*
X159186857Y-58421180D02*
X159186857Y-57754514D01*
X159186857Y-57421180D02*
X159139238Y-57468800D01*
X159186857Y-57516419D01*
X159234476Y-57468800D01*
X159186857Y-57421180D01*
X159186857Y-57516419D01*
X159663047Y-57754514D02*
X159663047Y-58421180D01*
X159663047Y-57849752D02*
X159710666Y-57802133D01*
X159805904Y-57754514D01*
X159948761Y-57754514D01*
X160044000Y-57802133D01*
X160091619Y-57897371D01*
X160091619Y-58421180D01*
X160996380Y-57754514D02*
X160996380Y-58564038D01*
X160948761Y-58659276D01*
X160901142Y-58706895D01*
X160805904Y-58754514D01*
X160663047Y-58754514D01*
X160567809Y-58706895D01*
X160996380Y-58373561D02*
X160901142Y-58421180D01*
X160710666Y-58421180D01*
X160615428Y-58373561D01*
X160567809Y-58325942D01*
X160520190Y-58230704D01*
X160520190Y-57944990D01*
X160567809Y-57849752D01*
X160615428Y-57802133D01*
X160710666Y-57754514D01*
X160901142Y-57754514D01*
X160996380Y-57802133D01*
X161472571Y-58421180D02*
X161472571Y-57421180D01*
X161472571Y-57897371D02*
X162044000Y-57897371D01*
X162044000Y-58421180D02*
X162044000Y-57421180D01*
X162663047Y-58421180D02*
X162567809Y-58373561D01*
X162520190Y-58325942D01*
X162472571Y-58230704D01*
X162472571Y-57944990D01*
X162520190Y-57849752D01*
X162567809Y-57802133D01*
X162663047Y-57754514D01*
X162805904Y-57754514D01*
X162901142Y-57802133D01*
X162948761Y-57849752D01*
X162996380Y-57944990D01*
X162996380Y-58230704D01*
X162948761Y-58325942D01*
X162901142Y-58373561D01*
X162805904Y-58421180D01*
X162663047Y-58421180D01*
X163567809Y-58421180D02*
X163472571Y-58373561D01*
X163424952Y-58278323D01*
X163424952Y-57421180D01*
X164329714Y-58373561D02*
X164234476Y-58421180D01*
X164044000Y-58421180D01*
X163948761Y-58373561D01*
X163901142Y-58278323D01*
X163901142Y-57897371D01*
X163948761Y-57802133D01*
X164044000Y-57754514D01*
X164234476Y-57754514D01*
X164329714Y-57802133D01*
X164377333Y-57897371D01*
X164377333Y-57992609D01*
X163901142Y-58087847D01*
X159082095Y-55221180D02*
X159082095Y-54221180D01*
X159082095Y-54697371D02*
X159653523Y-54697371D01*
X159653523Y-55221180D02*
X159653523Y-54221180D01*
X160653523Y-55221180D02*
X160082095Y-55221180D01*
X160367809Y-55221180D02*
X160367809Y-54221180D01*
X160272571Y-54364038D01*
X160177333Y-54459276D01*
X160082095Y-54506895D01*
%TO.C,U1*%
X180118142Y-64344866D02*
X180594333Y-64344866D01*
X180022904Y-64630580D02*
X180356238Y-63630580D01*
X180689571Y-64630580D01*
X180880047Y-63630580D02*
X181451476Y-63630580D01*
X181165761Y-64630580D02*
X181165761Y-63630580D01*
X181784809Y-64630580D02*
X181784809Y-63963914D01*
X181784809Y-64059152D02*
X181832428Y-64011533D01*
X181927666Y-63963914D01*
X182070523Y-63963914D01*
X182165761Y-64011533D01*
X182213380Y-64106771D01*
X182213380Y-64630580D01*
X182213380Y-64106771D02*
X182261000Y-64011533D01*
X182356238Y-63963914D01*
X182499095Y-63963914D01*
X182594333Y-64011533D01*
X182641952Y-64106771D01*
X182641952Y-64630580D01*
X183499095Y-64582961D02*
X183403857Y-64630580D01*
X183213380Y-64630580D01*
X183118142Y-64582961D01*
X183070523Y-64487723D01*
X183070523Y-64106771D01*
X183118142Y-64011533D01*
X183213380Y-63963914D01*
X183403857Y-63963914D01*
X183499095Y-64011533D01*
X183546714Y-64106771D01*
X183546714Y-64202009D01*
X183070523Y-64297247D01*
X184403857Y-63963914D02*
X184403857Y-64773438D01*
X184356238Y-64868676D01*
X184308619Y-64916295D01*
X184213380Y-64963914D01*
X184070523Y-64963914D01*
X183975285Y-64916295D01*
X184403857Y-64582961D02*
X184308619Y-64630580D01*
X184118142Y-64630580D01*
X184022904Y-64582961D01*
X183975285Y-64535342D01*
X183927666Y-64440104D01*
X183927666Y-64154390D01*
X183975285Y-64059152D01*
X184022904Y-64011533D01*
X184118142Y-63963914D01*
X184308619Y-63963914D01*
X184403857Y-64011533D01*
X185308619Y-64630580D02*
X185308619Y-64106771D01*
X185261000Y-64011533D01*
X185165761Y-63963914D01*
X184975285Y-63963914D01*
X184880047Y-64011533D01*
X185308619Y-64582961D02*
X185213380Y-64630580D01*
X184975285Y-64630580D01*
X184880047Y-64582961D01*
X184832428Y-64487723D01*
X184832428Y-64392485D01*
X184880047Y-64297247D01*
X184975285Y-64249628D01*
X185213380Y-64249628D01*
X185308619Y-64202009D01*
X185689571Y-63630580D02*
X186308619Y-63630580D01*
X185975285Y-64011533D01*
X186118142Y-64011533D01*
X186213380Y-64059152D01*
X186261000Y-64106771D01*
X186308619Y-64202009D01*
X186308619Y-64440104D01*
X186261000Y-64535342D01*
X186213380Y-64582961D01*
X186118142Y-64630580D01*
X185832428Y-64630580D01*
X185737190Y-64582961D01*
X185689571Y-64535342D01*
X186689571Y-63725819D02*
X186737190Y-63678200D01*
X186832428Y-63630580D01*
X187070523Y-63630580D01*
X187165761Y-63678200D01*
X187213380Y-63725819D01*
X187261000Y-63821057D01*
X187261000Y-63916295D01*
X187213380Y-64059152D01*
X186641952Y-64630580D01*
X187261000Y-64630580D01*
X187689571Y-63630580D02*
X187689571Y-64440104D01*
X187737190Y-64535342D01*
X187784809Y-64582961D01*
X187880047Y-64630580D01*
X188070523Y-64630580D01*
X188165761Y-64582961D01*
X188213380Y-64535342D01*
X188261000Y-64440104D01*
X188261000Y-63630580D01*
X189165761Y-63963914D02*
X189165761Y-64630580D01*
X188927666Y-63582961D02*
X188689571Y-64297247D01*
X189308619Y-64297247D01*
X189689571Y-64249628D02*
X190451476Y-64249628D01*
X190880047Y-64344866D02*
X191356238Y-64344866D01*
X190784809Y-64630580D02*
X191118142Y-63630580D01*
X191451476Y-64630580D01*
X191784809Y-63630580D02*
X191784809Y-64440104D01*
X191832428Y-64535342D01*
X191880047Y-64582961D01*
X191975285Y-64630580D01*
X192165761Y-64630580D01*
X192261000Y-64582961D01*
X192308619Y-64535342D01*
X192356238Y-64440104D01*
X192356238Y-63630580D01*
X185499095Y-56180580D02*
X185499095Y-56990104D01*
X185546714Y-57085342D01*
X185594333Y-57132961D01*
X185689571Y-57180580D01*
X185880047Y-57180580D01*
X185975285Y-57132961D01*
X186022904Y-57085342D01*
X186070523Y-56990104D01*
X186070523Y-56180580D01*
X187070523Y-57180580D02*
X186499095Y-57180580D01*
X186784809Y-57180580D02*
X186784809Y-56180580D01*
X186689571Y-56323438D01*
X186594333Y-56418676D01*
X186499095Y-56466295D01*
%TO.C,C7*%
X194168142Y-48700580D02*
X194263380Y-48700580D01*
X194358619Y-48748200D01*
X194406238Y-48795819D01*
X194453857Y-48891057D01*
X194501476Y-49081533D01*
X194501476Y-49319628D01*
X194453857Y-49510104D01*
X194406238Y-49605342D01*
X194358619Y-49652961D01*
X194263380Y-49700580D01*
X194168142Y-49700580D01*
X194072904Y-49652961D01*
X194025285Y-49605342D01*
X193977666Y-49510104D01*
X193930047Y-49319628D01*
X193930047Y-49081533D01*
X193977666Y-48891057D01*
X194025285Y-48795819D01*
X194072904Y-48748200D01*
X194168142Y-48700580D01*
X194930047Y-49605342D02*
X194977666Y-49652961D01*
X194930047Y-49700580D01*
X194882428Y-49652961D01*
X194930047Y-49605342D01*
X194930047Y-49700580D01*
X195930047Y-49700580D02*
X195358619Y-49700580D01*
X195644333Y-49700580D02*
X195644333Y-48700580D01*
X195549095Y-48843438D01*
X195453857Y-48938676D01*
X195358619Y-48986295D01*
X196787190Y-49033914D02*
X196787190Y-49700580D01*
X196358619Y-49033914D02*
X196358619Y-49557723D01*
X196406238Y-49652961D01*
X196501476Y-49700580D01*
X196644333Y-49700580D01*
X196739571Y-49652961D01*
X196787190Y-49605342D01*
X197596714Y-49176771D02*
X197263380Y-49176771D01*
X197263380Y-49700580D02*
X197263380Y-48700580D01*
X197739571Y-48700580D01*
D12*
X195744333Y-50821057D02*
X195725285Y-50840104D01*
X195668142Y-50859152D01*
X195630047Y-50859152D01*
X195572904Y-50840104D01*
X195534809Y-50802009D01*
X195515761Y-50763914D01*
X195496714Y-50687723D01*
X195496714Y-50630580D01*
X195515761Y-50554390D01*
X195534809Y-50516295D01*
X195572904Y-50478200D01*
X195630047Y-50459152D01*
X195668142Y-50459152D01*
X195725285Y-50478200D01*
X195744333Y-50497247D01*
X195877666Y-50459152D02*
X196144333Y-50459152D01*
X195972904Y-50859152D01*
%TO.C,Y1*%
D10*
X181258523Y-66696180D02*
X180687095Y-66696180D01*
X180972809Y-66696180D02*
X180972809Y-65696180D01*
X180877571Y-65839038D01*
X180782333Y-65934276D01*
X180687095Y-65981895D01*
X182115666Y-65696180D02*
X181925190Y-65696180D01*
X181829952Y-65743800D01*
X181782333Y-65791419D01*
X181687095Y-65934276D01*
X181639476Y-66124752D01*
X181639476Y-66505704D01*
X181687095Y-66600942D01*
X181734714Y-66648561D01*
X181829952Y-66696180D01*
X182020428Y-66696180D01*
X182115666Y-66648561D01*
X182163285Y-66600942D01*
X182210904Y-66505704D01*
X182210904Y-66267609D01*
X182163285Y-66172371D01*
X182115666Y-66124752D01*
X182020428Y-66077133D01*
X181829952Y-66077133D01*
X181734714Y-66124752D01*
X181687095Y-66172371D01*
X181639476Y-66267609D01*
X182639476Y-66696180D02*
X182639476Y-65696180D01*
X182972809Y-66410466D01*
X183306142Y-65696180D01*
X183306142Y-66696180D01*
X183782333Y-66696180D02*
X183782333Y-65696180D01*
X183782333Y-66172371D02*
X184353761Y-66172371D01*
X184353761Y-66696180D02*
X184353761Y-65696180D01*
X184734714Y-66029514D02*
X185258523Y-66029514D01*
X184734714Y-66696180D01*
X185258523Y-66696180D01*
D13*
X182615666Y-69277133D02*
X182615666Y-69610466D01*
X182382333Y-68910466D02*
X182615666Y-69277133D01*
X182849000Y-68910466D01*
X183449000Y-69610466D02*
X183049000Y-69610466D01*
X183249000Y-69610466D02*
X183249000Y-68910466D01*
X183182333Y-69010466D01*
X183115666Y-69077133D01*
X183049000Y-69110466D01*
%TO.C,U2*%
D10*
X188633380Y-50698200D02*
X187633380Y-50698200D01*
X187633380Y-50317247D01*
X187681000Y-50222009D01*
X187728619Y-50174390D01*
X187823857Y-50126771D01*
X187966714Y-50126771D01*
X188061952Y-50174390D01*
X188109571Y-50222009D01*
X188157190Y-50317247D01*
X188157190Y-50698200D01*
X188633380Y-49126771D02*
X188157190Y-49460104D01*
X188633380Y-49698200D02*
X187633380Y-49698200D01*
X187633380Y-49317247D01*
X187681000Y-49222009D01*
X187728619Y-49174390D01*
X187823857Y-49126771D01*
X187966714Y-49126771D01*
X188061952Y-49174390D01*
X188109571Y-49222009D01*
X188157190Y-49317247D01*
X188157190Y-49698200D01*
X187633380Y-48841057D02*
X187633380Y-48269628D01*
X188633380Y-48555342D02*
X187633380Y-48555342D01*
X188633380Y-47364866D02*
X188157190Y-47698200D01*
X188633380Y-47936295D02*
X187633380Y-47936295D01*
X187633380Y-47555342D01*
X187681000Y-47460104D01*
X187728619Y-47412485D01*
X187823857Y-47364866D01*
X187966714Y-47364866D01*
X188061952Y-47412485D01*
X188109571Y-47460104D01*
X188157190Y-47555342D01*
X188157190Y-47936295D01*
X187633380Y-46460104D02*
X187633380Y-46936295D01*
X188109571Y-46983914D01*
X188061952Y-46936295D01*
X188014333Y-46841057D01*
X188014333Y-46602961D01*
X188061952Y-46507723D01*
X188109571Y-46460104D01*
X188204809Y-46412485D01*
X188442904Y-46412485D01*
X188538142Y-46460104D01*
X188585761Y-46507723D01*
X188633380Y-46602961D01*
X188633380Y-46841057D01*
X188585761Y-46936295D01*
X188538142Y-46983914D01*
X187633380Y-46126771D02*
X188633380Y-45793438D01*
X187633380Y-45460104D01*
X187633380Y-44936295D02*
X187633380Y-44841057D01*
X187681000Y-44745819D01*
X187728619Y-44698200D01*
X187823857Y-44650580D01*
X188014333Y-44602961D01*
X188252428Y-44602961D01*
X188442904Y-44650580D01*
X188538142Y-44698200D01*
X188585761Y-44745819D01*
X188633380Y-44841057D01*
X188633380Y-44936295D01*
X188585761Y-45031533D01*
X188538142Y-45079152D01*
X188442904Y-45126771D01*
X188252428Y-45174390D01*
X188014333Y-45174390D01*
X187823857Y-45126771D01*
X187728619Y-45079152D01*
X187681000Y-45031533D01*
X187633380Y-44936295D01*
X187633380Y-44174390D02*
X188442904Y-44174390D01*
X188538142Y-44126771D01*
X188585761Y-44079152D01*
X188633380Y-43983914D01*
X188633380Y-43793438D01*
X188585761Y-43698200D01*
X188538142Y-43650580D01*
X188442904Y-43602961D01*
X187633380Y-43602961D01*
X187728619Y-43174390D02*
X187681000Y-43126771D01*
X187633380Y-43031533D01*
X187633380Y-42793438D01*
X187681000Y-42698200D01*
X187728619Y-42650580D01*
X187823857Y-42602961D01*
X187919095Y-42602961D01*
X188061952Y-42650580D01*
X188633380Y-43222009D01*
X188633380Y-42602961D01*
X187633380Y-42269628D02*
X188633380Y-41602961D01*
X187633380Y-41602961D02*
X188633380Y-42269628D01*
D14*
X190280047Y-46204390D02*
X190280047Y-46609152D01*
X190303857Y-46656771D01*
X190327666Y-46680580D01*
X190375285Y-46704390D01*
X190470523Y-46704390D01*
X190518142Y-46680580D01*
X190541952Y-46656771D01*
X190565761Y-46609152D01*
X190565761Y-46204390D01*
X190780047Y-46252009D02*
X190803857Y-46228200D01*
X190851476Y-46204390D01*
X190970523Y-46204390D01*
X191018142Y-46228200D01*
X191041952Y-46252009D01*
X191065761Y-46299628D01*
X191065761Y-46347247D01*
X191041952Y-46418676D01*
X190756238Y-46704390D01*
X191065761Y-46704390D01*
%TO.C,RST_SW1*%
D10*
X189238380Y-64820661D02*
X189381238Y-64868280D01*
X189619333Y-64868280D01*
X189714571Y-64820661D01*
X189762190Y-64773042D01*
X189809809Y-64677804D01*
X189809809Y-64582566D01*
X189762190Y-64487328D01*
X189714571Y-64439709D01*
X189619333Y-64392090D01*
X189428857Y-64344471D01*
X189333619Y-64296852D01*
X189286000Y-64249233D01*
X189238380Y-64153995D01*
X189238380Y-64058757D01*
X189286000Y-63963519D01*
X189333619Y-63915900D01*
X189428857Y-63868280D01*
X189666952Y-63868280D01*
X189809809Y-63915900D01*
X190143142Y-63868280D02*
X190381238Y-64868280D01*
X190571714Y-64153995D01*
X190762190Y-64868280D01*
X191000285Y-63868280D01*
X191143142Y-64963519D02*
X191905047Y-64963519D01*
X192143142Y-64868280D02*
X192143142Y-63868280D01*
X192524095Y-63868280D01*
X192619333Y-63915900D01*
X192666952Y-63963519D01*
X192714571Y-64058757D01*
X192714571Y-64201614D01*
X192666952Y-64296852D01*
X192619333Y-64344471D01*
X192524095Y-64392090D01*
X192143142Y-64392090D01*
X193571714Y-64201614D02*
X193571714Y-64868280D01*
X193143142Y-64201614D02*
X193143142Y-64725423D01*
X193190761Y-64820661D01*
X193286000Y-64868280D01*
X193428857Y-64868280D01*
X193524095Y-64820661D01*
X193571714Y-64773042D01*
X194000285Y-64820661D02*
X194095523Y-64868280D01*
X194286000Y-64868280D01*
X194381238Y-64820661D01*
X194428857Y-64725423D01*
X194428857Y-64677804D01*
X194381238Y-64582566D01*
X194286000Y-64534947D01*
X194143142Y-64534947D01*
X194047904Y-64487328D01*
X194000285Y-64392090D01*
X194000285Y-64344471D01*
X194047904Y-64249233D01*
X194143142Y-64201614D01*
X194286000Y-64201614D01*
X194381238Y-64249233D01*
X194857428Y-64868280D02*
X194857428Y-63868280D01*
X195286000Y-64868280D02*
X195286000Y-64344471D01*
X195238380Y-64249233D01*
X195143142Y-64201614D01*
X195000285Y-64201614D01*
X194905047Y-64249233D01*
X194857428Y-64296852D01*
%TO.C,R6*%
X182013380Y-39104390D02*
X182013380Y-39580580D01*
X182489571Y-39628200D01*
X182441952Y-39580580D01*
X182394333Y-39485342D01*
X182394333Y-39247247D01*
X182441952Y-39152009D01*
X182489571Y-39104390D01*
X182584809Y-39056771D01*
X182822904Y-39056771D01*
X182918142Y-39104390D01*
X182965761Y-39152009D01*
X183013380Y-39247247D01*
X183013380Y-39485342D01*
X182965761Y-39580580D01*
X182918142Y-39628200D01*
X182918142Y-38628200D02*
X182965761Y-38580580D01*
X183013380Y-38628200D01*
X182965761Y-38675819D01*
X182918142Y-38628200D01*
X183013380Y-38628200D01*
X183013380Y-37628200D02*
X183013380Y-38199628D01*
X183013380Y-37913914D02*
X182013380Y-37913914D01*
X182156238Y-38009152D01*
X182251476Y-38104390D01*
X182299095Y-38199628D01*
X183013380Y-37199628D02*
X182013380Y-37199628D01*
X183013380Y-36628200D02*
X182441952Y-37056771D01*
X182013380Y-36628200D02*
X182584809Y-37199628D01*
D15*
X181137190Y-38211533D02*
X180899095Y-38378200D01*
X181137190Y-38497247D02*
X180637190Y-38497247D01*
X180637190Y-38306771D01*
X180661000Y-38259152D01*
X180684809Y-38235342D01*
X180732428Y-38211533D01*
X180803857Y-38211533D01*
X180851476Y-38235342D01*
X180875285Y-38259152D01*
X180899095Y-38306771D01*
X180899095Y-38497247D01*
X180637190Y-37782961D02*
X180637190Y-37878200D01*
X180661000Y-37925819D01*
X180684809Y-37949628D01*
X180756238Y-37997247D01*
X180851476Y-38021057D01*
X181041952Y-38021057D01*
X181089571Y-37997247D01*
X181113380Y-37973438D01*
X181137190Y-37925819D01*
X181137190Y-37830580D01*
X181113380Y-37782961D01*
X181089571Y-37759152D01*
X181041952Y-37735342D01*
X180922904Y-37735342D01*
X180875285Y-37759152D01*
X180851476Y-37782961D01*
X180827666Y-37830580D01*
X180827666Y-37925819D01*
X180851476Y-37973438D01*
X180875285Y-37997247D01*
X180922904Y-38021057D01*
%TO.C,R5*%
D10*
X187108619Y-47240104D02*
X187061000Y-47192485D01*
X187013380Y-47097247D01*
X187013380Y-46859152D01*
X187061000Y-46763914D01*
X187108619Y-46716295D01*
X187203857Y-46668676D01*
X187299095Y-46668676D01*
X187441952Y-46716295D01*
X188013380Y-47287723D01*
X188013380Y-46668676D01*
X187108619Y-46287723D02*
X187061000Y-46240104D01*
X187013380Y-46144866D01*
X187013380Y-45906771D01*
X187061000Y-45811533D01*
X187108619Y-45763914D01*
X187203857Y-45716295D01*
X187299095Y-45716295D01*
X187441952Y-45763914D01*
X188013380Y-46335342D01*
X188013380Y-45716295D01*
D15*
X186137190Y-46561533D02*
X185899095Y-46728200D01*
X186137190Y-46847247D02*
X185637190Y-46847247D01*
X185637190Y-46656771D01*
X185661000Y-46609152D01*
X185684809Y-46585342D01*
X185732428Y-46561533D01*
X185803857Y-46561533D01*
X185851476Y-46585342D01*
X185875285Y-46609152D01*
X185899095Y-46656771D01*
X185899095Y-46847247D01*
X185637190Y-46109152D02*
X185637190Y-46347247D01*
X185875285Y-46371057D01*
X185851476Y-46347247D01*
X185827666Y-46299628D01*
X185827666Y-46180580D01*
X185851476Y-46132961D01*
X185875285Y-46109152D01*
X185922904Y-46085342D01*
X186041952Y-46085342D01*
X186089571Y-46109152D01*
X186113380Y-46132961D01*
X186137190Y-46180580D01*
X186137190Y-46299628D01*
X186113380Y-46347247D01*
X186089571Y-46371057D01*
%TO.C,R4*%
D10*
X181808619Y-47240104D02*
X181761000Y-47192485D01*
X181713380Y-47097247D01*
X181713380Y-46859152D01*
X181761000Y-46763914D01*
X181808619Y-46716295D01*
X181903857Y-46668676D01*
X181999095Y-46668676D01*
X182141952Y-46716295D01*
X182713380Y-47287723D01*
X182713380Y-46668676D01*
X181808619Y-46287723D02*
X181761000Y-46240104D01*
X181713380Y-46144866D01*
X181713380Y-45906771D01*
X181761000Y-45811533D01*
X181808619Y-45763914D01*
X181903857Y-45716295D01*
X181999095Y-45716295D01*
X182141952Y-45763914D01*
X182713380Y-46335342D01*
X182713380Y-45716295D01*
D15*
X184137190Y-46561533D02*
X183899095Y-46728200D01*
X184137190Y-46847247D02*
X183637190Y-46847247D01*
X183637190Y-46656771D01*
X183661000Y-46609152D01*
X183684809Y-46585342D01*
X183732428Y-46561533D01*
X183803857Y-46561533D01*
X183851476Y-46585342D01*
X183875285Y-46609152D01*
X183899095Y-46656771D01*
X183899095Y-46847247D01*
X183803857Y-46132961D02*
X184137190Y-46132961D01*
X183613380Y-46252009D02*
X183970523Y-46371057D01*
X183970523Y-46061533D01*
%TO.C,R3*%
D10*
X195713380Y-39104390D02*
X195713380Y-39580580D01*
X196189571Y-39628200D01*
X196141952Y-39580580D01*
X196094333Y-39485342D01*
X196094333Y-39247247D01*
X196141952Y-39152009D01*
X196189571Y-39104390D01*
X196284809Y-39056771D01*
X196522904Y-39056771D01*
X196618142Y-39104390D01*
X196665761Y-39152009D01*
X196713380Y-39247247D01*
X196713380Y-39485342D01*
X196665761Y-39580580D01*
X196618142Y-39628200D01*
X196618142Y-38628200D02*
X196665761Y-38580580D01*
X196713380Y-38628200D01*
X196665761Y-38675819D01*
X196618142Y-38628200D01*
X196713380Y-38628200D01*
X196713380Y-37628200D02*
X196713380Y-38199628D01*
X196713380Y-37913914D02*
X195713380Y-37913914D01*
X195856238Y-38009152D01*
X195951476Y-38104390D01*
X195999095Y-38199628D01*
X196713380Y-37199628D02*
X195713380Y-37199628D01*
X196713380Y-36628200D02*
X196141952Y-37056771D01*
X195713380Y-36628200D02*
X196284809Y-37199628D01*
D15*
X194837190Y-38211533D02*
X194599095Y-38378200D01*
X194837190Y-38497247D02*
X194337190Y-38497247D01*
X194337190Y-38306771D01*
X194361000Y-38259152D01*
X194384809Y-38235342D01*
X194432428Y-38211533D01*
X194503857Y-38211533D01*
X194551476Y-38235342D01*
X194575285Y-38259152D01*
X194599095Y-38306771D01*
X194599095Y-38497247D01*
X194337190Y-38044866D02*
X194337190Y-37735342D01*
X194527666Y-37902009D01*
X194527666Y-37830580D01*
X194551476Y-37782961D01*
X194575285Y-37759152D01*
X194622904Y-37735342D01*
X194741952Y-37735342D01*
X194789571Y-37759152D01*
X194813380Y-37782961D01*
X194837190Y-37830580D01*
X194837190Y-37973438D01*
X194813380Y-38021057D01*
X194789571Y-38044866D01*
%TO.C,R2*%
D10*
X194813380Y-55568676D02*
X194813380Y-56140104D01*
X194813380Y-55854390D02*
X193813380Y-55854390D01*
X193956238Y-55949628D01*
X194051476Y-56044866D01*
X194099095Y-56140104D01*
X193813380Y-54949628D02*
X193813380Y-54854390D01*
X193861000Y-54759152D01*
X193908619Y-54711533D01*
X194003857Y-54663914D01*
X194194333Y-54616295D01*
X194432428Y-54616295D01*
X194622904Y-54663914D01*
X194718142Y-54711533D01*
X194765761Y-54759152D01*
X194813380Y-54854390D01*
X194813380Y-54949628D01*
X194765761Y-55044866D01*
X194718142Y-55092485D01*
X194622904Y-55140104D01*
X194432428Y-55187723D01*
X194194333Y-55187723D01*
X194003857Y-55140104D01*
X193908619Y-55092485D01*
X193861000Y-55044866D01*
X193813380Y-54949628D01*
X194813380Y-54187723D02*
X193813380Y-54187723D01*
X194813380Y-53616295D02*
X194241952Y-54044866D01*
X193813380Y-53616295D02*
X194384809Y-54187723D01*
D15*
X196237190Y-54961533D02*
X195999095Y-55128200D01*
X196237190Y-55247247D02*
X195737190Y-55247247D01*
X195737190Y-55056771D01*
X195761000Y-55009152D01*
X195784809Y-54985342D01*
X195832428Y-54961533D01*
X195903857Y-54961533D01*
X195951476Y-54985342D01*
X195975285Y-55009152D01*
X195999095Y-55056771D01*
X195999095Y-55247247D01*
X195784809Y-54771057D02*
X195761000Y-54747247D01*
X195737190Y-54699628D01*
X195737190Y-54580580D01*
X195761000Y-54532961D01*
X195784809Y-54509152D01*
X195832428Y-54485342D01*
X195880047Y-54485342D01*
X195951476Y-54509152D01*
X196237190Y-54794866D01*
X196237190Y-54485342D01*
%TO.C,R1*%
D10*
X198063380Y-61918676D02*
X198063380Y-62490104D01*
X198063380Y-62204390D02*
X197063380Y-62204390D01*
X197206238Y-62299628D01*
X197301476Y-62394866D01*
X197349095Y-62490104D01*
X197063380Y-61299628D02*
X197063380Y-61204390D01*
X197111000Y-61109152D01*
X197158619Y-61061533D01*
X197253857Y-61013914D01*
X197444333Y-60966295D01*
X197682428Y-60966295D01*
X197872904Y-61013914D01*
X197968142Y-61061533D01*
X198015761Y-61109152D01*
X198063380Y-61204390D01*
X198063380Y-61299628D01*
X198015761Y-61394866D01*
X197968142Y-61442485D01*
X197872904Y-61490104D01*
X197682428Y-61537723D01*
X197444333Y-61537723D01*
X197253857Y-61490104D01*
X197158619Y-61442485D01*
X197111000Y-61394866D01*
X197063380Y-61299628D01*
X198063380Y-60537723D02*
X197063380Y-60537723D01*
X198063380Y-59966295D02*
X197491952Y-60394866D01*
X197063380Y-59966295D02*
X197634809Y-60537723D01*
D15*
X196187190Y-61311533D02*
X195949095Y-61478200D01*
X196187190Y-61597247D02*
X195687190Y-61597247D01*
X195687190Y-61406771D01*
X195711000Y-61359152D01*
X195734809Y-61335342D01*
X195782428Y-61311533D01*
X195853857Y-61311533D01*
X195901476Y-61335342D01*
X195925285Y-61359152D01*
X195949095Y-61406771D01*
X195949095Y-61597247D01*
X196187190Y-60835342D02*
X196187190Y-61121057D01*
X196187190Y-60978200D02*
X195687190Y-60978200D01*
X195758619Y-61025819D01*
X195806238Y-61073438D01*
X195830047Y-61121057D01*
%TO.C,F1*%
D10*
X192443380Y-44637723D02*
X192443380Y-45113914D01*
X192919571Y-45161533D01*
X192871952Y-45113914D01*
X192824333Y-45018676D01*
X192824333Y-44780580D01*
X192871952Y-44685342D01*
X192919571Y-44637723D01*
X193014809Y-44590104D01*
X193252904Y-44590104D01*
X193348142Y-44637723D01*
X193395761Y-44685342D01*
X193443380Y-44780580D01*
X193443380Y-45018676D01*
X193395761Y-45113914D01*
X193348142Y-45161533D01*
X192443380Y-43971057D02*
X192443380Y-43875819D01*
X192491000Y-43780580D01*
X192538619Y-43732961D01*
X192633857Y-43685342D01*
X192824333Y-43637723D01*
X193062428Y-43637723D01*
X193252904Y-43685342D01*
X193348142Y-43732961D01*
X193395761Y-43780580D01*
X193443380Y-43875819D01*
X193443380Y-43971057D01*
X193395761Y-44066295D01*
X193348142Y-44113914D01*
X193252904Y-44161533D01*
X193062428Y-44209152D01*
X192824333Y-44209152D01*
X192633857Y-44161533D01*
X192538619Y-44113914D01*
X192491000Y-44066295D01*
X192443380Y-43971057D01*
X192443380Y-43018676D02*
X192443380Y-42923438D01*
X192491000Y-42828200D01*
X192538619Y-42780580D01*
X192633857Y-42732961D01*
X192824333Y-42685342D01*
X193062428Y-42685342D01*
X193252904Y-42732961D01*
X193348142Y-42780580D01*
X193395761Y-42828200D01*
X193443380Y-42923438D01*
X193443380Y-43018676D01*
X193395761Y-43113914D01*
X193348142Y-43161533D01*
X193252904Y-43209152D01*
X193062428Y-43256771D01*
X192824333Y-43256771D01*
X192633857Y-43209152D01*
X192538619Y-43161533D01*
X192491000Y-43113914D01*
X192443380Y-43018676D01*
X193443380Y-42256771D02*
X192776714Y-42256771D01*
X192871952Y-42256771D02*
X192824333Y-42209152D01*
X192776714Y-42113914D01*
X192776714Y-41971057D01*
X192824333Y-41875819D01*
X192919571Y-41828200D01*
X193443380Y-41828200D01*
X192919571Y-41828200D02*
X192824333Y-41780580D01*
X192776714Y-41685342D01*
X192776714Y-41542485D01*
X192824333Y-41447247D01*
X192919571Y-41399628D01*
X193443380Y-41399628D01*
X193157666Y-40971057D02*
X193157666Y-40494866D01*
X193443380Y-41066295D02*
X192443380Y-40732961D01*
X193443380Y-40399628D01*
D16*
X194753857Y-43094866D02*
X194753857Y-43361533D01*
X195172904Y-43361533D02*
X194372904Y-43361533D01*
X194372904Y-42980580D01*
X195172904Y-42256771D02*
X195172904Y-42713914D01*
X195172904Y-42485342D02*
X194372904Y-42485342D01*
X194487190Y-42561533D01*
X194563380Y-42637723D01*
X194601476Y-42713914D01*
%TO.C,C6*%
D10*
X194731571Y-48150580D02*
X194160142Y-48150580D01*
X194445857Y-48150580D02*
X194445857Y-47150580D01*
X194350619Y-47293438D01*
X194255380Y-47388676D01*
X194160142Y-47436295D01*
X195350619Y-47150580D02*
X195445857Y-47150580D01*
X195541095Y-47198200D01*
X195588714Y-47245819D01*
X195636333Y-47341057D01*
X195683952Y-47531533D01*
X195683952Y-47769628D01*
X195636333Y-47960104D01*
X195588714Y-48055342D01*
X195541095Y-48102961D01*
X195445857Y-48150580D01*
X195350619Y-48150580D01*
X195255380Y-48102961D01*
X195207761Y-48055342D01*
X195160142Y-47960104D01*
X195112523Y-47769628D01*
X195112523Y-47531533D01*
X195160142Y-47341057D01*
X195207761Y-47245819D01*
X195255380Y-47198200D01*
X195350619Y-47150580D01*
X196541095Y-47483914D02*
X196541095Y-48150580D01*
X196112523Y-47483914D02*
X196112523Y-48007723D01*
X196160142Y-48102961D01*
X196255380Y-48150580D01*
X196398238Y-48150580D01*
X196493476Y-48102961D01*
X196541095Y-48055342D01*
X197350619Y-47626771D02*
X197017285Y-47626771D01*
X197017285Y-48150580D02*
X197017285Y-47150580D01*
X197493476Y-47150580D01*
D12*
X195736333Y-49271057D02*
X195717285Y-49290104D01*
X195660142Y-49309152D01*
X195622047Y-49309152D01*
X195564904Y-49290104D01*
X195526809Y-49252009D01*
X195507761Y-49213914D01*
X195488714Y-49137723D01*
X195488714Y-49080580D01*
X195507761Y-49004390D01*
X195526809Y-48966295D01*
X195564904Y-48928200D01*
X195622047Y-48909152D01*
X195660142Y-48909152D01*
X195717285Y-48928200D01*
X195736333Y-48947247D01*
X196079190Y-48909152D02*
X196003000Y-48909152D01*
X195964904Y-48928200D01*
X195945857Y-48947247D01*
X195907761Y-49004390D01*
X195888714Y-49080580D01*
X195888714Y-49232961D01*
X195907761Y-49271057D01*
X195926809Y-49290104D01*
X195964904Y-49309152D01*
X196041095Y-49309152D01*
X196079190Y-49290104D01*
X196098238Y-49271057D01*
X196117285Y-49232961D01*
X196117285Y-49137723D01*
X196098238Y-49099628D01*
X196079190Y-49080580D01*
X196041095Y-49061533D01*
X195964904Y-49061533D01*
X195926809Y-49080580D01*
X195907761Y-49099628D01*
X195888714Y-49137723D01*
%TO.C,C5*%
D10*
X194160142Y-45600580D02*
X194255380Y-45600580D01*
X194350619Y-45648200D01*
X194398238Y-45695819D01*
X194445857Y-45791057D01*
X194493476Y-45981533D01*
X194493476Y-46219628D01*
X194445857Y-46410104D01*
X194398238Y-46505342D01*
X194350619Y-46552961D01*
X194255380Y-46600580D01*
X194160142Y-46600580D01*
X194064904Y-46552961D01*
X194017285Y-46505342D01*
X193969666Y-46410104D01*
X193922047Y-46219628D01*
X193922047Y-45981533D01*
X193969666Y-45791057D01*
X194017285Y-45695819D01*
X194064904Y-45648200D01*
X194160142Y-45600580D01*
X194922047Y-46505342D02*
X194969666Y-46552961D01*
X194922047Y-46600580D01*
X194874428Y-46552961D01*
X194922047Y-46505342D01*
X194922047Y-46600580D01*
X195922047Y-46600580D02*
X195350619Y-46600580D01*
X195636333Y-46600580D02*
X195636333Y-45600580D01*
X195541095Y-45743438D01*
X195445857Y-45838676D01*
X195350619Y-45886295D01*
X196779190Y-45933914D02*
X196779190Y-46600580D01*
X196350619Y-45933914D02*
X196350619Y-46457723D01*
X196398238Y-46552961D01*
X196493476Y-46600580D01*
X196636333Y-46600580D01*
X196731571Y-46552961D01*
X196779190Y-46505342D01*
X197588714Y-46076771D02*
X197255380Y-46076771D01*
X197255380Y-46600580D02*
X197255380Y-45600580D01*
X197731571Y-45600580D01*
D12*
X195736333Y-47721057D02*
X195717285Y-47740104D01*
X195660142Y-47759152D01*
X195622047Y-47759152D01*
X195564904Y-47740104D01*
X195526809Y-47702009D01*
X195507761Y-47663914D01*
X195488714Y-47587723D01*
X195488714Y-47530580D01*
X195507761Y-47454390D01*
X195526809Y-47416295D01*
X195564904Y-47378200D01*
X195622047Y-47359152D01*
X195660142Y-47359152D01*
X195717285Y-47378200D01*
X195736333Y-47397247D01*
X196098238Y-47359152D02*
X195907761Y-47359152D01*
X195888714Y-47549628D01*
X195907761Y-47530580D01*
X195945857Y-47511533D01*
X196041095Y-47511533D01*
X196079190Y-47530580D01*
X196098238Y-47549628D01*
X196117285Y-47587723D01*
X196117285Y-47682961D01*
X196098238Y-47721057D01*
X196079190Y-47740104D01*
X196041095Y-47759152D01*
X195945857Y-47759152D01*
X195907761Y-47740104D01*
X195888714Y-47721057D01*
%TO.C,C4*%
D10*
X194160142Y-44041180D02*
X194255380Y-44041180D01*
X194350619Y-44088800D01*
X194398238Y-44136419D01*
X194445857Y-44231657D01*
X194493476Y-44422133D01*
X194493476Y-44660228D01*
X194445857Y-44850704D01*
X194398238Y-44945942D01*
X194350619Y-44993561D01*
X194255380Y-45041180D01*
X194160142Y-45041180D01*
X194064904Y-44993561D01*
X194017285Y-44945942D01*
X193969666Y-44850704D01*
X193922047Y-44660228D01*
X193922047Y-44422133D01*
X193969666Y-44231657D01*
X194017285Y-44136419D01*
X194064904Y-44088800D01*
X194160142Y-44041180D01*
X194922047Y-44945942D02*
X194969666Y-44993561D01*
X194922047Y-45041180D01*
X194874428Y-44993561D01*
X194922047Y-44945942D01*
X194922047Y-45041180D01*
X195922047Y-45041180D02*
X195350619Y-45041180D01*
X195636333Y-45041180D02*
X195636333Y-44041180D01*
X195541095Y-44184038D01*
X195445857Y-44279276D01*
X195350619Y-44326895D01*
X196779190Y-44374514D02*
X196779190Y-45041180D01*
X196350619Y-44374514D02*
X196350619Y-44898323D01*
X196398238Y-44993561D01*
X196493476Y-45041180D01*
X196636333Y-45041180D01*
X196731571Y-44993561D01*
X196779190Y-44945942D01*
X197588714Y-44517371D02*
X197255380Y-44517371D01*
X197255380Y-45041180D02*
X197255380Y-44041180D01*
X197731571Y-44041180D01*
D12*
X195736333Y-46161657D02*
X195717285Y-46180704D01*
X195660142Y-46199752D01*
X195622047Y-46199752D01*
X195564904Y-46180704D01*
X195526809Y-46142609D01*
X195507761Y-46104514D01*
X195488714Y-46028323D01*
X195488714Y-45971180D01*
X195507761Y-45894990D01*
X195526809Y-45856895D01*
X195564904Y-45818800D01*
X195622047Y-45799752D01*
X195660142Y-45799752D01*
X195717285Y-45818800D01*
X195736333Y-45837847D01*
X196079190Y-45933085D02*
X196079190Y-46199752D01*
X195983952Y-45780704D02*
X195888714Y-46066419D01*
X196136333Y-46066419D01*
%TO.C,C3*%
D10*
X179283380Y-46023438D02*
X179283380Y-46594866D01*
X179283380Y-46309152D02*
X178283380Y-46309152D01*
X178426238Y-46404390D01*
X178521476Y-46499628D01*
X178569095Y-46594866D01*
X178616714Y-45166295D02*
X179283380Y-45166295D01*
X178616714Y-45594866D02*
X179140523Y-45594866D01*
X179235761Y-45547247D01*
X179283380Y-45452009D01*
X179283380Y-45309152D01*
X179235761Y-45213914D01*
X179188142Y-45166295D01*
X178759571Y-44356771D02*
X178759571Y-44690104D01*
X179283380Y-44690104D02*
X178283380Y-44690104D01*
X178283380Y-44213914D01*
D12*
X180403857Y-45494866D02*
X180422904Y-45513914D01*
X180441952Y-45571057D01*
X180441952Y-45609152D01*
X180422904Y-45666295D01*
X180384809Y-45704390D01*
X180346714Y-45723438D01*
X180270523Y-45742485D01*
X180213380Y-45742485D01*
X180137190Y-45723438D01*
X180099095Y-45704390D01*
X180061000Y-45666295D01*
X180041952Y-45609152D01*
X180041952Y-45571057D01*
X180061000Y-45513914D01*
X180080047Y-45494866D01*
X180041952Y-45361533D02*
X180041952Y-45113914D01*
X180194333Y-45247247D01*
X180194333Y-45190104D01*
X180213380Y-45152009D01*
X180232428Y-45132961D01*
X180270523Y-45113914D01*
X180365761Y-45113914D01*
X180403857Y-45132961D01*
X180422904Y-45152009D01*
X180441952Y-45190104D01*
X180441952Y-45304390D01*
X180422904Y-45342485D01*
X180403857Y-45361533D01*
%TO.C,C2*%
D10*
X179656142Y-64011419D02*
X179703761Y-63963800D01*
X179799000Y-63916180D01*
X180037095Y-63916180D01*
X180132333Y-63963800D01*
X180179952Y-64011419D01*
X180227571Y-64106657D01*
X180227571Y-64201895D01*
X180179952Y-64344752D01*
X179608523Y-64916180D01*
X180227571Y-64916180D01*
X180608523Y-64011419D02*
X180656142Y-63963800D01*
X180751380Y-63916180D01*
X180989476Y-63916180D01*
X181084714Y-63963800D01*
X181132333Y-64011419D01*
X181179952Y-64106657D01*
X181179952Y-64201895D01*
X181132333Y-64344752D01*
X180560904Y-64916180D01*
X181179952Y-64916180D01*
X181608523Y-64249514D02*
X181608523Y-65249514D01*
X181608523Y-64297133D02*
X181703761Y-64249514D01*
X181894238Y-64249514D01*
X181989476Y-64297133D01*
X182037095Y-64344752D01*
X182084714Y-64439990D01*
X182084714Y-64725704D01*
X182037095Y-64820942D01*
X181989476Y-64868561D01*
X181894238Y-64916180D01*
X181703761Y-64916180D01*
X181608523Y-64868561D01*
X182846619Y-64392371D02*
X182513285Y-64392371D01*
X182513285Y-64916180D02*
X182513285Y-63916180D01*
X182989476Y-63916180D01*
D12*
X181232333Y-66036657D02*
X181213285Y-66055704D01*
X181156142Y-66074752D01*
X181118047Y-66074752D01*
X181060904Y-66055704D01*
X181022809Y-66017609D01*
X181003761Y-65979514D01*
X180984714Y-65903323D01*
X180984714Y-65846180D01*
X181003761Y-65769990D01*
X181022809Y-65731895D01*
X181060904Y-65693800D01*
X181118047Y-65674752D01*
X181156142Y-65674752D01*
X181213285Y-65693800D01*
X181232333Y-65712847D01*
X181384714Y-65712847D02*
X181403761Y-65693800D01*
X181441857Y-65674752D01*
X181537095Y-65674752D01*
X181575190Y-65693800D01*
X181594238Y-65712847D01*
X181613285Y-65750942D01*
X181613285Y-65789038D01*
X181594238Y-65846180D01*
X181365666Y-66074752D01*
X181613285Y-66074752D01*
%TO.C,C1*%
D10*
X182906142Y-66871419D02*
X182953761Y-66823800D01*
X183049000Y-66776180D01*
X183287095Y-66776180D01*
X183382333Y-66823800D01*
X183429952Y-66871419D01*
X183477571Y-66966657D01*
X183477571Y-67061895D01*
X183429952Y-67204752D01*
X182858523Y-67776180D01*
X183477571Y-67776180D01*
X183858523Y-66871419D02*
X183906142Y-66823800D01*
X184001380Y-66776180D01*
X184239476Y-66776180D01*
X184334714Y-66823800D01*
X184382333Y-66871419D01*
X184429952Y-66966657D01*
X184429952Y-67061895D01*
X184382333Y-67204752D01*
X183810904Y-67776180D01*
X184429952Y-67776180D01*
X184858523Y-67109514D02*
X184858523Y-68109514D01*
X184858523Y-67157133D02*
X184953761Y-67109514D01*
X185144238Y-67109514D01*
X185239476Y-67157133D01*
X185287095Y-67204752D01*
X185334714Y-67299990D01*
X185334714Y-67585704D01*
X185287095Y-67680942D01*
X185239476Y-67728561D01*
X185144238Y-67776180D01*
X184953761Y-67776180D01*
X184858523Y-67728561D01*
X186096619Y-67252371D02*
X185763285Y-67252371D01*
X185763285Y-67776180D02*
X185763285Y-66776180D01*
X186239476Y-66776180D01*
D12*
X184482333Y-66036657D02*
X184463285Y-66055704D01*
X184406142Y-66074752D01*
X184368047Y-66074752D01*
X184310904Y-66055704D01*
X184272809Y-66017609D01*
X184253761Y-65979514D01*
X184234714Y-65903323D01*
X184234714Y-65846180D01*
X184253761Y-65769990D01*
X184272809Y-65731895D01*
X184310904Y-65693800D01*
X184368047Y-65674752D01*
X184406142Y-65674752D01*
X184463285Y-65693800D01*
X184482333Y-65712847D01*
X184863285Y-66074752D02*
X184634714Y-66074752D01*
X184749000Y-66074752D02*
X184749000Y-65674752D01*
X184710904Y-65731895D01*
X184672809Y-65769990D01*
X184634714Y-65789038D01*
%TD*%
M02*
