%TF.GenerationSoftware,KiCad,Pcbnew,(5.1.7)-1*%
%TF.CreationDate,2020-10-26T01:34:49-04:00*%
%TF.ProjectId,OreoOrtho,4f72656f-4f72-4746-986f-2e6b69636164,rev?*%
%TF.SameCoordinates,Original*%
%TF.FileFunction,Other,User*%
%FSLAX46Y46*%
G04 Gerber Fmt 4.6, Leading zero omitted, Abs format (unit mm)*
G04 Created by KiCad (PCBNEW (5.1.7)-1) date 2020-10-26 01:34:49*
%MOMM*%
%LPD*%
G01*
G04 APERTURE LIST*
%ADD10C,0.050000*%
G04 APERTURE END LIST*
D10*
%TO.C,U1*%
X179561000Y-63428200D02*
X192961000Y-63428200D01*
X179561000Y-50028200D02*
X192961000Y-50028200D01*
X192961000Y-50028200D02*
X192961000Y-63428200D01*
X179561000Y-50028200D02*
X179561000Y-63428200D01*
%TO.C,C7*%
X194331000Y-49948200D02*
X197291000Y-49948200D01*
X194331000Y-51408200D02*
X194331000Y-49948200D01*
X197291000Y-51408200D02*
X194331000Y-51408200D01*
X197291000Y-49948200D02*
X197291000Y-51408200D01*
%TO.C,Y1*%
X180149000Y-71593800D02*
X185749000Y-71593800D01*
X180149000Y-66993800D02*
X180149000Y-71593800D01*
X185749000Y-66993800D02*
X180149000Y-66993800D01*
X185749000Y-71593800D02*
X185749000Y-66993800D01*
%TO.C,U2*%
X188911000Y-44428200D02*
X192411000Y-44428200D01*
X188911000Y-44428200D02*
X188911000Y-48528200D01*
X192411000Y-48528200D02*
X192411000Y-44428200D01*
X192411000Y-48528200D02*
X188911000Y-48528200D01*
%TO.C,R6*%
X181861000Y-36448200D02*
X181861000Y-39808200D01*
X179961000Y-36448200D02*
X181861000Y-36448200D01*
X179961000Y-39808200D02*
X179961000Y-36448200D01*
X181861000Y-39808200D02*
X179961000Y-39808200D01*
%TO.C,R5*%
X186861000Y-44798200D02*
X186861000Y-48158200D01*
X184961000Y-44798200D02*
X186861000Y-44798200D01*
X184961000Y-48158200D02*
X184961000Y-44798200D01*
X186861000Y-48158200D02*
X184961000Y-48158200D01*
%TO.C,R4*%
X182961000Y-48158200D02*
X182961000Y-44798200D01*
X184861000Y-48158200D02*
X182961000Y-48158200D01*
X184861000Y-44798200D02*
X184861000Y-48158200D01*
X182961000Y-44798200D02*
X184861000Y-44798200D01*
%TO.C,R3*%
X195561000Y-36448200D02*
X195561000Y-39808200D01*
X193661000Y-36448200D02*
X195561000Y-36448200D01*
X193661000Y-39808200D02*
X193661000Y-36448200D01*
X195561000Y-39808200D02*
X193661000Y-39808200D01*
%TO.C,R2*%
X195061000Y-56558200D02*
X195061000Y-53198200D01*
X196961000Y-56558200D02*
X195061000Y-56558200D01*
X196961000Y-53198200D02*
X196961000Y-56558200D01*
X195061000Y-53198200D02*
X196961000Y-53198200D01*
%TO.C,R1*%
X196911000Y-59548200D02*
X196911000Y-62908200D01*
X195011000Y-59548200D02*
X196911000Y-59548200D01*
X195011000Y-62908200D02*
X195011000Y-59548200D01*
X196911000Y-62908200D02*
X195011000Y-62908200D01*
%TO.C,F1*%
X193691000Y-45108200D02*
X193691000Y-40548200D01*
X195931000Y-45108200D02*
X193691000Y-45108200D01*
X195931000Y-40548200D02*
X195931000Y-45108200D01*
X193691000Y-40548200D02*
X195931000Y-40548200D01*
%TO.C,C6*%
X194323000Y-48398200D02*
X197283000Y-48398200D01*
X194323000Y-49858200D02*
X194323000Y-48398200D01*
X197283000Y-49858200D02*
X194323000Y-49858200D01*
X197283000Y-48398200D02*
X197283000Y-49858200D01*
%TO.C,C5*%
X194323000Y-46848200D02*
X197283000Y-46848200D01*
X194323000Y-48308200D02*
X194323000Y-46848200D01*
X197283000Y-48308200D02*
X194323000Y-48308200D01*
X197283000Y-46848200D02*
X197283000Y-48308200D01*
%TO.C,C4*%
X194323000Y-45288800D02*
X197283000Y-45288800D01*
X194323000Y-46748800D02*
X194323000Y-45288800D01*
X197283000Y-46748800D02*
X194323000Y-46748800D01*
X197283000Y-45288800D02*
X197283000Y-46748800D01*
%TO.C,C3*%
X179531000Y-46908200D02*
X179531000Y-43948200D01*
X180991000Y-46908200D02*
X179531000Y-46908200D01*
X180991000Y-43948200D02*
X180991000Y-46908200D01*
X179531000Y-43948200D02*
X180991000Y-43948200D01*
%TO.C,C2*%
X179819000Y-65163800D02*
X182779000Y-65163800D01*
X179819000Y-66623800D02*
X179819000Y-65163800D01*
X182779000Y-66623800D02*
X179819000Y-66623800D01*
X182779000Y-65163800D02*
X182779000Y-66623800D01*
%TO.C,C1*%
X186029000Y-66623800D02*
X183069000Y-66623800D01*
X186029000Y-65163800D02*
X186029000Y-66623800D01*
X183069000Y-65163800D02*
X186029000Y-65163800D01*
X183069000Y-66623800D02*
X183069000Y-65163800D01*
%TD*%
M02*
