M48
; DRILL file {KiCad (5.1.7)-1} date 10/26/20 01:34:52
; FORMAT={-:-/ absolute / inch / decimal}
; #@! TF.CreationDate,2020-10-26T01:34:52-04:00
; #@! TF.GenerationSoftware,Kicad,Pcbnew,(5.1.7)-1
FMAT,2
INCH
T1C0.0118
T2C0.0236
T3C0.1575
T4C0.0256
T5C0.0748
T6C0.1181
T7C0.1614
%
G90
G05
T1
X5.8143Y-2.0347
X5.9863Y-2.4418
X6.0934Y-2.7576
X6.3149Y-2.3345
X6.3964Y-1.7654
X6.4097Y-2.3088
X6.8202Y-2.7491
X6.8212Y-1.9719
X7.0182Y-2.2253
X7.0694Y-2.0429
X7.1347Y-2.5651
X7.21Y-2.5164
X7.2196Y-2.5585
X7.2735Y-1.5538
X7.2913Y-2.5394
X7.3401Y-1.617
X7.3847Y-2.5326
X7.4516Y-1.6207
X7.5159Y-1.5399
X7.5257Y-2.0025
X7.6054Y-2.1872
X7.6393Y-2.3344
X7.6508Y-2.1495
T3
X6.2813Y-2.1563
T4
X7.2784Y-1.6094
X7.5059Y-1.6094
T5
X5.7063Y-2.5313
X6.1063Y-2.5313
X6.4563Y-2.5313
X6.8563Y-2.5313
X5.7063Y-1.7813
X6.1063Y-1.7813
X6.4563Y-1.7813
X6.8563Y-1.7813
T6
X5.7563Y-2.4313
X6.0063Y-2.3313
X6.5063Y-2.4313
X6.7563Y-2.3313
X5.7563Y-1.6813
X6.0063Y-1.5813
X6.5063Y-1.6813
X6.7563Y-1.5813
T7
X5.9063Y-2.5313
X6.6563Y-2.5313
X5.9063Y-1.7813
X6.6563Y-1.7813
T2
G00X7.2221Y-1.4775
M15
G01X7.2221Y-1.4539
M16
G05
G00X7.2221Y-1.6519
M15
G01X7.2221Y-1.6086
M16
G05
G00X7.5622Y-1.4775
M15
G01X7.5622Y-1.4539
M16
G05
G00X7.5622Y-1.6519
M15
G01X7.5622Y-1.6086
M16
G05
T0
M30
